<svg width="325" height="325" viewBox="0 0 325 325" fill="none" xmlns="http://www.w3.org/2000/svg">
<g filter="url(#filter0_f_575_32021)">
<rect width="185" height="185" rx="92.5" transform="matrix(1 0 0 -1 70 255)" fill="url(#paint0_linear_575_32021)"/>
</g>
<path d="M142.471 18.7607L143.027 22.6002M183.654 305.94L182.921 300.837M19.0979 142.029L22.9913 142.584M306.421 182.849L303.336 182.394M303.336 182.394C306.244 182.495 308.57 183.328 310.188 184.945C320.149 194.897 300.303 230.842 265.844 265.271C231.386 299.675 195.41 319.529 185.449 309.577C183.477 307.607 182.668 304.601 182.921 300.812M303.336 182.394C298.634 182.217 292.39 183.985 285.159 187.395M303.336 182.394L278.662 178.832M124.673 123.791C137.566 110.909 150.789 103.28 154.252 106.715C157.716 110.151 150.055 123.387 137.162 136.269C145.96 127.479 155.061 122.301 157.488 124.726C157.564 124.801 157.64 124.902 157.69 124.978M124.091 124.423C124.294 124.22 124.496 124.018 124.698 123.816C141.055 107.473 151.421 90.1197 151.345 80.5462M201.857 200.909C214.75 188.027 222.385 174.816 218.947 171.355C215.509 167.895 202.261 175.548 189.368 188.431C189.166 188.633 188.963 188.835 188.761 189.037C176.247 201.718 168.89 214.6 172.278 217.985C175.665 221.37 188.559 214.019 201.25 201.516M201.225 201.49C201.427 201.288 201.629 201.086 201.832 200.884C218.694 184.036 236.518 173.502 245.821 174.134M137.137 136.269C136.934 136.471 136.732 136.674 136.53 136.876M189.343 188.431C198.141 179.641 203.222 170.446 200.669 167.895C200.618 167.844 200.542 167.768 200.492 167.718M188.787 189.062C180.166 197.499 171.317 202.273 168.84 199.773C168.612 199.545 168.435 199.242 168.334 198.914M168.334 198.914L179.508 276.184M168.334 198.914L168.182 197.878M168.334 198.914C168.233 198.611 168.182 198.257 168.182 197.878M179.508 276.184C178.977 269.944 182.441 260.623 188.963 249.939M179.508 276.184C179.559 276.714 179.635 277.194 179.711 277.674L179.508 276.184ZM168.182 197.878C168.182 194.14 172.632 186.915 179.559 179.843C179.761 179.64 179.963 179.438 180.166 179.236C186.815 172.593 193.691 168.097 197.761 167.364M188.963 249.939C183.553 251.707 179.23 251.707 176.93 249.408C170.483 242.967 181.379 221.648 201.276 201.541M188.963 249.939C198.773 246.731 212.349 237.536 225.419 224.477C238.49 211.417 247.743 197.802 250.979 188.002M188.963 249.939C195.41 239.38 205.118 227.23 216.748 215.61C228.402 203.966 240.386 194.468 251.004 188.002M197.761 167.364L163.126 162.464L163.278 163.55L168.207 197.878M197.761 167.364L200.542 167.768C199.91 167.263 198.95 167.162 197.761 167.364ZM158.044 127.277L163 161.832L163.101 162.464L162.671 162.413L162.014 162.312L22.9913 142.559C19.8564 142.509 17.3788 141.65 15.6344 139.932C5.54713 129.853 25.3172 93.8076 59.7504 59.3785C94.2089 24.9746 130.311 5.22145 140.373 15.3001C142.092 17.0178 142.951 19.4932 143.002 22.6002M245.821 174.109L200.492 167.693M245.821 174.109C246.327 174.134 246.807 174.21 247.262 174.311M245.821 174.109L247.262 174.311M247.262 174.311L276.867 178.504M247.262 174.311C248.526 174.589 249.563 175.119 250.372 175.927C252.698 178.251 252.774 182.495 250.979 187.926M247.262 174.311L278.662 178.832M182.921 300.812C183.225 296.316 185.07 290.582 188.129 284.191M182.921 300.812L179.685 277.598M188.129 284.191C185.475 284.09 183.351 283.307 181.834 281.791C180.747 280.705 180.039 279.29 179.685 277.623M188.129 284.191C200.745 284.721 224.914 270.146 247.894 247.185C270.875 224.224 285.488 200.101 285.159 187.395M188.129 284.191C195.511 268.707 210.25 248.777 229.793 229.251C249.335 209.725 269.611 194.695 285.159 187.395M285.159 187.395C285.083 184.667 284.325 182.47 282.783 180.929C281.696 179.843 280.356 179.236 278.662 178.832M276.867 178.504C270.648 178.1 261.47 181.535 250.953 187.926M276.867 178.504C277.499 178.605 278.106 178.706 278.662 178.832M158.044 127.201C157.463 131.116 152.811 138.139 145.96 145.009C145.758 145.211 145.555 145.413 145.353 145.616C136.732 154.052 128.01 158.927 125.634 156.553C123.257 154.179 128.137 145.464 136.58 136.85M23.0166 142.584C27.7189 142.635 33.8623 140.892 40.941 137.583C41.118 140.109 41.9017 142.18 43.3933 143.645C48.4749 148.722 60.4583 145.742 75.0456 137.027M40.9663 137.583C40.1068 124.978 54.6688 100.527 77.8266 77.3888C100.984 54.2508 125.457 39.7011 138.072 40.5599M40.9158 137.583C56.4891 130.308 76.6383 115.455 96.2567 95.8537C115.875 76.2521 130.715 56.12 138.022 40.5599M136.53 136.85C123.839 149.354 110.945 156.705 107.557 153.32C104.17 149.935 111.527 137.052 124.041 124.372C103.917 144.251 82.4783 155.037 75.9052 148.47C73.6299 146.196 73.4276 142.155 74.9698 137.002C85.7144 130.586 97.8241 121.012 109.631 109.241C121.563 97.3187 131.221 85.0425 137.668 74.2313C127.757 77.2625 113.878 86.5581 100.63 99.7942C87.2818 113.131 77.9277 127.125 74.9698 137.027M151.294 80.521L157.665 124.978M151.294 80.521C151.294 79.4601 151.143 78.5002 150.89 77.6666M151.294 80.521L150.89 77.6666M150.89 77.6666L143.002 22.6255C143.078 27.3491 141.333 33.4872 137.996 40.5852C140.524 40.762 142.597 41.5451 144.064 43.0354C149.095 48.0621 146.213 59.8584 137.668 74.2565C142.926 72.6399 147.072 72.8167 149.373 75.1154C150.081 75.8226 150.561 76.6815 150.89 77.6919M37.9073 37.3519L288.092 287.323M244.936 20.6047L163.025 162.363M163.025 162.363L81.1132 304.146M163.025 162.363L21.1457 244.23M163.025 162.363L304.904 80.521M158.044 127.226C158.196 126.266 158.095 125.509 157.716 124.978L158.044 127.226Z" stroke="#0F0F0F" stroke-width="1.6" stroke-linecap="round" stroke-linejoin="round"/>
<defs>
<filter id="filter0_f_575_32021" x="0" y="0" width="325" height="325" filterUnits="userSpaceOnUse" color-interpolation-filters="sRGB">
<feFlood flood-opacity="0" result="BackgroundImageFix"/>
<feBlend mode="normal" in="SourceGraphic" in2="BackgroundImageFix" result="shape"/>
<feGaussianBlur stdDeviation="35" result="effect1_foregroundBlur_575_32021"/>
</filter>
<linearGradient id="paint0_linear_575_32021" x1="92.5" y1="0" x2="92.5" y2="185" gradientUnits="userSpaceOnUse">
<stop stop-color="#FF6B00" stop-opacity="0"/>
<stop offset="1" stop-color="#FF6B00"/>
</linearGradient>
</defs>
</svg>
