<svg width="234" height="213" viewBox="0 0 234 213" fill="none" xmlns="http://www.w3.org/2000/svg">
<path d="M216.733 123.6C207.195 54.0335 166.311 1.66406 117.164 1.66406M117.164 1.66406C68.017 1.66406 27.1331 54.0335 17.5951 123.6M117.164 1.66406C140.475 1.66406 159.869 52.0969 164.388 119.083M117.164 1.66406C93.8529 1.66406 74.4704 52.0969 69.9399 119.083M117.164 1.66406C131.487 1.66406 143.407 52.0969 146.181 119.083M117.164 1.66406C102.842 1.66406 90.9211 52.0969 88.1468 119.083M198.526 121.341C190.676 53.0641 157.031 1.66406 116.589 1.66406C76.1478 1.66406 42.5032 53.0641 34.6641 121.341M181.457 120.212C175.251 52.5816 148.613 1.66406 116.595 1.66406C84.5774 1.66406 57.9395 52.5816 51.733 120.212M1.66406 166.503V156.886C40.0084 152.011 78.5805 149.567 117.164 149.567C155.748 149.567 194.32 152.011 232.664 156.886V166.503C194.32 161.627 155.748 159.184 117.164 159.184C78.5805 159.184 40.0084 161.627 1.66406 166.503ZM1.66406 166.503L16.3214 176.664C82.864 167.804 150.304 167.804 216.857 176.664L231.526 166.503M16.4572 176.664V203.761M16.4572 203.761H217.871M16.4572 203.761L1.66406 211.664M217.871 203.761V176.664M217.871 203.761L232.664 211.664M42.6296 173.277V204.89M72.2158 171.019V203.761M191.699 173.277V204.89M162.112 171.019V203.761M116.595 185.696H100.664V203.761H116.595M116.595 185.696V203.761M116.595 185.696H132.526V203.761H116.595M117.164 118.636C155.417 118.636 194.035 121.102 231.981 125.964V156.675C194.035 151.812 155.417 149.358 117.164 149.358C78.9108 149.358 40.2931 151.824 2.34736 156.675V125.964C40.2817 121.102 78.9108 118.636 117.164 118.636ZM117.164 117.954C78.5805 117.954 40.0084 120.42 1.66406 125.374V157.471C40.0084 152.528 78.5805 150.051 117.164 150.051C155.748 150.051 194.32 152.528 232.664 157.471V125.374C194.32 120.431 155.748 117.954 117.164 117.954ZM117.164 150.24C155.417 150.24 194.035 152.672 231.981 157.48V165.729C194.035 160.932 155.417 158.511 117.164 158.511C78.9108 158.511 40.2931 160.944 2.34736 165.729V157.48C40.2817 152.683 78.9108 150.24 117.164 150.24Z" stroke="#E7E4E5" stroke-width="1.6" stroke-miterlimit="10"/>
</svg>
