<svg width="158" height="158" viewBox="0 0 158 158" fill="none" xmlns="http://www.w3.org/2000/svg">
<path d="M155.415 15.6432C151.87 9.51036 145.25 5.70953 138.145 5.70953C135.615 5.70953 133.146 6.17896 130.798 7.11781L128.904 7.87494L124.586 0.409576C124.359 0.0310078 123.844 -0.12042 123.45 0.106721L98.6816 14.4015C98.4846 14.5075 98.3483 14.6892 98.2877 14.9012C98.2271 15.1132 98.2574 15.3403 98.3634 15.5372L102.711 23.0782L84.0324 33.9962C83.8355 34.1022 83.6991 34.2839 83.6537 34.4959C83.6083 34.7079 83.6234 34.935 83.7446 35.1319C83.9718 35.5104 84.4869 35.6619 84.8808 35.4347L103.544 24.5168L121.784 56.0894L88.8044 74.8967L87.5773 73.1098C85.6685 70.3084 82.4721 68.6276 79.0332 68.6276C73.322 68.6276 68.6713 73.2764 68.6713 78.9852C68.6713 80.5449 69.0197 82.0592 69.6863 83.4675L70.6104 85.3906L53.0677 95.9602L34.9495 64.5996L60.1727 49.8506C60.5665 49.6235 60.7029 49.1086 60.4756 48.7149C60.2484 48.3363 59.7333 48.1849 59.3395 48.412L16.9372 73.2007C16.5434 73.4278 16.407 73.9427 16.6343 74.3364L20.982 81.8623L5.90872 90.5694L1.56094 83.0435C1.3337 82.6649 0.818635 82.5135 0.42476 82.7406C0.227822 82.8466 0.0914802 83.0283 0.030884 83.2403C-0.0297123 83.4523 0.000585848 83.6795 0.106629 83.8763L19.1793 116.887C19.4065 117.266 19.9216 117.417 20.3155 117.19C20.5124 117.084 20.6488 116.903 20.6942 116.691C20.7397 116.479 20.7245 116.251 20.6033 116.055L16.2555 108.529L31.3288 99.8216L35.6766 107.363C35.9039 107.741 36.4341 107.893 36.828 107.666L73.3978 85.648C71.5042 84.058 70.2922 81.6655 70.2922 79.0004C70.2922 74.2001 74.2007 70.2933 79.0029 70.2933C83.8052 70.2933 87.7136 74.2001 87.7136 79.0004C87.7136 83.8006 83.8052 87.7074 79.0029 87.7074C77.3062 87.7074 75.7156 87.2229 74.3825 86.3749L40.3425 156.334H31.3288C30.8744 156.334 30.4956 156.713 30.4956 157.167C30.4956 157.621 30.8744 158 31.3288 158H50.4015C50.856 158 51.2347 157.621 51.2347 157.167C51.2347 156.713 50.856 156.334 50.4015 156.334H42.1907L55.2947 129.395H78.1697V156.334H69.459C69.0046 156.334 68.6258 156.713 68.6258 157.167C68.6258 157.621 69.0046 158 69.459 158H88.5317C88.9862 158 89.3649 157.621 89.3649 157.167C89.3649 156.713 88.9862 156.334 88.5317 156.334H79.821V129.395H102.696L115.8 156.334H107.589C107.135 156.334 106.756 156.713 106.756 157.167C106.756 157.621 107.135 158 107.589 158H126.662C127.116 158 127.495 157.621 127.495 157.167C127.495 156.713 127.116 156.334 126.662 156.334H117.648L84.4111 88.0103L85.7746 86.8292C88.0469 84.8757 89.3497 82.0138 89.3497 79.0004C89.3497 78.7278 89.3497 78.4249 89.3043 78.0767L89.168 76.5775L122.556 57.5431L126.904 65.0842C127.132 65.4779 127.647 65.6142 128.04 65.387L152.809 51.0923C153.006 50.9863 153.142 50.8046 153.203 50.5926C153.264 50.3806 153.233 50.1535 153.127 49.9566L148.825 42.4912L150.431 41.2344C158.157 35.1773 160.278 24.1837 155.354 15.6583L155.415 15.6432ZM15.4678 107.09L6.75707 92.0231L21.8304 83.316L30.5411 98.3831L15.4678 107.09ZM36.7371 105.803L18.4976 74.2304L33.5255 65.4476L51.6437 96.8234L36.7219 105.803H36.7371ZM78.2152 127.73H56.143L74.0189 90.9934L78.2152 91.9625V127.745V127.73ZM101.954 127.73H79.8816V91.9474L84.0779 90.9783L101.954 127.715V127.73ZM151.34 50.0626L128.01 63.5245L100.242 15.4463L123.571 1.98442L151.34 50.0626ZM150.264 39.2658L148.113 41.1587L129.661 9.22265L132.388 8.31408C134.252 7.69323 136.175 7.37523 138.145 7.37523C144.659 7.37523 150.719 10.8732 153.96 16.4912C158.278 23.9868 156.733 33.557 150.264 39.2658Z" fill="white"/>
<path d="M71.2315 41.8098C71.2315 42.2641 71.6102 42.6427 72.0647 42.6427C72.5191 42.6427 72.8979 42.2641 72.8979 41.8098C72.8979 41.3555 72.5191 40.977 72.0647 40.977C71.6102 40.977 71.2315 41.3555 71.2315 41.8098Z" fill="white"/>
</svg>
