<svg width="206" height="206" viewBox="0 0 206 206" fill="none" xmlns="http://www.w3.org/2000/svg">
<path d="M0.551178 49.1678C2.26703 36.7625 7.84845 25.5405 16.7038 16.6851C27.4525 5.93643 41.7906 0 57.036 0C66.6802 0 76.2258 2.46529 84.6473 7.11977L86.659 8.24394L91.3923 3.51058C91.8065 3.09641 92.5165 3.09641 92.9307 3.51058L110.503 21.0832C110.917 21.4974 110.917 22.1877 110.503 22.6215L105.77 27.3549L106.894 29.3666C112.318 39.1489 114.724 50.2328 113.856 61.4154L113.698 63.3482L205.447 116.086C205.96 116.382 206.137 117.052 205.841 117.565C205.545 118.058 204.875 118.255 204.362 117.959L113.501 65.7346L112.594 69.7777C110.503 78.988 106.283 87.2911 100.011 94.4504L98.1374 96.6001L133.283 131.745C133.48 131.943 133.598 132.219 133.598 132.515C133.598 132.81 133.48 133.086 133.283 133.284C132.868 133.698 132.158 133.698 131.744 133.284L96.599 98.1384L94.4493 100.032C87.2901 106.284 78.987 110.504 69.7766 112.615L65.7336 113.522L117.978 204.383C118.116 204.639 118.156 204.935 118.077 205.211C117.998 205.487 117.82 205.724 117.564 205.862C117.031 206.158 116.361 205.961 116.085 205.467L63.3472 113.719L61.4144 113.877C50.2712 114.725 39.0689 112.279 29.3655 106.915L27.3539 105.791L22.6205 110.524C22.2063 110.938 21.4963 110.938 21.0821 110.524L3.50954 92.9515C3.09537 92.5373 3.09537 91.847 3.50954 91.4131L8.2429 86.6798L7.11873 84.6681C1.10341 73.8011 -1.18439 61.5338 0.531448 49.1876L0.551178 49.1678ZM96.6188 95.0815L98.7685 92.5767C113.008 75.9113 115.927 52.4023 106.164 32.6799L104.271 28.8538L67.3311 65.7938L96.6188 95.0815ZM32.6789 106.165C40.1931 109.873 48.6146 111.845 57.036 111.845C70.0725 111.845 82.6948 107.191 92.556 98.7696L95.0607 96.6198L65.773 67.3321L28.833 104.272L32.6592 106.165H32.6789ZM5.81705 92.1626L21.871 108.217L37.0967 92.8726C53.6043 76.2269 60.4282 69.3241 106.046 24.0416L108.216 21.8721L92.1615 5.8181L5.81705 92.1626ZM9.76152 85.1611L85.1601 9.74284L81.3537 7.8495C73.7803 4.08253 65.3588 2.09057 56.9571 2.09057C42.402 2.09057 28.6358 7.82977 18.2224 18.2432C1.51758 34.948 -2.66357 60.311 7.84845 81.3744L9.74179 85.1809L9.76152 85.1611Z" fill="url(#paint0_linear_1038_19655)"/>
<defs>
<linearGradient id="paint0_linear_1038_19655" x1="234.187" y1="67.6712" x2="-28.429" y2="83.6872" gradientUnits="userSpaceOnUse">
<stop stop-color="#FB8129"/>
<stop offset="1" stop-color="#CD380E"/>
</linearGradient>
</defs>
</svg>
