<svg width="159" height="160" viewBox="0 0 159 160" fill="none" xmlns="http://www.w3.org/2000/svg">
<g>
<path d="M158 13.0552C158 6.3973 152.628 1 146.002 1M158 13.0552V59.224M158 13.0552C158 17.5705 155.529 21.5061 151.872 23.5714M146.002 1H101.582M146.002 1C142.658 1 139.634 2.3741 137.458 4.59091M134.003 13.0552C134.003 9.75668 135.322 6.76757 137.458 4.59091M134.003 13.0552L105.156 26.9059M134.003 13.0552C134.003 14.119 134.14 15.1506 134.398 16.1331M146.002 25.1104C148.134 25.1104 150.137 24.5515 151.872 23.5714M146.002 25.1104L132.472 55.6331M146.002 25.1104C144.757 25.1104 143.557 24.92 142.428 24.5665M158 72.8182V89.4903M158 102.315V114.37M87.5415 1H70.4374M56.652 1H45.6748M151.872 23.5714L138.854 76.4091M137.458 4.59091L84.7333 20.4935M142.428 24.5665L87.5415 113.344M142.428 24.5665C141.46 24.2635 140.544 23.8405 139.699 23.3149M134.398 16.1331L45.6748 73.8442M134.398 16.1331C134.685 17.2278 135.121 18.2615 135.683 19.2111M137.458 21.5195L101.582 59.224M137.458 21.5195C138.129 22.2034 138.881 22.8071 139.699 23.3149M137.458 21.5195C136.778 20.8269 136.181 20.052 135.683 19.2111M139.699 23.3149L95.9659 78.7175M135.683 19.2111L81.4146 64.6104M89.839 70.2533L57.6732 102.315M64.3106 77.4351L30.8683 105.649M81.4146 96.4156L53.8439 130.786M124.813 72.8182L119.452 85.1299M114.346 96.4156L109.241 109.24M134.398 91.0292L126.345 128.734M87.5415 34.8571L75.7984 40.7565M64.3106 45.6299L52.3122 52.0422M36.7398 59.224L26.2732 64.6104M122.515 143.097L119.452 159M68.6504 25.1104L31.8894 35.8831M17.8488 39.474L1 44.8604M102.603 123.347L97.2423 137.711" stroke="#fff"/>
</g>
<defs>
</defs>
</svg>
