<svg width="174" height="167" viewBox="0 0 174 167" fill="none" xmlns="http://www.w3.org/2000/svg">
<path d="M100.755 107.471L108.806 106.79M108.806 106.79L116.858 106.109M108.806 106.79L109.484 114.872M108.806 106.79L108.128 98.7082M108.806 106.79L103.592 112.986M108.806 106.79L114.02 100.594M108.806 106.79L114.979 112.023M108.806 106.79L102.634 101.557M58.955 60.2099L67.0065 59.5291M67.0065 59.5291L75.0581 58.8482M67.0065 59.5291L67.6843 67.6109M67.0065 59.5291L66.3287 51.4472M67.0065 59.5291L61.7926 65.7252M67.0065 59.5291L72.2206 53.3329M67.0065 59.5291L73.1791 64.7624M67.0065 59.5291L60.834 54.2957M171.817 23.335C181.824 37.4271 152.133 75.9017 105.499 109.27C58.8647 142.639 12.9477 158.266 2.94026 144.174C-7.0672 130.081 22.6245 91.6069 69.2585 58.2382C115.893 24.8696 161.81 9.24288 171.817 23.335ZM153.362 3.45798C166.662 14.4698 147.902 59.3466 111.461 103.693C75.0188 148.04 34.695 175.063 21.3948 164.051C8.09459 153.039 26.8545 108.162 63.2962 63.8156C99.738 19.4692 140.062 -7.55387 153.362 3.45798Z" stroke="#0F0F0F" stroke-width="0.5" stroke-miterlimit="10"/>
</svg>
