<svg width="194" height="201" viewBox="0 0 194 201" fill="none" xmlns="http://www.w3.org/2000/svg">
<path d="M48.7521 31.8846L27.595 23.1499M27.595 23.1499L1 31.3692M27.595 23.1499L76.62 7.99793M1 31.3692L2.9347 62.322M1 31.3692L68.0021 60.9321M2.9347 62.322L4.79312 92.0544M2.9347 62.322L23.5106 72.3129M4.79312 92.0544L6.57968 120.637M4.79312 92.0544L25.0058 102.725M6.57968 120.637L8.29852 148.136L27.823 159.991M6.57968 120.637L26.4431 131.928M27.823 159.991L48.495 172.544M27.823 159.991L26.4728 132.548L26.4431 131.928M48.495 172.544L70.4186 185.856M48.495 172.544L47.4967 143.896L26.4431 131.928M70.4186 185.856L93.7111 200M70.4186 185.856L69.8534 156.605L47.4974 143.896L46.4575 114.05L69.2625 126.09M93.7111 200L164.558 162.101M93.7111 200L93.6344 170.124M164.558 162.101L185.686 150.798L187.408 123.172M164.558 162.101L165.904 133.939L187.408 123.172M187.408 123.172L193 33.4417M193 33.4417L143.459 16.2958M193 33.4417L170.288 42.2627M143.459 16.2958L120.748 8.4359M143.459 16.2958L120.71 24.1263M120.748 8.4359L99.2627 1L76.62 7.99793M120.748 8.4359L98.037 15.8327M76.62 7.99793L98.037 15.8327M68.0021 60.9321L93.3854 72.1317M68.0021 60.9321L68.646 94.2299L45.3725 82.9287M68.0021 60.9321L95.1284 51.0315L71.2199 41.1613M93.3854 72.1317L120.617 61.5545M93.3854 72.1317L93.5551 138.915M23.5116 72.3129L21.9525 40.6132L48.7529 31.8846M23.5106 72.3129L25.0058 102.725M23.5106 72.3129L45.3725 82.9287M120.1 94.9002L120.617 61.5545M120.1 94.9002L119.605 126.804M120.1 94.9002L145.153 84.1896M120.617 61.5545L170.288 42.2627M170.288 42.2627L168.766 74.094L145.153 84.1896M170.288 42.2627L144.75 32.9206M93.5551 138.915L93.6344 170.124M93.5551 138.915L119.605 126.804M93.5551 138.915L69.2625 126.09M93.6344 170.124L69.8525 156.605L69.2625 126.09M93.6344 170.124L119.131 157.358M68.6475 94.2298L93.4736 106.284L120.101 94.9002M119.132 157.358L119.607 126.804M119.605 126.804L144.146 115.394L145.153 84.1896M69.2625 126.09L68.6468 94.2298M165.905 133.939L167.307 104.627M167.307 104.627L189.199 94.4489M167.307 104.627L168.768 74.0942L191.062 64.5627M167.305 104.627L144.145 115.395M144.148 115.394L143.182 145.316L165.906 133.939M120.665 41.7111L146.202 51.6174L145.152 84.1897M26.4438 131.928L25.0075 102.726M25.0058 102.725L46.4567 114.05L45.3725 82.9287M71.2199 41.1613L44.24 50.4483L45.3718 82.9288M71.2199 41.1613L96.6665 32.4017L74.0725 23.6375M71.2199 41.1613L48.75 31.8846L74.0725 23.6375M144.751 32.9206L120.71 24.1263M120.71 24.1263L98.037 15.8327M120.709 24.1263L96.6675 32.4016L120.666 41.7109M120.619 61.5546L95.13 51.0315L167.503 24.6169M52.765 15.3707L74.0749 23.6372M74.0725 23.6375L98.0357 15.8329M118.677 186.645L119.132 157.358L143.182 145.316L142.255 174.032" stroke="#0F0F0F" stroke-width="0.5" stroke-miterlimit="10"/>
</svg>
