<svg width="169" height="211" viewBox="0 0 169 211" fill="none" xmlns="http://www.w3.org/2000/svg">
<path d="M66.7612 145.982C76.5939 142.363 83.6136 132.942 83.6136 121.85C83.6136 107.634 72.0932 96.1133 57.8774 96.1133C43.6615 96.1133 32.1411 107.634 32.1411 121.85C32.1411 132.933 39.1692 142.355 48.9935 145.982" stroke="#181818" stroke-width="0.5" stroke-linecap="round" stroke-linejoin="round"/>
<path d="M31.832 190.943L57.879 123.449L83.9259 190.943" stroke="#181818" stroke-width="0.5" stroke-linecap="round" stroke-linejoin="round"/>
<path d="M166.18 190.941H1.19971V210.002H166.18V190.941Z" stroke="#181818" stroke-width="0.5" stroke-linecap="round" stroke-linejoin="round"/>
<path d="M66.7612 145.982C76.5939 142.363 83.6136 132.942 83.6136 121.85C83.6136 107.634 72.0932 96.1133 57.8774 96.1133C43.6615 96.1133 32.1411 107.634 32.1411 121.85C32.1411 132.933 39.1692 142.355 48.9935 145.982" stroke="#181818" stroke-width="0.5" stroke-linecap="round" stroke-linejoin="round"/>
<path d="M77.4434 140.517C108.008 152.088 143.854 145.345 168.146 120.474L46.8538 2.01172C18.9344 30.6029 15.3238 73.8801 35.6945 106.292" stroke="#181818" stroke-width="0.5" stroke-linecap="round" stroke-linejoin="round"/>
<path d="M122.392 38.0752C124.525 35.892 128.035 35.8501 130.218 37.9829C132.401 40.1156 132.443 43.6255 130.31 45.8087C128.177 47.9919 124.668 48.0338 122.484 45.9011C120.301 43.7683 120.259 40.2584 122.392 38.0752Z" stroke="#181818" stroke-width="0.5" stroke-linecap="round" stroke-linejoin="round"/>
<path d="M148.219 52.7425C151.553 43.5228 149.479 32.8085 142.005 25.5116C134.532 18.2148 123.776 16.3927 114.64 19.9445" stroke="#181818" stroke-width="0.5" stroke-linecap="round" stroke-linejoin="round"/>
<path d="M166.205 51.9817C168.783 38.3201 164.711 23.6592 154.022 13.222C143.324 2.77634 128.579 -0.951843 114.985 1.95346" stroke="#181818" stroke-width="0.5" stroke-linecap="round" stroke-linejoin="round"/>
<path d="M122.458 45.875L107.427 61.1656" stroke="#181818" stroke-width="0.5" stroke-linecap="round" stroke-linejoin="round"/>
<path d="M35.9209 22.9922L83.9591 71.0304" stroke="#181818" stroke-width="0.5" stroke-linecap="round" stroke-linejoin="round"/>
</svg>
