<svg width="100" height="100" viewBox="0 0 100 100" fill="none" xmlns="http://www.w3.org/2000/svg">
<path d="M78.8318 59.8683C78.1611 61.7986 77.2758 63.6484 76.2295 65.3642C70.9712 74.0774 61.4203 79.9219 50.5013 79.9219C34.619 79.9219 21.6341 67.6162 20.561 52.0398M78.8318 59.8683C70.8102 60.0291 60.4277 59.3857 49.2403 57.8843M78.8318 59.8683C82.6682 59.7878 85.9949 59.5197 88.5973 59.064C92.4605 58.3937 94.7678 57.3482 94.9824 55.9272C95.358 53.5144 89.6972 50.5385 80.4683 47.8039C80.522 48.501 80.5488 49.198 80.5488 49.9219C80.5488 51.2624 80.4415 52.576 80.2805 53.8629C79.9854 55.9272 79.5025 57.938 78.8318 59.8683ZM20.561 52.0398C20.5073 51.3428 20.4805 50.6457 20.4805 49.9219C20.4805 48.5814 20.561 47.2677 20.7488 45.9809C27.6436 49.7074 36.9262 53.7557 47.3892 57.4286C47.6843 57.5358 47.9794 57.6431 48.2745 57.7503M20.561 52.0398C27.9388 54.2382 37.5969 56.2758 48.2745 57.7503M20.561 52.0398C11.2784 49.3053 5.6177 46.3294 6.02012 43.9165C6.23475 42.4956 8.54197 41.45 12.4052 40.7798C15.0076 40.324 18.3343 40.0559 22.1707 39.9755C21.5 41.9058 21.0171 43.9165 20.722 45.9809C27.6168 49.7074 36.8994 53.7557 47.3624 57.4286C47.6843 57.5358 47.9794 57.6431 48.2745 57.7503M48.2745 57.7503C48.5965 57.8039 48.9184 57.8307 49.2403 57.8843M48.2745 57.7503C58.7107 61.3964 68.503 64.0238 76.2295 65.391C85.3511 67.0264 91.5752 66.9192 92.4874 64.694C93.0508 63.3535 91.602 61.3964 88.6241 59.1176C86.5315 57.509 83.7146 55.7396 80.2805 53.8897C79.9854 55.954 79.5025 57.9648 78.8318 59.8951C70.8102 60.0559 60.4545 59.4125 49.2403 57.8843M80.522 49.9219C80.522 51.2624 80.4415 52.576 80.2537 53.8629C79.9854 55.954 79.5025 57.9648 78.805 59.8683C70.7834 60.0291 60.4277 59.3857 49.2135 57.8575C48.8916 57.8039 48.5696 57.7771 48.2477 57.7235C47.9526 57.6162 47.6575 57.509 47.3624 57.4018C36.8994 53.7288 27.59 49.6806 20.722 45.954C20.9903 43.8629 21.4732 41.8522 22.1707 39.9487C22.8414 38.0184 23.7267 36.1685 24.773 34.4527C30.0045 25.7396 39.5554 19.9219 50.5013 19.9219C66.3835 19.9219 79.3684 32.2275 80.4415 47.8039C80.4952 48.501 80.522 49.2248 80.522 49.9219ZM24.7462 34.4795C23.6999 36.1953 22.8414 38.0452 22.1439 39.9755C21.4732 41.9058 20.9903 43.9165 20.6951 45.9809C17.2611 44.131 14.4442 42.3616 12.3516 40.753C9.37365 38.4473 7.92492 36.4902 8.48832 35.1498C9.40047 32.9246 15.6246 32.8441 24.7462 34.4795Z" stroke="url(#paint0_linear_865_71090)" stroke-width="1.4" stroke-linecap="round" stroke-linejoin="round"/>
<defs>
<linearGradient id="paint0_linear_865_71090" x1="-6.18408" y1="39.6319" x2="106.77" y2="49.8497" gradientUnits="userSpaceOnUse">
<stop stop-color="#FB8129"/>
<stop offset="1" stop-color="#CD380E"/>
</linearGradient>
</defs>
</svg>
