<svg width="1005" height="1005" viewBox="0 0 1005 1005" fill="none" xmlns="http://www.w3.org/2000/svg">
<path d="M154.803 131.721C218.861 73.2923 298.085 31.1524 385.807 12.0284M0.335938 405.144C6.38228 374.328 15.3846 344.518 26.8391 316.016M102.2 818.441C58.5992 764.491 25.9321 701.449 7.65874 632.602M462.596 1004.66C357.121 998.122 260.396 959.203 182.331 897.688M932.716 750.248C914.443 782.608 892.592 812.67 867.886 840.014C795.212 920.284 697.077 976.918 586.21 997.334M950.603 290.45C965.652 322.693 977.493 356.848 985.454 392.428C993.432 428.009 997.664 464.999 997.664 503.012M494.238 0.335938C563.687 0.335938 629.929 14.4609 690.258 39.8924M33.6412 394.743C64.2593 264.65 148.639 155.358 262.076 91.393M690.123 933C630.449 960.227 564.074 975.257 494.104 975.257C326.637 975.257 179.493 888.31 95.3811 757.311M878.433 227.526C934.261 305.095 967.18 400.262 967.18 503.012C967.18 646.979 902.619 776.049 800.872 862.61M494.238 30.6492C592.256 30.6492 683.187 60.4423 758.682 111.305M51.5283 503.012C51.5283 279.664 217.45 94.983 432.885 65.1898M494.238 945.062C396.875 945.062 306.97 913.725 233.91 860.547M936.831 502.995C936.831 578.77 917.668 650.183 884.093 712.47M555.071 65.1898C706.196 85.8739 833.153 182.953 895.397 316.016M364.074 893.695C200.084 839.376 81.8776 684.992 81.8776 503.012C81.8776 397.058 122.002 300.482 187.857 227.526M876.116 658.403C814.762 808.661 666.845 914.631 494.238 914.631M494.238 91.393C721.9 91.393 906.465 275.688 906.465 503.012M112.361 503.012C112.361 292.38 283.305 121.706 494.238 121.706M663.368 844.895C612.428 870.075 554.937 884.318 494.222 884.318C359.556 884.318 241.098 814.717 173.06 709.518M733.472 205.818C820.422 275.688 876.116 382.917 876.116 503.012C876.116 600.746 839.334 689.874 778.753 757.311M845.766 503.012C845.766 696.819 688.326 854.005 494.238 854.005M408.061 162.672C435.589 155.744 464.527 152.019 494.238 152.019C608.33 152.019 709.808 206.338 773.983 290.467M252.049 757.311C184.783 693.346 142.727 603.061 142.727 503.012M494.255 823.708C366.661 823.708 256.432 749.343 204.602 641.728M693.734 251.8C767.819 310.497 815.283 401.286 815.283 503.012M173.077 503.012C173.077 325.914 316.879 182.316 494.238 182.316M341.048 256.161C385.555 228.549 438.024 212.747 494.104 212.747C620.288 212.747 727.678 293.017 767.936 405.144C778.87 435.709 784.917 468.723 784.917 503.012C784.917 535.506 779.508 566.843 769.616 595.998C730.903 710.692 622.219 793.261 494.238 793.261M270.305 688.213C228.636 638.004 203.544 573.402 203.544 503.012M586.076 259.634C684.598 296.758 754.567 391.657 754.567 503.012M648.32 712.487C605.239 744.209 551.847 762.964 494.238 762.964C350.436 762.964 233.91 646.61 233.91 503.029C233.91 382.682 315.838 281.358 426.973 251.817M274.303 570.583C267.736 549.262 264.141 526.531 264.141 503.029C264.141 376.274 367.047 273.39 494.121 273.39M672.908 358.542C704.937 397.964 724.235 448.307 724.235 503.029C724.235 629.784 621.329 732.668 494.255 732.668M494.255 702.355C384.027 702.355 294.642 613.092 294.642 503.029C294.642 467.448 304.031 434.065 320.372 405.161C331.827 384.997 346.607 367.014 364.108 351.983M494.272 303.686C604.5 303.686 693.902 392.948 693.902 503.012C693.902 529.987 688.494 555.67 678.854 579.038M570.036 351.966C625.343 379.713 663.419 436.984 663.419 502.995C663.419 596.233 587.655 671.874 494.289 671.874M383.54 630.774C347.783 599.823 325.025 554.093 325.025 502.978C325.025 428.227 373.647 364.782 441.047 342.572M355.508 502.978C355.508 460.335 374.806 422.188 405.156 396.773M494.289 641.56C456.986 641.56 423.16 626.915 398.337 603.027M633.069 502.978C633.069 530.591 624.957 556.274 611.067 577.847M494.272 364.397C531.961 364.397 566.039 379.427 591.131 403.701M485.925 615.475C441.417 613.931 404.114 585.681 388.814 546.762M598.084 511.182C596.926 541.881 583.17 569.241 561.806 588.114M402.065 443.627C422.522 415.495 456.214 397.78 493.651 399.189C511.269 399.826 527.611 404.591 542.021 412.542M467.299 576.036C437.453 565.115 416.241 536.479 416.241 502.962C416.241 459.933 451.225 425.006 494.306 425.006C526.586 425.006 554.366 444.65 566.207 472.531M568.525 526.984C561.185 549.581 543.701 567.698 521.447 576.052M541.904 502.978C541.904 529.299 520.557 550.503 494.306 550.503C468.054 550.503 446.724 529.182 446.724 502.978C446.724 489.877 451.998 477.933 460.614 469.327C469.23 460.721 481.188 455.454 494.306 455.454C520.54 455.454 541.904 476.641 541.904 502.978ZM511.555 502.978C511.555 512.473 503.845 520.19 494.322 520.19C484.799 520.19 477.09 512.49 477.09 502.978C477.09 493.467 484.799 485.767 494.322 485.767C503.845 485.767 511.555 493.467 511.555 502.978Z" stroke="white" stroke-opacity="0.1" stroke-width="0.4" stroke-miterlimit="10"/>
</svg>
