<svg width="24" height="24" viewBox="0 0 24 24" fill="none" xmlns="http://www.w3.org/2000/svg">
<path d="M18.5 19H21V17.5C21 16.1193 19.8807 15 18.5 15M5.5 19H3V17.5C3 16.1193 4.11929 15 5.5 15M15 7.99804C15 9.65396 13.657 10.9961 12 10.9961C10.343 10.9961 9 9.65396 9 7.99804C9 6.34212 10.343 5 12 5C13.657 5 15 6.34212 15 7.99804ZM17 18.9909H7C7 18.2808 7 17.6053 7 16.9936C7 15.3368 8.34315 13.9941 10 13.9941H14C15.6569 13.9941 17 15.3368 17 16.9936C17 17.6053 17 18.2808 17 18.9909ZM18 13C16.8954 13 16 12.1046 16 11C16 9.89543 16.8954 9 18 9C19.1046 9 20 9.89543 20 11C20 12.1046 19.1046 13 18 13ZM6 13C7.10457 13 8 12.1046 8 11C8 9.89543 7.10457 9 6 9C4.89543 9 4 9.89543 4 11C4 12.1046 4.89543 13 6 13Z" stroke="#F84B3A" stroke-width="1.4"/>
</svg>
