<svg width="68" height="68" viewBox="0 0 68 68" fill="none" xmlns="http://www.w3.org/2000/svg">
<circle cx="34" cy="34" r="34" fill="url(#paint0_linear_768_40400)"/>
<path d="M19 44V43.0387C19.0569 43.0387 24.3968 43.0387 34.0193 43.0387C43.6417 43.0387 48.9468 43.0439 49 43.0439V43.9982C48.9486 43.9982 43.1406 43.9982 34.0193 43.9982C24.406 43.9982 19.0569 43.9982 19 43.9982" fill="white"/>
<path d="M23.6093 41.3329C26.3518 40.8373 29.8028 40.4386 34.0358 40.4386C38.0375 40.4386 41.986 40.8408 44.6642 41.3453C47.3351 41.848 47.9427 42.3631 48.0693 42.5165H48.978L48.6622 38.0097C48.6604 37.9779 48.6586 37.9462 48.6549 37.9162L48.6072 37.2265C48.4163 33.5134 46.6375 29.5569 43.6583 26.2689C40.7322 23.0409 36.9159 21 34.0358 21C31.1557 21 27.701 23.0038 24.6887 26.096C21.4781 29.3893 19.5892 33.427 19.3928 37.2282L19.0202 42.5183H19.9288C20.0555 42.3666 20.6796 41.8621 23.6093 41.3329ZM34.0358 39.6096C28.9639 39.6096 22.1867 40.3786 19.8499 41.6346C20.1032 39.5478 25.5735 37.3253 33.9899 37.3253C41.8648 37.3253 47.8582 39.5443 48.1464 41.6293C45.8427 40.3857 39.2307 39.6096 34.0358 39.6096ZM44.354 33.397C41.5326 31.4637 37.5547 30.5112 34.0358 30.5112C30.5169 30.5112 27.0053 31.4319 24.0242 33.3105C22.1371 34.5012 20.7439 35.9123 19.9527 37.3958C20.5713 35.1944 22.1536 33.0195 24.5014 31.2167C27.4256 28.9695 30.8051 27.7859 34.0358 27.7859C37.2665 27.7859 41.0902 29.0065 43.8639 31.3138C45.9914 33.0848 47.4397 35.1909 48.0344 37.3129C47.2947 35.9018 46.0373 34.5506 44.354 33.397ZM48.0326 38.6588C47.3075 37.6498 46.1254 36.7061 44.5596 35.8753C41.7675 34.3936 37.7824 33.6192 34.0358 33.6192C27.6367 33.6192 22.0931 35.6989 20.0133 38.5406C20.6117 36.8049 22.1077 35.1115 24.316 33.7198C27.2127 31.8941 30.5389 31.0051 34.0358 31.0051C37.5327 31.0051 41.3123 31.9223 44.0456 33.7974C46.1125 35.2138 47.4984 36.9266 48.0308 38.6606M34.034 34.2278C41.1728 34.2278 46.9936 37.0907 48.0473 40.0611C45.94 38.0432 40.2788 36.6109 33.9881 36.6109C27.3504 36.6109 21.9719 38.0185 19.9435 40.0082C21.0137 36.8172 27.0842 34.2278 34.034 34.2278ZM44.13 31.0315C41.2425 28.629 37.373 27.4084 34.034 27.4084C30.6949 27.4084 27.2384 28.6255 24.2426 30.9257C22.139 32.5415 20.6319 34.4518 19.8554 36.4257C20.4667 33.7127 22.1481 30.998 24.674 28.7261C27.6275 26.0678 31.0584 24.4168 34.034 24.4168C39.5317 24.4168 46.654 29.922 48.1244 36.3269C47.3901 34.4412 46.0207 32.6067 44.1319 31.0351M24.841 26.2301C27.824 23.1696 31.3062 21.1923 34.0358 21.1923C39.473 21.1923 47.0322 28.2357 48.2786 35.7765C46.5366 29.4669 39.5005 24.1416 34.0358 24.1416C30.9886 24.1416 27.4825 25.8208 24.4776 28.5267C22.071 30.6928 20.4171 33.2594 19.7067 35.8524C20.2409 32.515 22.0453 29.1018 24.841 26.2318" fill="white"/>
<defs>
<linearGradient id="paint0_linear_768_40400" x1="-9.30919" y1="22.338" x2="77.3765" y2="27.6245" gradientUnits="userSpaceOnUse">
<stop stop-color="#FB8129"/>
<stop offset="1" stop-color="#CD380E"/>
</linearGradient>
</defs>
</svg>
