<svg width="96" height="71" viewBox="0 0 96 71" fill="none" xmlns="http://www.w3.org/2000/svg">
<path d="M14.7009 67.0889C23.4897 65.4534 34.5492 64.138 48.1147 64.138C60.939 64.138 73.5927 65.465 82.1756 67.1296C90.735 68.7883 92.6822 70.4878 93.0881 70.9942H96L94.9882 56.1237C94.9823 56.0189 94.9764 55.9142 94.9646 55.8152L94.8117 53.5396C94.1999 41.2881 88.4995 28.2335 78.9519 17.3848C69.5749 6.73391 57.3447 0 48.1147 0C38.8847 0 27.8135 6.61169 18.1599 16.8144C7.87107 27.6864 1.81776 41.003 1.18831 53.5454L0 71H2.91194C3.31785 70.4995 5.31797 68.8349 14.7068 67.0889M48.1206 61.4026C31.8667 61.4026 10.1477 63.9402 2.65899 68.0841C3.4708 61.1989 21.0013 53.8655 47.9735 53.8655C73.2104 53.8655 92.4174 61.1872 93.341 68.0666C85.9582 63.9634 64.7687 61.4026 48.1206 61.4026ZM81.1873 40.904C72.1456 34.5251 59.3978 31.3822 48.1206 31.3822C36.8434 31.3822 25.5898 34.4204 16.0363 40.6188C9.98885 44.5474 5.52387 49.2035 2.98842 54.0983C4.97089 46.8347 10.0418 39.6585 17.5658 33.7103C26.9369 26.2954 37.767 22.3901 48.1206 22.3901C58.4742 22.3901 70.7279 26.4177 79.6166 34.0304C86.4347 39.8738 91.0762 46.8231 92.9822 53.8247C90.6114 49.1686 86.5818 44.7104 81.1873 40.904ZM92.9763 58.2655C90.6526 54.9364 86.8641 51.8226 81.8462 49.0813C72.8986 44.1924 60.1272 41.6373 48.1206 41.6373C27.6135 41.6373 9.84766 48.4993 3.18255 57.8756C5.10031 52.1485 9.89472 46.5612 16.9716 41.9691C26.2546 35.9452 36.914 33.0119 48.1206 33.0119C59.3272 33.0119 71.4397 36.0384 80.199 42.2252C86.823 46.8988 91.2644 52.5501 92.9704 58.2713M48.1147 43.6453C70.9926 43.6453 89.6467 53.0914 93.0233 62.8925C86.27 56.2343 68.1277 51.5083 47.9676 51.5083C26.6958 51.5083 9.4594 56.1528 2.96489 62.7179C6.39451 52.1893 25.8486 43.6453 48.1206 43.6453M80.4755 33.0992C71.222 25.1721 58.8213 21.1446 48.1206 21.1446C37.4199 21.1446 26.3428 25.1605 16.7422 32.75C10.0006 38.0812 5.17091 44.3845 2.68252 50.8972C4.64146 41.9458 10.03 32.9886 18.1246 25.4923C27.5899 16.7213 38.5847 11.2736 48.1206 11.2736C65.7393 11.2736 88.5643 29.4383 93.2763 50.5655C90.9232 44.3437 86.5347 38.2908 80.4814 33.105M18.6482 17.2567C28.2076 7.15878 39.3612 0.634396 48.1147 0.634396C65.5393 0.634396 89.7643 23.8743 93.7587 48.7554C88.176 27.9367 65.6276 10.3657 48.1147 10.3657C38.3494 10.3657 27.1134 15.9065 17.4834 24.8346C9.77119 31.9817 4.47086 40.45 2.19425 49.0057C3.90612 37.9939 9.68883 26.7319 18.6482 17.2626" fill="currentColor"/>
</svg>
