<svg width="209" height="32" viewBox="0 0 209 32" fill="none" xmlns="http://www.w3.org/2000/svg">
<path d="M0 31.4734V30.1683C0.0768806 30.1683 7.29126 30.1683 20.2915 30.1683C33.2918 30.1683 40.459 30.1755 40.531 30.1755V31.471C40.4615 31.471 32.6147 31.471 20.2915 31.471C7.30366 31.471 0.0768806 31.471 0 31.471" fill="#E7E4E5"/>
<path d="M6.22732 27.8528C9.93247 27.1799 14.5949 26.6387 20.3138 26.6387C25.7203 26.6387 31.0548 27.1847 34.6731 27.8695C38.2816 28.552 39.1025 29.2512 39.2736 29.4595H40.5012L40.0746 23.3413C40.0721 23.2982 40.0697 23.2551 40.0647 23.2144L40.0002 22.2781C39.7423 17.2374 37.3392 11.8663 33.3141 7.40272C29.3609 3.02057 24.205 0.25 20.3138 0.25C16.4227 0.25 11.7553 2.97029 7.68558 7.16805C3.34802 11.6388 0.796083 17.1201 0.530721 22.2805L0.0272766 29.4619H1.25489C1.42601 29.256 2.26921 28.5711 6.22732 27.8528ZM20.3138 25.5132C13.4615 25.5132 4.30531 26.5573 1.14825 28.2622C1.49049 25.4294 8.88095 22.4122 20.2518 22.4122C30.8911 22.4122 38.9884 25.4246 39.3777 28.2551C36.2653 26.5668 27.3323 25.5132 20.3138 25.5132ZM34.254 17.0794C30.4422 14.4549 25.068 13.1618 20.3138 13.1618C15.5596 13.1618 10.8154 14.4118 6.78781 16.962C4.23835 18.5784 2.35601 20.4941 1.28713 22.508C2.12289 19.5195 4.26067 16.5669 7.43261 14.1196C11.3833 11.0689 15.949 9.4621 20.3138 9.4621C24.6787 9.4621 29.8445 11.1192 33.5919 14.2513C36.4662 16.6555 38.4229 19.5147 39.2265 22.3954C38.227 20.4797 36.5282 18.6455 34.254 17.0794ZM39.224 24.2225C38.2444 22.8528 36.6472 21.5717 34.5318 20.4438C30.7597 18.4323 25.3756 17.3811 20.3138 17.3811C11.6685 17.3811 4.17883 20.2044 1.36897 24.0621C2.17745 21.7058 4.19867 19.4069 7.18213 17.5176C11.0956 15.0392 15.5894 13.8323 20.3138 13.8323C25.0383 13.8323 30.1446 15.0775 33.8374 17.623C36.6299 19.5458 38.5023 21.871 39.2215 24.2249M20.3114 18.2072C29.9561 18.2072 37.8203 22.0937 39.2438 26.1262C36.3968 23.3868 28.7484 21.4424 20.2494 21.4424C11.2816 21.4424 4.01515 23.3533 1.27473 26.0544C2.72058 21.7225 10.922 18.2072 20.3114 18.2072ZM33.9515 13.8682C30.0504 10.6067 24.8225 8.94965 20.3114 8.94965C15.8002 8.94965 11.1303 10.6019 7.08293 13.7245C4.24083 15.918 2.20473 18.5114 1.15569 21.1909C1.98153 17.508 4.25323 13.8227 7.66574 10.7384C11.6561 7.12974 16.2912 4.88837 20.3114 4.88837C27.739 4.88837 37.3615 12.362 39.348 21.0568C38.356 18.497 36.5059 16.0066 33.9539 13.873M7.89142 7.35004C11.9214 3.19538 16.626 0.511013 20.3138 0.511013C27.6597 0.511013 37.8724 10.0727 39.5563 20.3097C37.2028 11.7442 27.6969 4.51481 20.3138 4.51481C16.197 4.51481 11.4602 6.79449 7.40037 10.4678C4.14907 13.4084 1.91457 16.8926 0.954804 20.4127C1.67649 15.8821 4.11435 11.2485 7.89142 7.35244" fill="#E7E4E5"/>
<path d="M51.0156 17.381V31.4732H54.6285V20.6838H59.3454V31.4732H62.9653V17.381H51.0156Z" fill="#E7E4E5"/>
<path d="M110.065 17.381V22.7098H105.194V17.381H101.575V31.4732H105.194V26.0681H110.065V31.4732H113.678V17.381H110.065Z" fill="#E7E4E5"/>
<path d="M118.437 17.381V31.4732H129.401V28.2051H122.043V26.0056H128.437V22.7376H122.043V20.6491H129.31V17.381H118.437Z" fill="#E7E4E5"/>
<path d="M132.692 17.381V20.7393H136.822V31.4732H140.435V20.7393H144.565V17.381H132.692Z" fill="#E7E4E5"/>
<path d="M189.282 17.381L183.796 25.4922V17.381H180.219V31.4732H183.517L188.954 23.369V31.4732H192.532V17.381H189.282Z" fill="#E7E4E5"/>
<path d="M70.1001 17.381L66.4104 31.4732H70.1071L72.9303 20.6838H76.2986V31.4732H79.9114V17.381H70.1001Z" fill="#E7E4E5"/>
<path d="M152.008 20.6283H153.769L154.663 24.049H151.113L152.008 20.6283ZM149.156 17.381L145.467 31.4732H149.163L150.254 27.3031H155.509L156.606 31.4732H160.302L156.613 17.381H149.156Z" fill="#E7E4E5"/>
<path d="M89.8485 20.6283H91.6095L92.504 24.049H88.954L89.8485 20.6283ZM94.0553 17.381H86.9973L83.3076 31.4732H87.0043L88.0945 27.3031H93.3495L94.4397 31.4732H98.1364L94.4466 17.381H94.0413H94.0553Z" fill="#E7E4E5"/>
<path d="M205.746 17.381L200.267 25.4922V17.381H196.689V31.4732H199.981L205.418 23.369V31.4732H209.003V17.381H205.746Z" fill="#E7E4E5"/>
<path d="M206.04 12.4685H199.911V15.5423H206.04V12.4685Z" fill="#E7E4E5"/>
<path d="M167.353 20.6283H172.79V22.7376H167.353V20.6283ZM163.755 17.381V31.4732H167.353V25.9918H176.068V17.381H163.755Z" fill="#E7E4E5"/>
<path d="M55.0128 5.28716L52.1756 1.51954H51.4349V8.27767H52.2246V2.70603L54.9639 6.3557H55.0128L57.6613 2.70603V8.27767H58.444V1.51954H57.7312L55.0128 5.28716Z" fill="#E7E4E5"/>
<path d="M72.7207 1.38077C70.6033 1.38077 69.1497 2.87255 69.1497 4.89861C69.1497 6.92466 70.6033 8.41644 72.7207 8.41644C74.838 8.41644 76.2916 6.92466 76.2916 4.89861C76.2916 2.87255 74.838 1.38077 72.7207 1.38077ZM72.7207 7.68096C71.1344 7.68096 69.9813 6.52222 69.9813 4.89861C69.9813 3.27499 71.1483 2.11625 72.7207 2.11625C74.293 2.11625 75.46 3.27499 75.46 4.89861C75.46 6.52222 74.3279 7.68096 72.7207 7.68096Z" fill="#E7E4E5"/>
<path d="M90.1769 7.68096C88.5906 7.68096 87.3467 6.61242 87.3467 4.89861C87.3467 3.28887 88.5906 2.11625 90.0302 2.11625C90.8198 2.11625 91.5745 2.31053 92.1825 2.85174L92.5599 2.22033C91.91 1.6028 90.9666 1.38077 89.9114 1.38077C87.9757 1.38077 86.5221 2.92806 86.5221 4.89861C86.5221 7.03567 88.0246 8.41644 90.128 8.41644C91.1273 8.41644 92.1266 8.04176 92.6996 7.32015L92.3083 6.75119C91.8401 7.2924 91.0644 7.68096 90.1909 7.68096" fill="#E7E4E5"/>
<path d="M108.758 1.51954H107.738L104.44 4.79453L107.969 8.27767H109.024L105.397 4.74596L108.758 1.51954Z" fill="#E7E4E5"/>
<path d="M103.992 1.51954H103.203V8.28461H103.992V1.51954Z" fill="#E7E4E5"/>
<path d="M122.064 1.38077C119.946 1.38077 118.493 2.87255 118.493 4.89861C118.493 6.92466 119.946 8.41644 122.064 8.41644C124.181 8.41644 125.635 6.92466 125.635 4.89861C125.635 2.87255 124.181 1.38077 122.064 1.38077ZM122.064 7.68096C120.47 7.68096 119.324 6.52222 119.324 4.89861C119.324 3.27499 120.491 2.11625 122.064 2.11625C123.636 2.11625 124.803 3.27499 124.803 4.89861C124.803 6.52222 123.671 7.68096 122.064 7.68096Z" fill="#E7E4E5"/>
<path d="M139.974 4.79453V4.76677C140.869 4.628 141.351 3.95496 141.351 3.21948C141.351 1.98442 140.379 1.47791 138.535 1.47791C137.612 1.47791 136.927 1.52648 136.34 1.52648V8.29155C136.962 8.29155 137.717 8.34012 138.569 8.34012C140.596 8.34012 141.609 7.66708 141.609 6.43202C141.609 5.54389 141.141 4.98881 139.974 4.8084M137.13 2.25502C137.507 2.24115 137.975 2.22727 138.632 2.22727C139.66 2.22727 140.526 2.45624 140.526 3.35131C140.526 4.07292 139.918 4.5378 138.94 4.5378H137.137V2.25502H137.13ZM138.66 7.60463C138.038 7.60463 137.57 7.59076 137.13 7.57688V5.19002H138.765C140.128 5.19002 140.778 5.5647 140.778 6.36264C140.778 7.21608 140.037 7.61157 138.66 7.61157" fill="#E7E4E5"/>
<path d="M155.585 7.68096C153.992 7.68096 152.755 6.61242 152.755 4.89861C152.755 3.28887 153.992 2.11625 155.432 2.11625C156.221 2.11625 156.976 2.31053 157.584 2.85174L157.961 2.22033C157.312 1.6028 156.368 1.38077 155.313 1.38077C153.377 1.38077 151.924 2.92806 151.924 4.89861C151.924 7.03567 153.419 8.41644 155.53 8.41644C156.529 8.41644 157.528 8.04176 158.101 7.32015L157.71 6.75119C157.242 7.2924 156.466 7.68096 155.592 7.68096" fill="#E7E4E5"/>
<path d="M174.16 1.51954H173.147L169.841 4.79453L173.37 8.27767H174.432L170.799 4.74596L174.16 1.51954Z" fill="#E7E4E5"/>
<path d="M169.394 1.51954H168.604V8.28461H169.394V1.51954Z" fill="#E7E4E5"/>
<path d="M185.502 7.15363V1.51954H184.712V8.28461H185.502L190.044 2.64358V8.28461H190.826V1.51954H190.044L185.502 7.15363Z" fill="#E7E4E5"/>
<path d="M207.332 1.51954L202.79 7.15363V1.51954H202V8.27767H202.79L207.332 2.64358V8.27767H208.115V1.51954H207.332Z" fill="#E7E4E5"/>
<path d="M206.529 0H203.692V0.624468H206.529V0Z" fill="#E7E4E5"/>
</svg>
