<svg width="1436" height="1643" viewBox="0 0 1436 1643" fill="none" xmlns="http://www.w3.org/2000/svg">
<path d="M346.712 1415.01L352.085 1423.69L348.747 1413.99C348.397 1413 348.46 1411.89 348.969 1411C349.319 1410.41 349.541 1409.72 349.605 1409.03C349.7 1407.97 350.304 1407.05 351.163 1406.49L359.62 1400.9L349.955 1404.45C349.001 1404.82 347.983 1404.68 347.093 1404.19C346.648 1403.93 346.139 1403.76 345.631 1403.7C344.613 1403.53 343.691 1402.98 343.119 1402.05L337.555 1393.08L340.989 1403.11C341.339 1404.13 341.18 1405.21 340.703 1406.16C340.448 1406.62 340.289 1407.15 340.194 1407.68C340.035 1408.7 339.495 1409.62 338.636 1410.18L329.988 1415.9L339.463 1412.41C340.417 1412.05 341.498 1412.15 342.356 1412.67C342.928 1413.04 343.596 1413.3 344.264 1413.37C345.281 1413.5 346.139 1414.12 346.68 1415.01H346.712Z" fill="#0F0F0F" fill-opacity="0.2"/>
<path d="M1056.43 1415.01L1061.8 1423.69L1058.47 1413.99C1058.12 1413 1058.18 1411.89 1058.69 1411C1059.04 1410.41 1059.26 1409.72 1059.32 1409.03C1059.42 1407.97 1060.02 1407.05 1060.88 1406.49L1069.34 1400.9L1059.67 1404.45C1058.72 1404.82 1057.7 1404.68 1056.81 1404.19C1056.37 1403.93 1055.86 1403.76 1055.35 1403.7C1054.33 1403.53 1053.41 1402.98 1052.84 1402.05L1047.27 1393.08L1050.71 1403.11C1051.06 1404.13 1050.9 1405.21 1050.42 1406.16C1050.17 1406.62 1050.01 1407.15 1049.91 1407.68C1049.75 1408.7 1049.21 1409.62 1048.35 1410.18L1039.71 1415.9L1049.18 1412.41C1050.14 1412.05 1051.22 1412.15 1052.07 1412.67C1052.65 1413.04 1053.31 1413.3 1053.98 1413.37C1055 1413.5 1055.86 1414.12 1056.4 1415.01H1056.43Z" fill="#0F0F0F" fill-opacity="0.2"/>
<path d="M667.317 1399.12L672.69 1407.8L669.352 1398.1C669.002 1397.12 669.066 1396 669.575 1395.11C669.924 1394.52 670.147 1393.83 670.21 1393.14C670.306 1392.09 670.91 1391.17 671.768 1390.61L680.225 1385.02L670.56 1388.57C669.606 1388.93 668.589 1388.8 667.699 1388.31C667.254 1388.04 666.745 1387.88 666.236 1387.81C665.219 1387.65 664.297 1387.09 663.724 1386.17L658.161 1377.19L661.594 1387.22C661.944 1388.24 661.785 1389.32 661.308 1390.28C661.054 1390.74 660.895 1391.26 660.799 1391.79C660.641 1392.81 660.068 1393.73 659.242 1394.29L650.594 1400.01L660.068 1396.53C661.022 1396.16 662.103 1396.26 662.961 1396.79C663.534 1397.15 664.201 1397.41 664.869 1397.48C665.886 1397.61 666.745 1398.24 667.285 1399.12H667.317Z" fill="#0F0F0F" fill-opacity="0.2"/>
<path d="M1377.04 1399.12L1382.41 1407.8L1379.07 1398.1C1378.72 1397.12 1378.79 1396 1379.3 1395.11C1379.65 1394.52 1379.87 1393.83 1379.93 1393.14C1380.03 1392.09 1380.63 1391.17 1381.49 1390.61L1389.95 1385.02L1380.28 1388.57C1379.33 1388.93 1378.31 1388.8 1377.42 1388.31C1376.98 1388.04 1376.47 1387.88 1375.96 1387.81C1374.94 1387.65 1374.02 1387.09 1373.45 1386.17L1367.88 1377.19L1371.32 1387.22C1371.67 1388.24 1371.51 1389.32 1371.03 1390.28C1370.78 1390.74 1370.62 1391.26 1370.52 1391.79C1370.36 1392.81 1369.79 1393.73 1368.96 1394.29L1360.32 1400.01L1369.79 1396.53C1370.74 1396.16 1371.83 1396.26 1372.68 1396.79C1373.26 1397.15 1373.92 1397.41 1374.59 1397.48C1375.61 1397.61 1376.47 1398.24 1377.01 1399.12H1377.04Z" fill="#0F0F0F" fill-opacity="0.2"/>
<path d="M174.165 847.127L179.538 855.807L176.2 846.107C175.85 845.121 175.913 844.003 176.422 843.115C176.772 842.523 176.994 841.833 177.058 841.142C177.153 840.09 177.758 839.17 178.616 838.611L187.073 833.021L177.408 836.572C176.454 836.934 175.437 836.802 174.546 836.309C174.101 836.046 173.593 835.882 173.084 835.816C172.066 835.651 171.144 835.092 170.572 834.172L165.008 825.195L168.442 835.224C168.792 836.243 168.633 837.328 168.156 838.282C167.901 838.742 167.743 839.268 167.647 839.794C167.488 840.814 166.948 841.734 166.089 842.293L157.441 848.014L166.916 844.529C167.87 844.167 168.951 844.266 169.809 844.792C170.381 845.154 171.049 845.417 171.717 845.483C172.734 845.614 173.593 846.239 174.133 847.127H174.165Z" fill="#0F0F0F" fill-opacity="0.2"/>
<path d="M883.891 847.127L889.265 855.807L885.926 846.107C885.576 845.121 885.64 844.003 886.149 843.115C886.498 842.523 886.721 841.833 886.785 841.142C886.88 840.09 887.484 839.17 888.343 838.611L896.8 833.021L887.134 836.572C886.181 836.934 885.163 836.802 884.273 836.309C883.828 836.046 883.319 835.882 882.81 835.816C881.793 835.651 880.871 835.092 880.299 834.172L874.735 825.195L878.169 835.224C878.518 836.243 878.359 837.328 877.882 838.282C877.628 838.742 877.469 839.268 877.374 839.794C877.215 840.814 876.674 841.734 875.816 842.293L867.168 848.014L876.642 844.529C877.596 844.167 878.677 844.266 879.536 844.792C880.108 845.154 880.776 845.417 881.443 845.483C882.461 845.614 883.319 846.239 883.86 847.127H883.891Z" fill="#0F0F0F" fill-opacity="0.2"/>
<path d="M408.962 507.037L414.335 515.717L410.997 506.018C410.647 505.031 410.71 503.913 411.219 503.025C411.569 502.434 411.791 501.743 411.855 501.053C411.95 500 412.554 499.08 413.413 498.521L421.87 492.931L412.205 496.482C411.251 496.844 410.233 496.712 409.343 496.219C408.898 495.956 408.389 495.792 407.881 495.726C406.863 495.562 405.941 495.003 405.369 494.082L399.805 485.105L403.239 495.134C403.589 496.153 403.43 497.238 402.953 498.192C402.698 498.652 402.539 499.178 402.444 499.704C402.285 500.724 401.745 501.644 400.886 502.203L392.238 507.925L401.713 504.439C402.667 504.078 403.748 504.176 404.606 504.702C405.178 505.064 405.846 505.327 406.514 505.393C407.531 505.524 408.389 506.149 408.93 507.037H408.962Z" fill="#0F0F0F" fill-opacity="0.2"/>
<path d="M1118.68 507.037L1124.06 515.717L1120.72 506.018C1120.37 505.031 1120.43 503.913 1120.94 503.025C1121.29 502.434 1121.51 501.743 1121.58 501.053C1121.67 500 1122.28 499.08 1123.14 498.521L1131.59 492.931L1121.93 496.482C1120.97 496.844 1119.96 496.712 1119.07 496.219C1118.62 495.956 1118.11 495.792 1117.6 495.726C1116.59 495.562 1115.66 495.003 1115.09 494.082L1109.53 485.105L1112.96 495.134C1113.31 496.153 1113.15 497.238 1112.68 498.192C1112.42 498.652 1112.26 499.178 1112.17 499.704C1112.01 500.724 1111.47 501.644 1110.61 502.203L1101.96 507.925L1111.44 504.439C1112.39 504.078 1113.47 504.176 1114.33 504.702C1114.9 505.064 1115.57 505.327 1116.24 505.393C1117.25 505.524 1118.11 506.149 1118.65 507.037H1118.68Z" fill="#0F0F0F" fill-opacity="0.2"/>
<path d="M160.114 358.15L165.487 366.831L162.149 357.131C161.799 356.144 161.863 355.027 162.371 354.139C162.721 353.547 162.944 352.856 163.007 352.166C163.103 351.114 163.707 350.193 164.565 349.634L173.022 344.044L163.357 347.595C162.403 347.957 161.386 347.826 160.496 347.332C160.05 347.069 159.542 346.905 159.033 346.839C158.016 346.675 157.094 346.116 156.521 345.195L150.958 336.219L154.391 346.247C154.741 347.267 154.582 348.352 154.105 349.305C153.851 349.766 153.692 350.292 153.596 350.818C153.437 351.837 152.897 352.758 152.038 353.317L143.391 359.038L152.865 355.553C153.819 355.191 154.9 355.29 155.758 355.816C156.331 356.177 156.998 356.44 157.666 356.506C158.683 356.638 159.542 357.262 160.082 358.15H160.114Z" fill="#0F0F0F" fill-opacity="0.2"/>
<path d="M869.833 358.15L875.206 366.831L871.868 357.131C871.518 356.144 871.581 355.027 872.09 354.139C872.44 353.547 872.662 352.856 872.726 352.166C872.821 351.114 873.425 350.193 874.284 349.634L882.741 344.044L873.076 347.595C872.122 347.957 871.105 347.826 870.214 347.332C869.769 347.069 869.261 346.905 868.752 346.839C867.734 346.675 866.812 346.116 866.24 345.195L860.676 336.219L864.11 346.247C864.46 347.267 864.301 348.352 863.824 349.305C863.569 349.766 863.411 350.292 863.315 350.818C863.156 351.837 862.616 352.758 861.757 353.317L853.109 359.038L862.584 355.553C863.538 355.191 864.619 355.29 865.477 355.816C866.049 356.177 866.717 356.44 867.385 356.506C868.402 356.638 869.261 357.262 869.801 358.15H869.833Z" fill="#0F0F0F" fill-opacity="0.2"/>
<path d="M228.884 304.592L234.257 313.272L230.918 303.572C230.569 302.586 230.632 301.468 231.141 300.58C231.491 299.988 231.713 299.298 231.777 298.607C231.872 297.555 232.476 296.634 233.335 296.075L241.792 290.486L232.127 294.037C231.173 294.399 230.155 294.267 229.265 293.774C228.82 293.511 228.311 293.346 227.803 293.281C226.785 293.116 225.863 292.557 225.291 291.637L219.727 282.66L223.161 292.689C223.51 293.708 223.351 294.793 222.875 295.747C222.62 296.207 222.461 296.733 222.366 297.259C222.207 298.278 221.666 299.199 220.808 299.758L212.16 305.479L221.635 301.994C222.588 301.632 223.669 301.731 224.528 302.257C225.1 302.619 225.768 302.882 226.435 302.948C227.453 303.079 228.311 303.704 228.852 304.592H228.884Z" fill="#0F0F0F" fill-opacity="0.2"/>
<path d="M938.602 304.592L943.975 313.272L940.637 303.572C940.287 302.586 940.351 301.468 940.86 300.58C941.209 299.988 941.432 299.298 941.496 298.607C941.591 297.555 942.195 296.634 943.053 296.075L951.511 290.486L941.845 294.037C940.891 294.399 939.874 294.267 938.984 293.774C938.539 293.511 938.03 293.346 937.521 293.281C936.504 293.116 935.582 292.557 935.01 291.637L929.446 282.66L932.879 292.689C933.229 293.708 933.07 294.793 932.593 295.747C932.339 296.207 932.18 296.733 932.085 297.259C931.926 298.278 931.385 299.199 930.527 299.758L921.879 305.479L931.353 301.994C932.307 301.632 933.388 301.731 934.247 302.257C934.819 302.619 935.487 302.882 936.154 302.948C937.172 303.079 938.03 303.704 938.571 304.592H938.602Z" fill="#0F0F0F" fill-opacity="0.2"/>
<path d="M658.985 515.029L664.358 523.71L661.02 514.01C660.67 513.023 660.734 511.905 661.243 511.018C661.592 510.426 661.815 509.735 661.878 509.045C661.974 507.993 662.578 507.072 663.436 506.513L671.893 500.923L662.228 504.474C661.274 504.836 660.257 504.704 659.367 504.211C658.922 503.948 658.413 503.784 657.904 503.718C656.887 503.554 655.965 502.995 655.392 502.074L649.829 493.098L653.262 503.126C653.612 504.146 653.453 505.231 652.976 506.184C652.722 506.644 652.563 507.171 652.467 507.697C652.309 508.716 651.768 509.637 650.91 510.196L642.262 515.917L651.736 512.431C652.69 512.07 653.771 512.168 654.629 512.695C655.202 513.056 655.869 513.319 656.537 513.385C657.554 513.517 658.413 514.141 658.953 515.029H658.985Z" fill="#0F0F0F" fill-opacity="0.2"/>
<path d="M1368.71 515.029L1374.08 523.71L1370.74 514.01C1370.39 513.023 1370.46 511.905 1370.97 511.018C1371.31 510.426 1371.54 509.735 1371.6 509.045C1371.7 507.993 1372.3 507.072 1373.16 506.513L1381.62 500.923L1371.95 504.474C1371 504.836 1369.98 504.704 1369.09 504.211C1368.64 503.948 1368.14 503.784 1367.63 503.718C1366.61 503.554 1365.69 502.995 1365.12 502.074L1359.55 493.098L1362.98 503.126C1363.33 504.146 1363.18 505.231 1362.7 506.184C1362.44 506.644 1362.29 507.171 1362.19 507.697C1362.03 508.716 1361.49 509.637 1360.63 510.196L1351.98 515.917L1361.46 512.431C1362.41 512.07 1363.49 512.168 1364.35 512.695C1364.92 513.056 1365.59 513.319 1366.26 513.385C1367.28 513.517 1368.14 514.141 1368.68 515.029H1368.71Z" fill="#0F0F0F" fill-opacity="0.2"/>
<path d="M423.236 705.643L426.511 710.903L424.476 705.018C424.286 704.426 424.286 703.735 424.604 703.209C424.826 702.848 424.953 702.42 424.985 701.993C425.049 701.368 425.43 700.809 425.939 700.447L431.089 697.028L425.208 699.198C424.635 699.395 424 699.329 423.459 699.033C423.173 698.869 422.887 698.77 422.569 698.738C421.933 698.639 421.392 698.31 421.043 697.751L417.673 692.293L419.771 698.409C419.994 699.034 419.898 699.691 419.58 700.25C419.421 700.546 419.326 700.842 419.262 701.171C419.167 701.795 418.817 702.354 418.308 702.683L413.062 706.169L418.817 704.064C419.389 703.834 420.057 703.9 420.566 704.229C420.916 704.459 421.297 704.59 421.71 704.656C422.314 704.722 422.855 705.116 423.173 705.675L423.236 705.643Z" fill="#0F0F0F" fill-opacity="0.2"/>
<path d="M1132.96 705.643L1136.23 710.903L1134.2 705.018C1134.01 704.426 1134.01 703.735 1134.33 703.209C1134.55 702.848 1134.68 702.42 1134.71 701.993C1134.77 701.368 1135.15 700.809 1135.66 700.447L1140.81 697.028L1134.93 699.198C1134.36 699.395 1133.72 699.329 1133.18 699.033C1132.9 698.869 1132.61 698.77 1132.29 698.738C1131.66 698.639 1131.12 698.31 1130.77 697.751L1127.4 692.293L1129.49 698.409C1129.72 699.034 1129.62 699.691 1129.3 700.25C1129.14 700.546 1129.05 700.842 1128.98 701.171C1128.89 701.795 1128.54 702.354 1128.03 702.683L1122.79 706.169L1128.54 704.064C1129.11 703.834 1129.78 703.9 1130.29 704.229C1130.64 704.459 1131.02 704.59 1131.43 704.656C1132.04 704.722 1132.58 705.116 1132.9 705.675L1132.96 705.643Z" fill="#0F0F0F" fill-opacity="0.2"/>
<path d="M411.983 1279.44L415.257 1284.7L413.223 1278.81C413.032 1278.22 413.032 1277.53 413.35 1277C413.572 1276.64 413.699 1276.21 413.731 1275.79C413.795 1275.16 414.176 1274.6 414.685 1274.24L419.836 1270.82L413.954 1272.99C413.381 1273.19 412.746 1273.12 412.205 1272.83C411.919 1272.66 411.633 1272.56 411.315 1272.53C410.679 1272.43 410.139 1272.1 409.789 1271.54L406.419 1266.09L408.517 1272.2C408.74 1272.83 408.644 1273.48 408.326 1274.04C408.167 1274.34 408.072 1274.63 408.008 1274.96C407.913 1275.59 407.563 1276.15 407.055 1276.48L401.809 1279.96L407.563 1277.86C408.136 1277.63 408.803 1277.69 409.312 1278.02C409.662 1278.25 410.043 1278.38 410.456 1278.45C411.061 1278.51 411.601 1278.91 411.919 1279.47L411.983 1279.44Z" fill="#0F0F0F" fill-opacity="0.2"/>
<path d="M1121.71 1279.44L1124.98 1284.7L1122.95 1278.81C1122.75 1278.22 1122.75 1277.53 1123.07 1277C1123.29 1276.64 1123.42 1276.21 1123.45 1275.79C1123.52 1275.16 1123.9 1274.6 1124.41 1274.24L1129.56 1270.82L1123.68 1272.99C1123.1 1273.19 1122.47 1273.12 1121.93 1272.83C1121.64 1272.66 1121.36 1272.56 1121.04 1272.53C1120.4 1272.43 1119.86 1272.1 1119.51 1271.54L1116.14 1266.09L1118.24 1272.2C1118.46 1272.83 1118.37 1273.48 1118.05 1274.04C1117.89 1274.34 1117.79 1274.63 1117.73 1274.96C1117.64 1275.59 1117.29 1276.15 1116.78 1276.48L1111.53 1279.96L1117.29 1277.86C1117.86 1277.63 1118.53 1277.69 1119.03 1278.02C1119.38 1278.25 1119.77 1278.38 1120.18 1278.45C1120.78 1278.51 1121.32 1278.91 1121.64 1279.47L1121.71 1279.44Z" fill="#0F0F0F" fill-opacity="0.2"/>
<path d="M457.986 1439.54L461.261 1444.8L459.226 1438.92C459.036 1438.32 459.036 1437.63 459.354 1437.11C459.576 1436.75 459.703 1436.32 459.735 1435.89C459.799 1435.27 460.18 1434.71 460.689 1434.35L465.839 1430.93L459.958 1433.1C459.385 1433.29 458.749 1433.23 458.209 1432.93C457.923 1432.77 457.637 1432.67 457.319 1432.64C456.683 1432.54 456.142 1432.21 455.793 1431.65L452.423 1426.19L454.521 1432.31C454.744 1432.93 454.648 1433.59 454.33 1434.15C454.171 1434.44 454.076 1434.74 454.012 1435.07C453.917 1435.69 453.567 1436.25 453.058 1436.58L447.812 1440.07L453.567 1437.96C454.139 1437.73 454.807 1437.8 455.316 1438.13C455.666 1438.36 456.047 1438.49 456.46 1438.55C457.064 1438.62 457.605 1439.01 457.923 1439.57L457.986 1439.54Z" fill="#0F0F0F" fill-opacity="0.2"/>
<path d="M1167.71 1439.54L1170.99 1444.8L1168.95 1438.92C1168.76 1438.32 1168.76 1437.63 1169.08 1437.11C1169.3 1436.75 1169.43 1436.32 1169.46 1435.89C1169.53 1435.27 1169.91 1434.71 1170.42 1434.35L1175.57 1430.93L1169.68 1433.1C1169.11 1433.29 1168.48 1433.23 1167.94 1432.93C1167.65 1432.77 1167.36 1432.67 1167.05 1432.64C1166.41 1432.54 1165.87 1432.21 1165.52 1431.65L1162.15 1426.19L1164.25 1432.31C1164.47 1432.93 1164.37 1433.59 1164.06 1434.15C1163.9 1434.44 1163.8 1434.74 1163.74 1435.07C1163.64 1435.69 1163.29 1436.25 1162.78 1436.58L1157.54 1440.07L1163.29 1437.96C1163.87 1437.73 1164.53 1437.8 1165.04 1438.13C1165.39 1438.36 1165.77 1438.49 1166.19 1438.55C1166.79 1438.62 1167.33 1439.01 1167.65 1439.57L1167.71 1439.54Z" fill="#0F0F0F" fill-opacity="0.2"/>
<path d="M81.5841 910.814L84.8589 916.075L82.8241 910.19C82.6333 909.598 82.6333 908.907 82.9512 908.381C83.1738 908.02 83.301 907.592 83.3328 907.165C83.3963 906.54 83.7779 905.981 84.2866 905.619L89.4371 902.2L83.5553 904.37C82.983 904.567 82.3472 904.501 81.8067 904.205C81.5205 904.041 81.2344 903.942 80.9164 903.909C80.2806 903.811 79.7401 903.482 79.3903 902.923L76.0202 897.465L78.1186 903.581C78.3412 904.205 78.2458 904.863 77.9278 905.422C77.7689 905.718 77.6735 906.014 77.6099 906.343C77.5145 906.967 77.1648 907.526 76.6561 907.855L71.4102 911.34L77.1648 909.236C77.7371 909.006 78.4047 909.072 78.9134 909.401C79.2632 909.631 79.6447 909.762 80.058 909.828C80.6621 909.894 81.2026 910.288 81.5205 910.847L81.5841 910.814Z" fill="#0F0F0F" fill-opacity="0.2"/>
<path d="M231.842 1038.88L235.117 1044.14L233.082 1038.26C232.891 1037.66 232.891 1036.97 233.209 1036.45C233.432 1036.09 233.559 1035.66 233.591 1035.23C233.654 1034.61 234.036 1034.05 234.544 1033.69L239.695 1030.27L233.813 1032.44C233.241 1032.63 232.605 1032.57 232.064 1032.27C231.778 1032.11 231.492 1032.01 231.174 1031.98C230.538 1031.88 229.998 1031.55 229.648 1030.99L226.278 1025.53L228.376 1031.65C228.599 1032.27 228.504 1032.93 228.186 1033.49C228.027 1033.78 227.931 1034.08 227.868 1034.41C227.772 1035.03 227.423 1035.59 226.914 1035.92L221.668 1039.41L227.423 1037.3C227.995 1037.07 228.663 1037.14 229.171 1037.47C229.521 1037.7 229.903 1037.83 230.316 1037.89C230.92 1037.96 231.46 1038.35 231.778 1038.91L231.842 1038.88Z" fill="#0F0F0F" fill-opacity="0.2"/>
<path d="M941.561 1038.88L944.835 1044.14L942.801 1038.26C942.61 1037.66 942.61 1036.97 942.928 1036.45C943.15 1036.09 943.278 1035.66 943.309 1035.23C943.373 1034.61 943.754 1034.05 944.263 1033.69L949.414 1030.27L943.532 1032.44C942.96 1032.63 942.324 1032.57 941.783 1032.27C941.497 1032.11 941.211 1032.01 940.893 1031.98C940.257 1031.88 939.717 1031.55 939.367 1030.99L935.997 1025.53L938.095 1031.65C938.318 1032.27 938.222 1032.93 937.904 1033.49C937.745 1033.78 937.65 1034.08 937.586 1034.41C937.491 1035.03 937.141 1035.59 936.633 1035.92L931.387 1039.41L937.141 1037.3C937.714 1037.07 938.381 1037.14 938.89 1037.47C939.24 1037.7 939.621 1037.83 940.035 1037.89C940.639 1037.96 941.179 1038.35 941.497 1038.91L941.561 1038.88Z" fill="#0F0F0F" fill-opacity="0.2"/>
<path d="M232.696 96.1253L235.24 100.203L233.682 95.6321C233.523 95.1718 233.555 94.6457 233.777 94.2182C233.936 93.9223 234.032 93.6264 234.063 93.2976C234.127 92.8044 234.413 92.3769 234.795 92.1139L238.801 89.4834L234.254 91.1603C233.809 91.3247 233.332 91.259 232.919 91.0288C232.696 90.8973 232.474 90.8315 232.219 90.7986C231.742 90.7329 231.297 90.4698 231.043 90.0424L228.436 85.8008L230.057 90.5356C230.216 90.9959 230.153 91.522 229.93 91.9824C229.803 92.2125 229.739 92.4427 229.676 92.7057C229.58 93.1989 229.326 93.6264 228.945 93.8894L224.875 96.5856L229.358 94.9416C229.803 94.7772 230.312 94.8101 230.725 95.0731C231.011 95.2375 231.297 95.3691 231.615 95.4019C232.092 95.4677 232.505 95.7636 232.76 96.1911L232.696 96.1253Z" fill="#0F0F0F" fill-opacity="0.2"/>
<path d="M942.419 96.1253L944.962 100.203L943.404 95.6321C943.246 95.1718 943.277 94.6457 943.5 94.2182C943.659 93.9223 943.754 93.6264 943.786 93.2976C943.85 92.8044 944.136 92.3769 944.517 92.1139L948.523 89.4834L943.977 91.1603C943.532 91.3247 943.055 91.259 942.641 91.0288C942.419 90.8973 942.196 90.8315 941.942 90.7986C941.465 90.7329 941.02 90.4698 940.766 90.0424L938.159 85.8008L939.78 90.5356C939.939 90.9959 939.875 91.522 939.653 91.9824C939.526 92.2125 939.462 92.4427 939.398 92.7057C939.303 93.1989 939.049 93.6264 938.667 93.8894L934.598 96.5856L939.081 94.9416C939.526 94.7772 940.034 94.8101 940.448 95.0731C940.734 95.2375 941.02 95.3691 941.338 95.4019C941.815 95.4677 942.228 95.7636 942.482 96.1911L942.419 96.1253Z" fill="#0F0F0F" fill-opacity="0.2"/>
<path d="M400.822 62.6894L404.097 67.9503L402.062 62.0647C401.872 61.4728 401.872 60.7823 402.19 60.2562C402.412 59.8945 402.539 59.4671 402.571 59.0396C402.635 58.4149 403.016 57.8559 403.525 57.4943L408.675 54.0747L402.794 56.2448C402.221 56.4421 401.585 56.3763 401.045 56.0804C400.759 55.916 400.473 55.8173 400.155 55.7845C399.519 55.6858 398.978 55.357 398.629 54.798L395.258 49.3398L397.357 55.4556C397.579 56.0804 397.484 56.738 397.166 57.297C397.007 57.5929 396.912 57.8888 396.848 58.2176C396.753 58.8424 396.403 59.4013 395.894 59.7301L390.648 63.2155L396.403 61.1111C396.975 60.881 397.643 60.9467 398.152 61.2755C398.501 61.5057 398.883 61.6372 399.296 61.703C399.9 61.7687 400.441 62.1633 400.759 62.7223L400.822 62.6894Z" fill="#0F0F0F" fill-opacity="0.2"/>
<path d="M606.428 786.947L609.703 792.208L607.668 786.322C607.477 785.731 607.477 785.04 607.795 784.514C608.018 784.152 608.145 783.725 608.177 783.297C608.24 782.673 608.622 782.114 609.13 781.752L614.281 778.332L608.399 780.503C607.827 780.7 607.191 780.634 606.65 780.338C606.364 780.174 606.078 780.075 605.76 780.042C605.124 779.944 604.584 779.615 604.234 779.056L600.864 773.598L602.962 779.713C603.185 780.338 603.09 780.996 602.772 781.555C602.613 781.851 602.517 782.147 602.454 782.475C602.358 783.1 602.009 783.659 601.5 783.988L596.254 787.473L602.009 785.369C602.581 785.139 603.248 785.205 603.757 785.533C604.107 785.764 604.488 785.895 604.902 785.961C605.506 786.027 606.046 786.421 606.364 786.98L606.428 786.947Z" fill="#0F0F0F" fill-opacity="0.2"/>
<path d="M1316.15 786.947L1319.43 792.208L1317.39 786.322C1317.2 785.731 1317.2 785.04 1317.52 784.514C1317.74 784.152 1317.87 783.725 1317.9 783.297C1317.97 782.673 1318.35 782.114 1318.86 781.752L1324.01 778.332L1318.13 780.503C1317.55 780.7 1316.92 780.634 1316.38 780.338C1316.09 780.174 1315.8 780.075 1315.49 780.042C1314.85 779.944 1314.31 779.615 1313.96 779.056L1310.59 773.598L1312.69 779.713C1312.91 780.338 1312.82 780.996 1312.5 781.555C1312.34 781.851 1312.24 782.147 1312.18 782.475C1312.08 783.1 1311.74 783.659 1311.23 783.988L1305.98 787.473L1311.74 785.369C1312.31 785.139 1312.98 785.205 1313.48 785.533C1313.83 785.764 1314.22 785.895 1314.63 785.961C1315.23 786.027 1315.77 786.421 1316.09 786.98L1316.15 786.947Z" fill="#0F0F0F" fill-opacity="0.2"/>
<path d="M437.225 172.182L440.499 177.442L438.465 171.557C438.274 170.965 438.274 170.275 438.592 169.748C438.814 169.387 438.942 168.959 438.973 168.532C439.037 167.907 439.418 167.348 439.927 166.986L445.078 163.567L439.196 165.737C438.624 165.934 437.988 165.868 437.447 165.573C437.161 165.408 436.875 165.31 436.557 165.277C435.921 165.178 435.381 164.849 435.031 164.29L431.661 158.832L433.759 164.948C433.982 165.573 433.886 166.23 433.568 166.789C433.409 167.085 433.314 167.381 433.251 167.71C433.155 168.335 432.805 168.894 432.297 169.222L427.051 172.708L432.805 170.603C433.378 170.373 434.045 170.439 434.554 170.768C434.904 170.998 435.285 171.129 435.699 171.195C436.303 171.261 436.843 171.655 437.161 172.214L437.225 172.182Z" fill="#0F0F0F" fill-opacity="0.2"/>
<path d="M1146.95 172.182L1150.22 177.442L1148.19 171.557C1148 170.965 1148 170.275 1148.31 169.748C1148.54 169.387 1148.66 168.959 1148.7 168.532C1148.76 167.907 1149.14 167.348 1149.65 166.986L1154.8 163.567L1148.92 165.737C1148.35 165.934 1147.71 165.868 1147.17 165.573C1146.88 165.408 1146.6 165.31 1146.28 165.277C1145.64 165.178 1145.1 164.849 1144.75 164.29L1141.38 158.832L1143.48 164.948C1143.7 165.573 1143.61 166.23 1143.29 166.789C1143.13 167.085 1143.04 167.381 1142.97 167.71C1142.88 168.335 1142.53 168.894 1142.02 169.222L1136.77 172.708L1142.53 170.603C1143.1 170.373 1143.77 170.439 1144.28 170.768C1144.63 170.998 1145.01 171.129 1145.42 171.195C1146.03 171.261 1146.57 171.655 1146.88 172.214L1146.95 172.182Z" fill="#0F0F0F" fill-opacity="0.2"/>
<path d="M193.498 496.186L196.773 501.446L194.738 495.561C194.547 494.969 194.547 494.278 194.865 493.752C195.088 493.391 195.215 492.963 195.247 492.536C195.31 491.911 195.692 491.352 196.201 490.99L201.351 487.571L195.469 489.741C194.897 489.938 194.261 489.872 193.721 489.576C193.435 489.412 193.148 489.313 192.831 489.281C192.195 489.182 191.654 488.853 191.304 488.294L187.934 482.836L190.033 488.952C190.255 489.576 190.16 490.234 189.842 490.793C189.683 491.089 189.588 491.385 189.524 491.714C189.429 492.338 189.079 492.897 188.57 493.226L183.324 496.712L189.079 494.607C189.651 494.377 190.319 494.443 190.828 494.772C191.177 495.002 191.559 495.133 191.972 495.199C192.576 495.265 193.117 495.659 193.435 496.218L193.498 496.186Z" fill="#0F0F0F" fill-opacity="0.2"/>
<path d="M903.217 496.186L906.492 501.446L904.457 495.561C904.266 494.969 904.266 494.278 904.584 493.752C904.807 493.391 904.934 492.963 904.966 492.536C905.029 491.911 905.411 491.352 905.919 490.99L911.07 487.571L905.188 489.741C904.616 489.938 903.98 489.872 903.439 489.576C903.153 489.412 902.867 489.313 902.549 489.281C901.913 489.182 901.373 488.853 901.023 488.294L897.653 482.836L899.751 488.952C899.974 489.576 899.879 490.234 899.561 490.793C899.402 491.089 899.306 491.385 899.243 491.714C899.147 492.338 898.798 492.897 898.289 493.226L893.043 496.712L898.798 494.607C899.37 494.377 900.038 494.443 900.546 494.772C900.896 495.002 901.278 495.133 901.691 495.199C902.295 495.265 902.835 495.659 903.153 496.218L903.217 496.186Z" fill="#0F0F0F" fill-opacity="0.2"/>
<path d="M665.377 267.869L668.652 273.13L666.617 267.244C666.426 266.653 666.426 265.962 666.744 265.436C666.967 265.074 667.094 264.647 667.126 264.219C667.189 263.595 667.571 263.036 668.08 262.674L673.23 259.254L667.348 261.424C666.776 261.622 666.14 261.556 665.6 261.26C665.314 261.096 665.027 260.997 664.709 260.964C664.074 260.865 663.533 260.537 663.183 259.978L659.813 254.52L661.912 260.635C662.134 261.26 662.039 261.918 661.721 262.477C661.562 262.773 661.466 263.069 661.403 263.397C661.307 264.022 660.958 264.581 660.449 264.91L655.203 268.395L660.958 266.291C661.53 266.061 662.198 266.126 662.706 266.455C663.056 266.685 663.438 266.817 663.851 266.883C664.455 266.948 664.996 267.343 665.313 267.902L665.377 267.869Z" fill="#0F0F0F" fill-opacity="0.2"/>
<path d="M1375.1 267.869L1378.37 273.13L1376.34 267.244C1376.15 266.653 1376.15 265.962 1376.47 265.436C1376.69 265.074 1376.82 264.647 1376.85 264.219C1376.91 263.595 1377.29 263.036 1377.8 262.674L1382.95 259.254L1377.07 261.424C1376.5 261.622 1375.86 261.556 1375.32 261.26C1375.04 261.096 1374.75 260.997 1374.43 260.964C1373.8 260.865 1373.26 260.537 1372.91 259.978L1369.54 254.52L1371.63 260.635C1371.86 261.26 1371.76 261.918 1371.44 262.477C1371.28 262.773 1371.19 263.069 1371.13 263.397C1371.03 264.022 1370.68 264.581 1370.17 264.91L1364.93 268.395L1370.68 266.291C1371.25 266.061 1371.92 266.126 1372.43 266.455C1372.78 266.685 1373.16 266.817 1373.57 266.883C1374.18 266.948 1374.72 267.343 1375.04 267.902L1375.1 267.869Z" fill="#0F0F0F" fill-opacity="0.2"/>
<path d="M651.451 630.213L654.726 635.474L652.691 629.588C652.5 628.996 652.5 628.306 652.818 627.78C653.041 627.418 653.168 626.991 653.2 626.563C653.264 625.938 653.645 625.379 654.154 625.018L659.304 621.598L653.423 623.768C652.85 623.965 652.214 623.9 651.674 623.604C651.388 623.439 651.102 623.341 650.784 623.308C650.148 623.209 649.607 622.88 649.258 622.321L645.887 616.863L647.986 622.979C648.208 623.604 648.113 624.261 647.795 624.82C647.636 625.116 647.541 625.412 647.477 625.741C647.382 626.366 647.032 626.925 646.523 627.254L641.277 630.739L647.032 628.635C647.604 628.404 648.272 628.47 648.781 628.799C649.13 629.029 649.512 629.161 649.925 629.226C650.529 629.292 651.07 629.687 651.388 630.246L651.451 630.213Z" fill="#0F0F0F" fill-opacity="0.2"/>
<path d="M1361.17 630.213L1364.45 635.474L1362.41 629.588C1362.22 628.996 1362.22 628.306 1362.54 627.78C1362.76 627.418 1362.89 626.991 1362.92 626.563C1362.99 625.938 1363.37 625.379 1363.88 625.018L1369.03 621.598L1363.15 623.768C1362.57 623.965 1361.94 623.9 1361.4 623.604C1361.11 623.439 1360.82 623.341 1360.51 623.308C1359.87 623.209 1359.33 622.88 1358.98 622.321L1355.61 616.863L1357.71 622.979C1357.93 623.604 1357.84 624.261 1357.52 624.82C1357.36 625.116 1357.26 625.412 1357.2 625.741C1357.1 626.366 1356.75 626.925 1356.25 627.254L1351 630.739L1356.75 628.635C1357.33 628.404 1357.99 628.47 1358.5 628.799C1358.85 629.029 1359.23 629.161 1359.65 629.226C1360.25 629.292 1360.79 629.687 1361.11 630.246L1361.17 630.213Z" fill="#0F0F0F" fill-opacity="0.2"/>
<path d="M198.205 1122.01L201.48 1127.27L199.445 1121.38C199.254 1120.79 199.254 1120.1 199.572 1119.58C199.795 1119.21 199.922 1118.79 199.954 1118.36C200.017 1117.74 200.399 1117.18 200.908 1116.81L206.058 1113.39L200.176 1115.57C199.604 1115.76 198.968 1115.7 198.428 1115.4C198.142 1115.24 197.855 1115.14 197.538 1115.1C196.902 1115.01 196.361 1114.68 196.011 1114.12L192.641 1108.66L194.74 1114.78C194.962 1115.4 194.867 1116.06 194.549 1116.62C194.39 1116.91 194.295 1117.21 194.231 1117.54C194.136 1118.16 193.786 1118.72 193.277 1119.05L188.031 1122.54L193.786 1120.43C194.358 1120.2 195.026 1120.27 195.535 1120.6C195.884 1120.83 196.266 1120.96 196.679 1121.02C197.283 1121.09 197.824 1121.48 198.142 1122.04L198.205 1122.01Z" fill="#0F0F0F" fill-opacity="0.2"/>
<path d="M907.924 1122.01L911.199 1127.27L909.164 1121.38C908.973 1120.79 908.973 1120.1 909.291 1119.58C909.514 1119.21 909.641 1118.79 909.673 1118.36C909.736 1117.74 910.118 1117.18 910.626 1116.81L915.777 1113.39L909.895 1115.57C909.323 1115.76 908.687 1115.7 908.147 1115.4C907.86 1115.24 907.574 1115.14 907.256 1115.1C906.62 1115.01 906.08 1114.68 905.73 1114.12L902.36 1108.66L904.458 1114.78C904.681 1115.4 904.586 1116.06 904.268 1116.62C904.109 1116.91 904.013 1117.21 903.95 1117.54C903.854 1118.16 903.505 1118.72 902.996 1119.05L897.75 1122.54L903.505 1120.43C904.077 1120.2 904.745 1120.27 905.253 1120.6C905.603 1120.83 905.985 1120.96 906.398 1121.02C907.002 1121.09 907.542 1121.48 907.86 1122.04L907.924 1122.01Z" fill="#0F0F0F" fill-opacity="0.2"/>
<path d="M329.794 1312.03L332.337 1316.1L330.779 1311.53C330.621 1311.07 330.652 1310.55 330.875 1310.12C331.034 1309.82 331.129 1309.53 331.161 1309.2C331.225 1308.71 331.511 1308.28 331.892 1308.02L335.898 1305.39L331.352 1307.06C330.907 1307.23 330.43 1307.16 330.016 1306.93C329.794 1306.8 329.571 1306.73 329.317 1306.7C328.84 1306.64 328.395 1306.37 328.141 1305.94L325.534 1301.7L327.155 1306.44C327.314 1306.9 327.25 1307.42 327.028 1307.88C326.901 1308.11 326.837 1308.35 326.773 1308.61C326.678 1309.1 326.424 1309.53 326.042 1309.79L321.973 1312.49L326.456 1310.84C326.901 1310.68 327.409 1310.71 327.823 1310.98C328.109 1311.14 328.395 1311.27 328.713 1311.3C329.19 1311.37 329.603 1311.67 329.857 1312.09L329.794 1312.03Z" fill="#0F0F0F" fill-opacity="0.2"/>
<path d="M1039.52 1312.03L1042.06 1316.1L1040.5 1311.53C1040.34 1311.07 1040.37 1310.55 1040.6 1310.12C1040.76 1309.82 1040.85 1309.53 1040.88 1309.2C1040.95 1308.71 1041.23 1308.28 1041.61 1308.02L1045.62 1305.39L1041.07 1307.06C1040.63 1307.23 1040.15 1307.16 1039.74 1306.93C1039.52 1306.8 1039.29 1306.73 1039.04 1306.7C1038.56 1306.64 1038.12 1306.37 1037.86 1305.94L1035.26 1301.7L1036.88 1306.44C1037.04 1306.9 1036.97 1307.42 1036.75 1307.88C1036.62 1308.11 1036.56 1308.35 1036.5 1308.61C1036.4 1309.1 1036.15 1309.53 1035.76 1309.79L1031.7 1312.49L1036.18 1310.84C1036.62 1310.68 1037.13 1310.71 1037.55 1310.98C1037.83 1311.14 1038.12 1311.27 1038.44 1311.3C1038.91 1311.37 1039.33 1311.67 1039.58 1312.09L1039.52 1312.03Z" fill="#0F0F0F" fill-opacity="0.2"/>
<path d="M570.95 140.59L573.494 144.667L571.936 140.097C571.777 139.637 571.809 139.111 572.031 138.683C572.19 138.387 572.285 138.091 572.317 137.762C572.381 137.269 572.667 136.842 573.049 136.579L577.055 133.948L572.508 135.625C572.063 135.79 571.586 135.724 571.173 135.494C570.95 135.362 570.728 135.296 570.473 135.263C569.996 135.198 569.551 134.935 569.297 134.507L566.69 130.266L568.311 135C568.47 135.461 568.407 135.987 568.184 136.447C568.057 136.677 567.993 136.908 567.93 137.171C567.834 137.664 567.58 138.091 567.198 138.354L563.129 141.05L567.612 139.406C568.057 139.242 568.566 139.275 568.979 139.538C569.265 139.702 569.551 139.834 569.869 139.867C570.346 139.933 570.759 140.228 571.014 140.656L570.95 140.59Z" fill="#0F0F0F" fill-opacity="0.2"/>
<path d="M305.095 286.09L307.638 290.167L306.08 285.597C305.921 285.137 305.953 284.611 306.176 284.183C306.335 283.887 306.43 283.591 306.462 283.262C306.525 282.769 306.812 282.342 307.193 282.079L311.199 279.448L306.653 281.125C306.207 281.29 305.731 281.224 305.317 280.994C305.095 280.862 304.872 280.796 304.618 280.764C304.141 280.698 303.696 280.435 303.441 280.007L300.834 275.766L302.456 280.5C302.615 280.961 302.551 281.487 302.329 281.947C302.201 282.177 302.138 282.408 302.074 282.671C301.979 283.164 301.725 283.591 301.343 283.854L297.273 286.55L301.756 284.906C302.201 284.742 302.71 284.775 303.123 285.038C303.41 285.202 303.696 285.334 304.014 285.367C304.491 285.433 304.904 285.728 305.158 286.156L305.095 286.09Z" fill="#0F0F0F" fill-opacity="0.2"/>
<path d="M1014.81 286.09L1017.36 290.167L1015.8 285.597C1015.64 285.137 1015.67 284.611 1015.89 284.183C1016.05 283.887 1016.15 283.591 1016.18 283.262C1016.24 282.769 1016.53 282.342 1016.91 282.079L1020.92 279.448L1016.37 281.125C1015.93 281.29 1015.45 281.224 1015.04 280.994C1014.81 280.862 1014.59 280.796 1014.34 280.764C1013.86 280.698 1013.41 280.435 1013.16 280.007L1010.55 275.766L1012.17 280.5C1012.33 280.961 1012.27 281.487 1012.05 281.947C1011.92 282.177 1011.86 282.408 1011.79 282.671C1011.7 283.164 1011.44 283.591 1011.06 283.854L1006.99 286.55L1011.48 284.906C1011.92 284.742 1012.43 284.775 1012.84 285.038C1013.13 285.202 1013.41 285.334 1013.73 285.367C1014.21 285.433 1014.62 285.728 1014.88 286.156L1014.81 286.09Z" fill="#0F0F0F" fill-opacity="0.2"/>
<path d="M515.505 1282.82L518.048 1286.9L516.49 1282.33C516.331 1281.87 516.363 1281.34 516.586 1280.91C516.745 1280.62 516.84 1280.32 516.872 1279.99C516.936 1279.5 517.222 1279.07 517.603 1278.81L521.609 1276.18L517.063 1277.86C516.618 1278.02 516.141 1277.95 515.727 1277.72C515.505 1277.59 515.282 1277.53 515.028 1277.49C514.551 1277.43 514.106 1277.17 513.852 1276.74L511.245 1272.5L512.866 1277.23C513.025 1277.69 512.961 1278.22 512.739 1278.68C512.612 1278.91 512.548 1279.14 512.484 1279.4C512.389 1279.89 512.135 1280.32 511.753 1280.58L507.684 1283.28L512.167 1281.64C512.612 1281.47 513.12 1281.51 513.534 1281.77C513.82 1281.93 514.106 1282.06 514.424 1282.1C514.901 1282.16 515.314 1282.46 515.568 1282.89L515.505 1282.82Z" fill="#0F0F0F" fill-opacity="0.2"/>
<path d="M1225.22 1282.82L1227.77 1286.9L1226.21 1282.33C1226.05 1281.87 1226.08 1281.34 1226.3 1280.91C1226.46 1280.62 1226.56 1280.32 1226.59 1279.99C1226.65 1279.5 1226.94 1279.07 1227.32 1278.81L1231.33 1276.18L1226.78 1277.86C1226.34 1278.02 1225.86 1277.95 1225.45 1277.72C1225.22 1277.59 1225 1277.53 1224.75 1277.49C1224.27 1277.43 1223.82 1277.17 1223.57 1276.74L1220.96 1272.5L1222.58 1277.23C1222.74 1277.69 1222.68 1278.22 1222.46 1278.68C1222.33 1278.91 1222.27 1279.14 1222.2 1279.4C1222.11 1279.89 1221.85 1280.32 1221.47 1280.58L1217.4 1283.28L1221.89 1281.64C1222.33 1281.47 1222.84 1281.51 1223.25 1281.77C1223.54 1281.93 1223.82 1282.06 1224.14 1282.1C1224.62 1282.16 1225.03 1282.46 1225.29 1282.89L1225.22 1282.82Z" fill="#0F0F0F" fill-opacity="0.2"/>
<path d="M593.779 1499.54L597.054 1504.81L595.019 1498.92C594.829 1498.33 594.829 1497.64 595.147 1497.11C595.369 1496.75 595.496 1496.32 595.528 1495.9C595.592 1495.27 595.973 1494.71 596.482 1494.35L601.632 1490.93L595.751 1493.1C595.178 1493.3 594.542 1493.23 594.002 1492.94C593.716 1492.77 593.43 1492.67 593.112 1492.64C592.476 1492.54 591.935 1492.21 591.586 1491.65L588.216 1486.2L590.314 1492.31C590.536 1492.94 590.441 1493.59 590.123 1494.15C589.964 1494.45 589.869 1494.74 589.805 1495.07C589.71 1495.7 589.36 1496.26 588.851 1496.59L583.605 1500.07L589.36 1497.97C589.932 1497.74 590.6 1497.8 591.109 1498.13C591.458 1498.36 591.84 1498.49 592.253 1498.56C592.857 1498.62 593.398 1499.02 593.716 1499.58L593.779 1499.54Z" fill="#0F0F0F" fill-opacity="0.2"/>
<path d="M1303.5 1499.54L1306.78 1504.81L1304.74 1498.92C1304.55 1498.33 1304.55 1497.64 1304.87 1497.11C1305.09 1496.75 1305.22 1496.32 1305.25 1495.9C1305.31 1495.27 1305.7 1494.71 1306.2 1494.35L1311.36 1490.93L1305.47 1493.1C1304.9 1493.3 1304.27 1493.23 1303.72 1492.94C1303.44 1492.77 1303.15 1492.67 1302.83 1492.64C1302.2 1492.54 1301.66 1492.21 1301.31 1491.65L1297.94 1486.2L1300.04 1492.31C1300.26 1492.94 1300.16 1493.59 1299.85 1494.15C1299.69 1494.45 1299.59 1494.74 1299.53 1495.07C1299.43 1495.7 1299.08 1496.26 1298.57 1496.59L1293.33 1500.07L1299.08 1497.97C1299.66 1497.74 1300.32 1497.8 1300.83 1498.13C1301.18 1498.36 1301.56 1498.49 1301.98 1498.56C1302.58 1498.62 1303.12 1499.02 1303.44 1499.58L1303.5 1499.54Z" fill="#0F0F0F" fill-opacity="0.2"/>
<path d="M600.009 1307.42L602.552 1311.5L600.994 1306.93C600.835 1306.47 600.867 1305.94 601.09 1305.52C601.249 1305.22 601.344 1304.92 601.376 1304.59C601.439 1304.1 601.726 1303.67 602.107 1303.41L606.113 1300.78L601.567 1302.46C601.122 1302.62 600.645 1302.56 600.231 1302.33C600.009 1302.19 599.786 1302.13 599.532 1302.1C599.055 1302.03 598.61 1301.77 598.355 1301.34L595.748 1297.1L597.37 1301.83C597.529 1302.29 597.465 1302.82 597.243 1303.28C597.116 1303.51 597.052 1303.74 596.988 1304C596.893 1304.5 596.639 1304.92 596.257 1305.19L592.188 1307.88L596.67 1306.24C597.116 1306.07 597.624 1306.11 598.038 1306.37C598.324 1306.53 598.61 1306.67 598.928 1306.7C599.405 1306.76 599.818 1307.06 600.072 1307.49L600.009 1307.42Z" fill="#0F0F0F" fill-opacity="0.2"/>
<path d="M1309.73 1307.42L1312.27 1311.5L1310.72 1306.93C1310.56 1306.47 1310.59 1305.94 1310.81 1305.52C1310.97 1305.22 1311.07 1304.92 1311.1 1304.59C1311.16 1304.1 1311.45 1303.67 1311.83 1303.41L1315.84 1300.78L1311.29 1302.46C1310.84 1302.62 1310.37 1302.56 1309.95 1302.33C1309.73 1302.19 1309.51 1302.13 1309.25 1302.1C1308.78 1302.03 1308.33 1301.77 1308.08 1301.34L1305.47 1297.1L1307.09 1301.83C1307.25 1302.29 1307.19 1302.82 1306.97 1303.28C1306.84 1303.51 1306.77 1303.74 1306.71 1304C1306.62 1304.5 1306.36 1304.92 1305.98 1305.19L1301.91 1307.88L1306.39 1306.24C1306.84 1306.07 1307.35 1306.11 1307.76 1306.37C1308.05 1306.53 1308.33 1306.67 1308.65 1306.7C1309.13 1306.76 1309.54 1307.06 1309.8 1307.49L1309.73 1307.42Z" fill="#0F0F0F" fill-opacity="0.2"/>
<path d="M157.759 1514.24L160.302 1518.32L158.744 1513.75C158.585 1513.29 158.617 1512.76 158.84 1512.34C158.999 1512.04 159.094 1511.74 159.126 1511.41C159.189 1510.92 159.476 1510.49 159.857 1510.23L163.863 1507.6L159.317 1509.28C158.872 1509.44 158.395 1509.38 157.981 1509.15C157.759 1509.01 157.536 1508.95 157.282 1508.92C156.805 1508.85 156.36 1508.59 156.105 1508.16L153.498 1503.92L155.12 1508.65C155.279 1509.11 155.215 1509.64 154.993 1510.1C154.866 1510.33 154.802 1510.56 154.738 1510.82C154.643 1511.32 154.389 1511.74 154.007 1512.01L149.938 1514.7L154.42 1513.06C154.866 1512.89 155.374 1512.93 155.788 1513.19C156.074 1513.35 156.36 1513.49 156.678 1513.52C157.155 1513.58 157.568 1513.88 157.822 1514.31L157.759 1514.24Z" fill="#0F0F0F" fill-opacity="0.2"/>
<path d="M867.481 1514.24L870.025 1518.32L868.467 1513.75C868.308 1513.29 868.34 1512.76 868.562 1512.34C868.721 1512.04 868.817 1511.74 868.849 1511.41C868.912 1510.92 869.198 1510.49 869.58 1510.23L873.586 1507.6L869.039 1509.28C868.594 1509.44 868.117 1509.38 867.704 1509.15C867.481 1509.01 867.259 1508.95 867.004 1508.92C866.528 1508.85 866.082 1508.59 865.828 1508.16L863.221 1503.92L864.843 1508.65C865.001 1509.11 864.938 1509.64 864.715 1510.1C864.588 1510.33 864.525 1510.56 864.461 1510.82C864.366 1511.32 864.111 1511.74 863.73 1512.01L859.66 1514.7L864.143 1513.06C864.588 1512.89 865.097 1512.93 865.51 1513.19C865.796 1513.35 866.082 1513.49 866.4 1513.52C866.877 1513.58 867.291 1513.88 867.545 1514.31L867.481 1514.24Z" fill="#0F0F0F" fill-opacity="0.2"/>
<path d="M641.533 363.92L644.808 369.181L642.773 363.295C642.583 362.703 642.583 362.013 642.9 361.487C643.123 361.125 643.25 360.698 643.282 360.27C643.346 359.645 643.727 359.086 644.236 358.725L649.386 355.305L643.505 357.475C642.932 357.673 642.296 357.607 641.756 357.311C641.47 357.146 641.184 357.048 640.866 357.015C640.23 356.916 639.689 356.587 639.34 356.029L635.969 350.57L638.068 356.686C638.29 357.311 638.195 357.968 637.877 358.527C637.718 358.823 637.623 359.119 637.559 359.448C637.464 360.073 637.114 360.632 636.605 360.961L631.359 364.446L637.114 362.342C637.686 362.111 638.354 362.177 638.863 362.506C639.212 362.736 639.594 362.868 640.007 362.933C640.611 362.999 641.152 363.394 641.47 363.953L641.533 363.92Z" fill="#0F0F0F" fill-opacity="0.2"/>
<path d="M1351.25 363.92L1354.53 369.181L1352.49 363.295C1352.3 362.703 1352.3 362.013 1352.62 361.487C1352.84 361.125 1352.97 360.698 1353 360.27C1353.06 359.645 1353.45 359.086 1353.95 358.725L1359.11 355.305L1353.22 357.475C1352.65 357.673 1352.02 357.607 1351.47 357.311C1351.19 357.146 1350.9 357.048 1350.58 357.015C1349.95 356.916 1349.41 356.587 1349.06 356.029L1345.69 350.57L1347.79 356.686C1348.01 357.311 1347.91 357.968 1347.6 358.527C1347.44 358.823 1347.34 359.119 1347.28 359.448C1347.18 360.073 1346.83 360.632 1346.32 360.961L1341.08 364.446L1346.83 362.342C1347.41 362.111 1348.07 362.177 1348.58 362.506C1348.93 362.736 1349.31 362.868 1349.73 362.933C1350.33 362.999 1350.87 363.394 1351.19 363.953L1351.25 363.92Z" fill="#0F0F0F" fill-opacity="0.2"/>
<path d="M514.04 1186.75L516.583 1190.82L515.026 1186.25C514.867 1185.79 514.898 1185.27 515.121 1184.84C515.28 1184.54 515.375 1184.25 515.407 1183.92C515.471 1183.43 515.757 1183 516.138 1182.74L520.144 1180.1L515.598 1181.78C515.153 1181.95 514.676 1181.88 514.263 1181.65C514.04 1181.52 513.817 1181.45 513.563 1181.42C513.086 1181.35 512.641 1181.09 512.387 1180.66L509.78 1176.42L511.401 1181.16C511.56 1181.62 511.496 1182.14 511.274 1182.6C511.147 1182.83 511.083 1183.06 511.02 1183.33C510.924 1183.82 510.67 1184.25 510.288 1184.51L506.219 1187.21L510.702 1185.56C511.147 1185.4 511.655 1185.43 512.069 1185.69C512.355 1185.86 512.641 1185.99 512.959 1186.02C513.436 1186.09 513.849 1186.38 514.104 1186.81L514.04 1186.75Z" fill="#0F0F0F" fill-opacity="0.2"/>
<path d="M1223.76 1186.75L1226.31 1190.82L1224.75 1186.25C1224.59 1185.79 1224.62 1185.27 1224.84 1184.84C1225 1184.54 1225.1 1184.25 1225.13 1183.92C1225.19 1183.43 1225.48 1183 1225.86 1182.74L1229.87 1180.1L1225.32 1181.78C1224.88 1181.95 1224.4 1181.88 1223.99 1181.65C1223.76 1181.52 1223.54 1181.45 1223.29 1181.42C1222.81 1181.35 1222.36 1181.09 1222.11 1180.66L1219.5 1176.42L1221.12 1181.16C1221.28 1181.62 1221.22 1182.14 1221 1182.6C1220.87 1182.83 1220.81 1183.06 1220.74 1183.33C1220.65 1183.82 1220.39 1184.25 1220.01 1184.51L1215.94 1187.21L1220.42 1185.56C1220.87 1185.4 1221.38 1185.43 1221.79 1185.69C1222.08 1185.86 1222.36 1185.99 1222.68 1186.02C1223.16 1186.09 1223.57 1186.38 1223.83 1186.81L1223.76 1186.75Z" fill="#0F0F0F" fill-opacity="0.2"/>
<path d="M203.354 581.482L206.628 586.743L204.594 580.858C204.403 580.266 204.403 579.575 204.721 579.049C204.943 578.688 205.071 578.26 205.102 577.833C205.166 577.208 205.547 576.649 206.056 576.287L211.207 572.868L205.325 575.038C204.753 575.235 204.117 575.169 203.576 574.873C203.29 574.709 203.004 574.61 202.686 574.577C202.05 574.479 201.51 574.15 201.16 573.591L197.79 568.133L199.888 574.249C200.111 574.873 200.015 575.531 199.697 576.09C199.538 576.386 199.443 576.682 199.379 577.011C199.284 577.635 198.934 578.194 198.426 578.523L193.18 582.008L198.934 579.904C199.507 579.674 200.174 579.74 200.683 580.069C201.033 580.299 201.414 580.43 201.828 580.496C202.432 580.562 202.972 580.956 203.29 581.515L203.354 581.482Z" fill="#0F0F0F" fill-opacity="0.2"/>
<path d="M913.072 581.482L916.347 586.743L914.312 580.858C914.122 580.266 914.122 579.575 914.44 579.049C914.662 578.688 914.789 578.26 914.821 577.833C914.885 577.208 915.266 576.649 915.775 576.287L920.925 572.868L915.044 575.038C914.471 575.235 913.835 575.169 913.295 574.873C913.009 574.709 912.723 574.61 912.405 574.577C911.769 574.479 911.228 574.15 910.879 573.591L907.509 568.133L909.607 574.249C909.829 574.873 909.734 575.531 909.416 576.09C909.257 576.386 909.162 576.682 909.098 577.011C909.003 577.635 908.653 578.194 908.144 578.523L902.898 582.008L908.653 579.904C909.225 579.674 909.893 579.74 910.402 580.069C910.751 580.299 911.133 580.43 911.546 580.496C912.15 580.562 912.691 580.956 913.009 581.515L913.072 581.482Z" fill="#0F0F0F" fill-opacity="0.2"/>
<path d="M492.131 283.189L495.406 288.45L493.371 282.565C493.18 281.973 493.18 281.282 493.498 280.756C493.721 280.395 493.848 279.967 493.88 279.54C493.943 278.915 494.325 278.356 494.833 277.994L499.984 274.575L494.102 276.745C493.53 276.942 492.894 276.876 492.354 276.58C492.067 276.416 491.781 276.317 491.463 276.284C490.827 276.186 490.287 275.857 489.937 275.298L486.567 269.84L488.665 275.956C488.888 276.58 488.793 277.238 488.475 277.797C488.316 278.093 488.22 278.389 488.157 278.718C488.061 279.342 487.712 279.901 487.203 280.23L481.957 283.715L487.712 281.611C488.284 281.381 488.952 281.447 489.46 281.776C489.81 282.006 490.192 282.137 490.605 282.203C491.209 282.269 491.749 282.663 492.067 283.222L492.131 283.189Z" fill="#0F0F0F" fill-opacity="0.2"/>
<path d="M1201.85 283.189L1205.13 288.45L1203.09 282.565C1202.9 281.973 1202.9 281.282 1203.22 280.756C1203.44 280.395 1203.57 279.967 1203.6 279.54C1203.67 278.915 1204.05 278.356 1204.56 277.994L1209.71 274.575L1203.82 276.745C1203.25 276.942 1202.62 276.876 1202.08 276.58C1201.79 276.416 1201.5 276.317 1201.19 276.284C1200.55 276.186 1200.01 275.857 1199.66 275.298L1196.29 269.84L1198.39 275.956C1198.61 276.58 1198.52 277.238 1198.2 277.797C1198.04 278.093 1197.94 278.389 1197.88 278.718C1197.78 279.342 1197.43 279.901 1196.93 280.23L1191.68 283.715L1197.43 281.611C1198.01 281.381 1198.67 281.447 1199.18 281.776C1199.53 282.006 1199.91 282.137 1200.33 282.203C1200.93 282.269 1201.47 282.663 1201.79 283.222L1201.85 283.189Z" fill="#0F0F0F" fill-opacity="0.2"/>
<path d="M649.897 1237.58L653.171 1242.84L651.137 1236.96C650.946 1236.37 650.946 1235.68 651.264 1235.15C651.486 1234.79 651.613 1234.36 651.645 1233.93C651.709 1233.31 652.09 1232.75 652.599 1232.39L657.75 1228.97L651.868 1231.14C651.296 1231.34 650.66 1231.27 650.119 1230.97C649.833 1230.81 649.547 1230.71 649.229 1230.68C648.593 1230.58 648.053 1230.25 647.703 1229.69L644.333 1224.23L646.431 1230.35C646.654 1230.97 646.558 1231.63 646.24 1232.19C646.081 1232.49 645.986 1232.78 645.922 1233.11C645.827 1233.74 645.477 1234.3 644.969 1234.62L639.723 1238.11L645.477 1236.01C646.05 1235.78 646.717 1235.84 647.226 1236.17C647.576 1236.4 647.957 1236.53 648.37 1236.6C648.975 1236.66 649.515 1237.06 649.833 1237.62L649.897 1237.58Z" fill="#0F0F0F" fill-opacity="0.2"/>
<path d="M1359.62 1237.58L1362.89 1242.84L1360.86 1236.96C1360.66 1236.37 1360.66 1235.68 1360.98 1235.15C1361.21 1234.79 1361.33 1234.36 1361.36 1233.93C1361.43 1233.31 1361.81 1232.75 1362.32 1232.39L1367.47 1228.97L1361.59 1231.14C1361.01 1231.34 1360.38 1231.27 1359.84 1230.97C1359.55 1230.81 1359.27 1230.71 1358.95 1230.68C1358.31 1230.58 1357.77 1230.25 1357.42 1229.69L1354.05 1224.23L1356.15 1230.35C1356.37 1230.97 1356.28 1231.63 1355.96 1232.19C1355.8 1232.49 1355.7 1232.78 1355.64 1233.11C1355.55 1233.74 1355.2 1234.3 1354.69 1234.62L1349.44 1238.11L1355.2 1236.01C1355.77 1235.78 1356.44 1235.84 1356.94 1236.17C1357.29 1236.4 1357.68 1236.53 1358.09 1236.6C1358.69 1236.66 1359.23 1237.06 1359.55 1237.62L1359.62 1237.58Z" fill="#0F0F0F" fill-opacity="0.2"/>
<path d="M397.325 380.711L399.869 384.788L398.311 380.218C398.152 379.758 398.184 379.232 398.406 378.804C398.565 378.508 398.66 378.212 398.692 377.884C398.756 377.39 399.042 376.963 399.423 376.7L403.429 374.069L398.883 375.746C398.438 375.911 397.961 375.845 397.548 375.615C397.325 375.483 397.103 375.417 396.848 375.385C396.371 375.319 395.926 375.056 395.672 374.628L393.065 370.387L394.686 375.122C394.845 375.582 394.782 376.108 394.559 376.568C394.432 376.798 394.368 377.029 394.305 377.292C394.209 377.785 393.955 378.212 393.573 378.475L389.504 381.172L393.987 379.528C394.432 379.363 394.941 379.396 395.354 379.659C395.64 379.823 395.926 379.955 396.244 379.988C396.721 380.054 397.134 380.35 397.389 380.777L397.325 380.711Z" fill="#0F0F0F" fill-opacity="0.2"/>
<path d="M1107.05 380.711L1109.59 384.788L1108.03 380.218C1107.87 379.758 1107.91 379.232 1108.13 378.804C1108.29 378.508 1108.38 378.212 1108.41 377.884C1108.48 377.39 1108.76 376.963 1109.15 376.7L1113.15 374.069L1108.61 375.746C1108.16 375.911 1107.68 375.845 1107.27 375.615C1107.05 375.483 1106.83 375.417 1106.57 375.385C1106.09 375.319 1105.65 375.056 1105.39 374.628L1102.79 370.387L1104.41 375.122C1104.57 375.582 1104.5 376.108 1104.28 376.568C1104.15 376.798 1104.09 377.029 1104.03 377.292C1103.93 377.785 1103.68 378.212 1103.3 378.475L1099.23 381.172L1103.71 379.528C1104.15 379.363 1104.66 379.396 1105.08 379.659C1105.36 379.823 1105.65 379.955 1105.97 379.988C1106.44 380.054 1106.86 380.35 1107.11 380.777L1107.05 380.711Z" fill="#0F0F0F" fill-opacity="0.2"/>
<path d="M480.337 748.551L482.88 752.628L481.322 748.058C481.163 747.598 481.195 747.071 481.418 746.644C481.577 746.348 481.672 746.052 481.704 745.723C481.768 745.23 482.054 744.803 482.435 744.54L486.441 741.909L481.895 743.586C481.45 743.75 480.973 743.685 480.559 743.455C480.337 743.323 480.114 743.257 479.86 743.224C479.383 743.159 478.938 742.896 478.684 742.468L476.077 738.227L477.698 742.961C477.857 743.422 477.793 743.948 477.571 744.408C477.444 744.638 477.38 744.868 477.316 745.131C477.221 745.625 476.967 746.052 476.585 746.315L472.516 749.011L476.999 747.367C477.444 747.203 477.952 747.236 478.366 747.499C478.652 747.663 478.938 747.795 479.256 747.828C479.733 747.893 480.146 748.189 480.4 748.617L480.337 748.551Z" fill="#0F0F0F" fill-opacity="0.2"/>
<path d="M1190.06 748.551L1192.61 752.628L1191.05 748.058C1190.89 747.598 1190.92 747.071 1191.14 746.644C1191.3 746.348 1191.4 746.052 1191.43 745.723C1191.49 745.23 1191.78 744.803 1192.16 744.54L1196.17 741.909L1191.62 743.586C1191.18 743.75 1190.7 743.685 1190.29 743.455C1190.06 743.323 1189.84 743.257 1189.59 743.224C1189.11 743.159 1188.66 742.896 1188.41 742.468L1185.8 738.227L1187.42 742.961C1187.58 743.422 1187.52 743.948 1187.3 744.408C1187.17 744.638 1187.11 744.868 1187.04 745.131C1186.95 745.625 1186.69 746.052 1186.31 746.315L1182.24 749.011L1186.73 747.367C1187.17 747.203 1187.68 747.236 1188.09 747.499C1188.38 747.663 1188.66 747.795 1188.98 747.828C1189.46 747.893 1189.87 748.189 1190.13 748.617L1190.06 748.551Z" fill="#0F0F0F" fill-opacity="0.2"/>
<path d="M530.158 1249.78L533.433 1255.04L531.398 1249.15C531.208 1248.56 531.207 1247.87 531.525 1247.35C531.748 1246.98 531.875 1246.56 531.907 1246.13C531.971 1245.5 532.352 1244.95 532.861 1244.58L538.011 1241.16L532.13 1243.33C531.557 1243.53 530.921 1243.47 530.381 1243.17C530.095 1243.01 529.809 1242.91 529.491 1242.87C528.855 1242.78 528.314 1242.45 527.965 1241.89L524.594 1236.43L526.693 1242.55C526.915 1243.17 526.82 1243.83 526.502 1244.39C526.343 1244.68 526.248 1244.98 526.184 1245.31C526.089 1245.93 525.739 1246.49 525.23 1246.82L519.984 1250.31L525.739 1248.2C526.311 1247.97 526.979 1248.04 527.488 1248.37C527.837 1248.6 528.219 1248.73 528.632 1248.79C529.236 1248.86 529.777 1249.25 530.095 1249.81L530.158 1249.78Z" fill="#0F0F0F" fill-opacity="0.2"/>
<path d="M1239.88 1249.78L1243.16 1255.04L1241.12 1249.15C1240.93 1248.56 1240.93 1247.87 1241.25 1247.35C1241.47 1246.98 1241.6 1246.56 1241.63 1246.13C1241.69 1245.5 1242.07 1244.95 1242.58 1244.58L1247.73 1241.16L1241.85 1243.33C1241.28 1243.53 1240.64 1243.47 1240.1 1243.17C1239.82 1243.01 1239.53 1242.91 1239.21 1242.87C1238.58 1242.78 1238.04 1242.45 1237.69 1241.89L1234.32 1236.43L1236.42 1242.55C1236.64 1243.17 1236.54 1243.83 1236.22 1244.39C1236.07 1244.68 1235.97 1244.98 1235.91 1245.31C1235.81 1245.93 1235.46 1246.49 1234.95 1246.82L1229.71 1250.31L1235.46 1248.2C1236.03 1247.97 1236.7 1248.04 1237.21 1248.37C1237.56 1248.6 1237.94 1248.73 1238.35 1248.79C1238.96 1248.86 1239.5 1249.25 1239.82 1249.81L1239.88 1249.78Z" fill="#0F0F0F" fill-opacity="0.2"/>
<path d="M527.615 1596.71L530.89 1601.97L528.855 1596.09C528.665 1595.5 528.665 1594.81 528.982 1594.28C529.205 1593.92 529.332 1593.49 529.364 1593.06C529.428 1592.44 529.809 1591.88 530.318 1591.52L535.468 1588.1L529.587 1590.27C529.014 1590.47 528.378 1590.4 527.838 1590.1C527.552 1589.94 527.266 1589.84 526.948 1589.81C526.312 1589.71 525.771 1589.38 525.422 1588.82L522.051 1583.36L524.15 1589.48C524.372 1590.1 524.277 1590.76 523.959 1591.32C523.8 1591.62 523.705 1591.91 523.641 1592.24C523.546 1592.87 523.196 1593.42 522.687 1593.75L517.441 1597.24L523.196 1595.13C523.768 1594.9 524.436 1594.97 524.945 1595.3C525.294 1595.53 525.676 1595.66 526.089 1595.73C526.693 1595.79 527.234 1596.19 527.552 1596.75L527.615 1596.71Z" fill="#0F0F0F" fill-opacity="0.2"/>
<path d="M49.1232 614.103L52.3979 619.364L50.3631 613.479C50.1724 612.887 50.1724 612.196 50.4903 611.67C50.7128 611.309 50.84 610.881 50.8718 610.454C50.9354 609.829 51.3169 609.27 51.8256 608.908L56.9762 605.489L51.0944 607.659C50.5221 607.856 49.8862 607.79 49.3457 607.494C49.0596 607.33 48.7734 607.231 48.4555 607.199C47.8196 607.1 47.2791 606.771 46.9294 606.212L43.5593 600.754L45.6577 606.87C45.8802 607.494 45.7848 608.152 45.4669 608.711C45.3079 609.007 45.2126 609.303 45.149 609.632C45.0536 610.256 44.7039 610.815 44.1952 611.144L38.9492 614.63L44.7039 612.525C45.2761 612.295 45.9438 612.361 46.4525 612.69C46.8022 612.92 47.1838 613.051 47.5971 613.117C48.2012 613.183 48.7416 613.577 49.0596 614.136L49.1232 614.103Z" fill="#0F0F0F" fill-opacity="0.2"/>
<path d="M758.842 614.103L762.117 619.364L760.082 613.479C759.891 612.887 759.891 612.196 760.209 611.67C760.432 611.309 760.559 610.881 760.591 610.454C760.654 609.829 761.036 609.27 761.544 608.908L766.695 605.489L760.813 607.659C760.241 607.856 759.605 607.79 759.064 607.494C758.778 607.33 758.492 607.231 758.174 607.199C757.538 607.1 756.998 606.771 756.648 606.212L753.278 600.754L755.376 606.87C755.599 607.494 755.504 608.152 755.186 608.711C755.027 609.007 754.931 609.303 754.868 609.632C754.772 610.256 754.423 610.815 753.914 611.144L748.668 614.63L754.423 612.525C754.995 612.295 755.663 612.361 756.171 612.69C756.521 612.92 756.903 613.051 757.316 613.117C757.92 613.183 758.46 613.577 758.778 614.136L758.842 614.103Z" fill="#0F0F0F" fill-opacity="0.2"/>
<path d="M120.591 1301.2L123.134 1305.28L121.576 1300.71C121.417 1300.25 121.449 1299.72 121.672 1299.3C121.831 1299 121.926 1298.7 121.958 1298.38C122.021 1297.88 122.308 1297.46 122.689 1297.19L126.695 1294.56L122.149 1296.24C121.704 1296.4 121.227 1296.34 120.813 1296.11C120.591 1295.98 120.368 1295.91 120.114 1295.88C119.637 1295.81 119.192 1295.55 118.937 1295.12L116.33 1290.88L117.952 1295.61C118.111 1296.07 118.047 1296.6 117.825 1297.06C117.698 1297.29 117.634 1297.52 117.57 1297.78C117.475 1298.28 117.221 1298.7 116.839 1298.97L112.77 1301.66L117.252 1300.02C117.698 1299.86 118.206 1299.89 118.62 1300.15C118.906 1300.32 119.192 1300.45 119.51 1300.48C119.987 1300.55 120.4 1300.84 120.654 1301.27L120.591 1301.2Z" fill="#0F0F0F" fill-opacity="0.2"/>
<path d="M681.626 721.231L684.169 725.308L682.612 720.738C682.453 720.277 682.484 719.751 682.707 719.324C682.866 719.028 682.961 718.732 682.993 718.403C683.057 717.91 683.343 717.482 683.724 717.219L687.73 714.589L683.184 716.266C682.739 716.43 682.262 716.364 681.849 716.134C681.626 716.003 681.403 715.937 681.149 715.904C680.672 715.838 680.227 715.575 679.973 715.148L677.366 710.906L678.987 715.641C679.146 716.101 679.082 716.628 678.86 717.088C678.733 717.318 678.669 717.548 678.606 717.811C678.51 718.304 678.256 718.732 677.874 718.995L673.805 721.691L678.288 720.047C678.733 719.883 679.241 719.916 679.655 720.179C679.941 720.343 680.227 720.475 680.545 720.507C681.022 720.573 681.435 720.869 681.69 721.297L681.626 721.231Z" fill="#0F0F0F" fill-opacity="0.2"/>
<path d="M1391.34 721.231L1393.89 725.308L1392.33 720.738C1392.17 720.277 1392.2 719.751 1392.43 719.324C1392.58 719.028 1392.68 718.732 1392.71 718.403C1392.78 717.91 1393.06 717.482 1393.44 717.219L1397.45 714.589L1392.9 716.266C1392.46 716.43 1391.98 716.364 1391.57 716.134C1391.34 716.003 1391.12 715.937 1390.87 715.904C1390.39 715.838 1389.95 715.575 1389.69 715.148L1387.08 710.906L1388.71 715.641C1388.86 716.101 1388.8 716.628 1388.58 717.088C1388.45 717.318 1388.39 717.548 1388.32 717.811C1388.23 718.304 1387.97 718.732 1387.59 718.995L1383.52 721.691L1388.01 720.047C1388.45 719.883 1388.96 719.916 1389.37 720.179C1389.66 720.343 1389.95 720.475 1390.26 720.507C1390.74 720.573 1391.15 720.869 1391.41 721.297L1391.34 721.231Z" fill="#0F0F0F" fill-opacity="0.2"/>
<path d="M84.5712 764.36L87.1147 768.437L85.5568 763.866C85.3979 763.406 85.4297 762.88 85.6522 762.453C85.8112 762.157 85.9066 761.861 85.9384 761.532C86.0019 761.039 86.2881 760.611 86.6696 760.348L90.6756 757.718L86.1291 759.395C85.684 759.559 85.2071 759.493 84.7938 759.263C84.5712 759.132 84.3487 759.066 84.0943 759.033C83.6174 758.967 83.1723 758.704 82.918 758.277L80.3109 754.035L81.9324 758.77C82.0913 759.23 82.0277 759.756 81.8052 760.217C81.678 760.447 81.6144 760.677 81.5508 760.94C81.4555 761.433 81.2011 761.861 80.8196 762.124L76.75 764.82L81.2329 763.176C81.678 763.012 82.1867 763.044 82.6 763.307C82.8862 763.472 83.1723 763.603 83.4902 763.636C83.9671 763.702 84.3805 763.998 84.6348 764.425L84.5712 764.36Z" fill="#0F0F0F" fill-opacity="0.2"/>
<path d="M794.294 764.36L796.837 768.437L795.279 763.866C795.121 763.406 795.152 762.88 795.375 762.453C795.534 762.157 795.629 761.861 795.661 761.532C795.725 761.039 796.011 760.611 796.392 760.348L800.398 757.718L795.852 759.395C795.407 759.559 794.93 759.493 794.516 759.263C794.294 759.132 794.071 759.066 793.817 759.033C793.34 758.967 792.895 758.704 792.641 758.277L790.034 754.035L791.655 758.77C791.814 759.23 791.75 759.756 791.528 760.217C791.401 760.447 791.337 760.677 791.273 760.94C791.178 761.433 790.924 761.861 790.542 762.124L786.473 764.82L790.956 763.176C791.401 763.012 791.909 763.044 792.323 763.307C792.609 763.472 792.895 763.603 793.213 763.636C793.69 763.702 794.103 763.998 794.357 764.425L794.294 764.36Z" fill="#0F0F0F" fill-opacity="0.2"/>
<path d="M717.931 664.602L720.474 668.679L718.916 664.109C718.757 663.648 718.789 663.122 719.012 662.695C719.171 662.399 719.266 662.103 719.298 661.774C719.361 661.281 719.647 660.854 720.029 660.59L724.035 657.96L719.488 659.637C719.043 659.801 718.566 659.736 718.153 659.505C717.931 659.374 717.708 659.308 717.454 659.275C716.977 659.209 716.532 658.946 716.277 658.519L713.67 654.277L715.292 659.012C715.451 659.472 715.387 659.999 715.165 660.459C715.037 660.689 714.974 660.919 714.91 661.182C714.815 661.676 714.56 662.103 714.179 662.366L710.109 665.062L714.592 663.418C715.037 663.254 715.546 663.287 715.959 663.55C716.246 663.714 716.532 663.846 716.85 663.879C717.327 663.944 717.74 664.24 717.994 664.668L717.931 664.602Z" fill="#0F0F0F" fill-opacity="0.2"/>
<path d="M1427.65 664.602L1430.2 668.679L1428.64 664.109C1428.48 663.648 1428.51 663.122 1428.73 662.695C1428.89 662.399 1428.99 662.103 1429.02 661.774C1429.08 661.281 1429.37 660.854 1429.75 660.59L1433.76 657.96L1429.21 659.637C1428.77 659.801 1428.29 659.736 1427.88 659.505C1427.65 659.374 1427.43 659.308 1427.18 659.275C1426.7 659.209 1426.25 658.946 1426 658.519L1423.39 654.277L1425.01 659.012C1425.17 659.472 1425.11 659.999 1424.89 660.459C1424.76 660.689 1424.7 660.919 1424.63 661.182C1424.54 661.676 1424.28 662.103 1423.9 662.366L1419.83 665.062L1424.31 663.418C1424.76 663.254 1425.27 663.287 1425.68 663.55C1425.97 663.714 1426.25 663.846 1426.57 663.879C1427.05 663.944 1427.46 664.24 1427.72 664.668L1427.65 664.602Z" fill="#0F0F0F" fill-opacity="0.2"/>
<path d="M244.938 156.43L247.482 160.507L245.924 155.937C245.765 155.476 245.797 154.95 246.019 154.523C246.178 154.227 246.274 153.931 246.306 153.602C246.369 153.109 246.655 152.682 247.037 152.419L251.043 149.788L246.496 151.465C246.051 151.629 245.574 151.564 245.161 151.333C244.938 151.202 244.716 151.136 244.462 151.103C243.985 151.038 243.539 150.775 243.285 150.347L240.678 146.105L242.3 150.84C242.459 151.301 242.395 151.827 242.172 152.287C242.045 152.517 241.982 152.747 241.918 153.01C241.823 153.504 241.568 153.931 241.187 154.194L237.117 156.89L241.6 155.246C242.045 155.082 242.554 155.115 242.967 155.378C243.253 155.542 243.539 155.674 243.857 155.707C244.334 155.772 244.748 156.068 245.002 156.496L244.938 156.43Z" fill="#0F0F0F" fill-opacity="0.2"/>
<path d="M954.661 156.43L957.205 160.507L955.647 155.937C955.488 155.476 955.519 154.95 955.742 154.523C955.901 154.227 955.996 153.931 956.028 153.602C956.092 153.109 956.378 152.682 956.759 152.419L960.765 149.788L956.219 151.465C955.774 151.629 955.297 151.564 954.884 151.333C954.661 151.202 954.439 151.136 954.184 151.103C953.707 151.038 953.262 150.775 953.008 150.347L950.401 146.105L952.022 150.84C952.181 151.301 952.118 151.827 951.895 152.287C951.768 152.517 951.704 152.747 951.641 153.01C951.545 153.504 951.291 153.931 950.909 154.194L946.84 156.89L951.323 155.246C951.768 155.082 952.277 155.115 952.69 155.378C952.976 155.542 953.262 155.674 953.58 155.707C954.057 155.772 954.47 156.068 954.725 156.496L954.661 156.43Z" fill="#0F0F0F" fill-opacity="0.2"/>
<path d="M319.876 392.348L322.419 396.425L320.862 391.855C320.703 391.394 320.734 390.868 320.957 390.441C321.116 390.145 321.211 389.849 321.243 389.52C321.307 389.027 321.593 388.6 321.974 388.337L325.98 385.706L321.434 387.383C320.989 387.547 320.512 387.482 320.098 387.251C319.876 387.12 319.653 387.054 319.399 387.021C318.922 386.956 318.477 386.692 318.223 386.265L315.616 382.023L317.237 386.758C317.396 387.219 317.332 387.745 317.11 388.205C316.983 388.435 316.919 388.665 316.856 388.928C316.76 389.422 316.506 389.849 316.124 390.112L312.055 392.808L316.538 391.164C316.983 391 317.491 391.033 317.905 391.296C318.191 391.46 318.477 391.592 318.795 391.625C319.272 391.69 319.685 391.986 319.939 392.414L319.876 392.348Z" fill="#0F0F0F" fill-opacity="0.2"/>
<path d="M1029.6 392.348L1032.14 396.425L1030.58 391.855C1030.43 391.394 1030.46 390.868 1030.68 390.441C1030.84 390.145 1030.93 389.849 1030.97 389.52C1031.03 389.027 1031.32 388.6 1031.7 388.337L1035.7 385.706L1031.16 387.383C1030.71 387.547 1030.23 387.482 1029.82 387.251C1029.6 387.12 1029.38 387.054 1029.12 387.021C1028.64 386.956 1028.2 386.692 1027.95 386.265L1025.34 382.023L1026.96 386.758C1027.12 387.219 1027.06 387.745 1026.83 388.205C1026.71 388.435 1026.64 388.665 1026.58 388.928C1026.48 389.422 1026.23 389.849 1025.85 390.112L1021.78 392.808L1026.26 391.164C1026.71 391 1027.21 391.033 1027.63 391.296C1027.91 391.46 1028.2 391.592 1028.52 391.625C1028.99 391.69 1029.41 391.986 1029.66 392.414L1029.6 392.348Z" fill="#0F0F0F" fill-opacity="0.2"/>
<path d="M556.641 944.021L562.015 952.702L558.676 943.002C558.326 942.016 558.39 940.898 558.899 940.01C559.248 939.418 559.471 938.727 559.535 938.037C559.63 936.985 560.234 936.064 561.092 935.505L569.55 929.915L559.884 933.467C558.931 933.828 557.913 933.697 557.023 933.204C556.578 932.94 556.069 932.776 555.56 932.71C554.543 932.546 553.621 931.987 553.049 931.066L547.485 922.09L550.919 932.119C551.268 933.138 551.109 934.223 550.632 935.176C550.378 935.637 550.219 936.163 550.124 936.689C549.965 937.708 549.424 938.629 548.566 939.188L539.918 944.909L549.392 941.424C550.346 941.062 551.427 941.161 552.286 941.687C552.858 942.048 553.526 942.311 554.193 942.377C555.211 942.509 556.069 943.134 556.61 944.021H556.641Z" fill="#0F0F0F" fill-opacity="0.2"/>
<path d="M1266.36 944.021L1271.74 952.702L1268.4 943.002C1268.05 942.016 1268.11 940.898 1268.62 940.01C1268.97 939.418 1269.19 938.727 1269.26 938.037C1269.35 936.985 1269.96 936.064 1270.82 935.505L1279.27 929.915L1269.61 933.467C1268.65 933.828 1267.64 933.697 1266.75 933.204C1266.3 932.94 1265.79 932.776 1265.28 932.71C1264.27 932.546 1263.34 931.987 1262.77 931.066L1257.21 922.09L1260.64 932.119C1260.99 933.138 1260.83 934.223 1260.36 935.176C1260.1 935.637 1259.94 936.163 1259.85 936.689C1259.69 937.708 1259.15 938.629 1258.29 939.188L1249.64 944.909L1259.12 941.424C1260.07 941.062 1261.15 941.161 1262.01 941.687C1262.58 942.048 1263.25 942.311 1263.92 942.377C1264.93 942.509 1265.79 943.134 1266.33 944.021H1266.36Z" fill="#0F0F0F" fill-opacity="0.2"/>
<path d="M261.247 1254.94L268.655 1266.91L264.045 1253.5C263.568 1252.15 263.632 1250.6 264.363 1249.35C264.84 1248.53 265.126 1247.58 265.221 1246.63C265.38 1245.18 266.207 1243.9 267.383 1243.11L279.084 1235.35L265.698 1240.25C264.395 1240.74 262.964 1240.58 261.756 1239.88C261.12 1239.52 260.452 1239.29 259.721 1239.19C258.322 1238.96 257.019 1238.18 256.256 1236.96L248.562 1224.56L253.331 1238.44C253.808 1239.82 253.617 1241.33 252.917 1242.65C252.568 1243.3 252.345 1243.99 252.218 1244.72C251.964 1246.13 251.232 1247.38 250.056 1248.17L238.102 1256.1L251.201 1251.29C252.536 1250.8 253.998 1250.9 255.207 1251.69C256.001 1252.22 256.892 1252.54 257.845 1252.64C259.244 1252.84 260.452 1253.69 261.184 1254.91L261.247 1254.94Z" fill="#0F0F0F" fill-opacity="0.2"/>
<path d="M970.974 1254.94L978.382 1266.91L973.772 1253.5C973.295 1252.15 973.358 1250.6 974.09 1249.35C974.567 1248.53 974.853 1247.58 974.948 1246.63C975.107 1245.18 975.934 1243.9 977.11 1243.11L988.81 1235.35L975.425 1240.25C974.121 1240.74 972.691 1240.58 971.483 1239.88C970.847 1239.52 970.179 1239.29 969.448 1239.19C968.049 1238.96 966.745 1238.18 965.982 1236.96L958.288 1224.56L963.057 1238.44C963.534 1239.82 963.343 1241.33 962.644 1242.65C962.294 1243.3 962.072 1243.99 961.944 1244.72C961.69 1246.13 960.959 1247.38 959.783 1248.17L947.828 1256.1L960.927 1251.29C962.262 1250.8 963.725 1250.9 964.933 1251.69C965.728 1252.22 966.618 1252.54 967.572 1252.64C968.971 1252.84 970.179 1253.69 970.91 1254.91L970.974 1254.94Z" fill="#0F0F0F" fill-opacity="0.2"/>
<path d="M359.999 834.669L370.269 851.241L363.91 832.664C363.274 830.789 363.37 828.652 364.323 826.942C364.991 825.791 365.404 824.476 365.532 823.161C365.722 821.155 366.899 819.38 368.52 818.295L384.735 807.576L366.231 814.382C364.419 815.039 362.448 814.809 360.762 813.889C359.872 813.395 358.95 813.067 357.965 812.902C355.993 812.573 354.245 811.521 353.164 809.779L342.513 792.582L349.126 811.817C349.794 813.757 349.508 815.829 348.554 817.637C348.077 818.525 347.759 819.511 347.568 820.531C347.25 822.471 346.201 824.246 344.58 825.298L328.047 836.248L346.169 829.606C348.013 828.948 350.048 829.08 351.733 830.132C352.846 830.855 354.086 831.283 355.358 831.48C357.265 831.743 358.95 832.959 359.999 834.636V834.669Z" fill="#0F0F0F" fill-opacity="0.2"/>
<path d="M1069.72 834.669L1079.99 851.241L1073.63 832.664C1073 830.789 1073.09 828.652 1074.05 826.942C1074.71 825.791 1075.13 824.476 1075.25 823.161C1075.44 821.155 1076.62 819.38 1078.24 818.295L1094.46 807.576L1075.95 814.382C1074.14 815.039 1072.17 814.809 1070.49 813.889C1069.59 813.395 1068.67 813.067 1067.69 812.902C1065.72 812.573 1063.97 811.521 1062.89 809.779L1052.24 792.582L1058.85 811.817C1059.52 813.757 1059.23 815.829 1058.28 817.637C1057.8 818.525 1057.48 819.511 1057.29 820.531C1056.97 822.471 1055.92 824.246 1054.3 825.298L1037.77 836.248L1055.89 829.606C1057.74 828.948 1059.77 829.08 1061.46 830.132C1062.57 830.855 1063.81 831.283 1065.08 831.48C1066.99 831.743 1068.67 832.959 1069.72 834.636V834.669Z" fill="#0F0F0F" fill-opacity="0.2"/>
<path d="M707.599 181.585L715.007 193.553L710.397 180.138C709.92 178.79 709.983 177.245 710.715 175.995C711.192 175.173 711.478 174.22 711.573 173.266C711.732 171.819 712.559 170.537 713.735 169.748L725.435 161.988L712.05 166.887C710.746 167.38 709.316 167.216 708.108 166.526C707.472 166.164 706.804 165.934 706.073 165.835C704.674 165.605 703.37 164.816 702.607 163.599L694.913 151.203L699.682 165.079C700.159 166.46 699.968 167.972 699.269 169.287C698.919 169.945 698.697 170.636 698.569 171.359C698.315 172.773 697.584 174.022 696.407 174.811L684.453 182.736L697.552 177.935C698.887 177.442 700.35 177.541 701.558 178.33C702.353 178.856 703.243 179.185 704.197 179.283C705.596 179.481 706.804 180.335 707.535 181.552L707.599 181.585Z" fill="#0F0F0F" fill-opacity="0.2"/>
<path d="M1417.32 181.585L1424.73 193.553L1420.12 180.138C1419.64 178.79 1419.7 177.245 1420.43 175.995C1420.91 175.173 1421.2 174.22 1421.29 173.266C1421.45 171.819 1422.28 170.537 1423.45 169.748L1435.15 161.988L1421.77 166.887C1420.47 167.38 1419.03 167.216 1417.83 166.526C1417.19 166.164 1416.52 165.934 1415.79 165.835C1414.39 165.605 1413.09 164.816 1412.33 163.599L1404.63 151.203L1409.4 165.079C1409.88 166.46 1409.69 167.972 1408.99 169.287C1408.64 169.945 1408.42 170.636 1408.29 171.359C1408.03 172.773 1407.3 174.022 1406.13 174.811L1394.17 182.736L1407.27 177.935C1408.61 177.442 1410.07 177.541 1411.28 178.33C1412.07 178.856 1412.96 179.185 1413.92 179.283C1415.31 179.481 1416.52 180.335 1417.25 181.552L1417.32 181.585Z" fill="#0F0F0F" fill-opacity="0.2"/>
<path d="M297.681 31.2567L305.089 43.2253L300.479 29.81C300.002 28.4619 300.065 26.9165 300.797 25.667C301.274 24.845 301.56 23.8915 301.655 22.9379C301.814 21.4912 302.641 20.2088 303.817 19.4197L315.517 11.6599L302.132 16.5591C300.828 17.0523 299.398 16.8879 298.19 16.1974C297.554 15.8357 296.886 15.6055 296.155 15.5069C294.756 15.2767 293.452 14.4876 292.689 13.271L284.995 0.875L289.764 14.7506C290.241 16.1316 290.05 17.6441 289.351 18.9594C289.001 19.617 288.779 20.3075 288.652 21.0309C288.397 22.4447 287.666 23.6942 286.49 24.4833L274.535 32.4076L287.634 27.607C288.969 27.1138 290.432 27.2124 291.64 28.0016C292.435 28.5276 293.325 28.8565 294.279 28.9551C295.678 29.1524 296.886 30.0073 297.617 31.2239L297.681 31.2567Z" fill="#0F0F0F" fill-opacity="0.2"/>
<path d="M1007.41 31.2567L1014.82 43.2253L1010.21 29.81C1009.73 28.4619 1009.79 26.9165 1010.52 25.667C1011 24.845 1011.29 23.8915 1011.38 22.9379C1011.54 21.4912 1012.37 20.2088 1013.54 19.4197L1025.24 11.6599L1011.86 16.5591C1010.56 17.0523 1009.12 16.8879 1007.92 16.1974C1007.28 15.8357 1006.61 15.6055 1005.88 15.5069C1004.48 15.2767 1003.18 14.4876 1002.42 13.271L994.722 0.875L999.491 14.7506C999.968 16.1316 999.777 17.6441 999.078 18.9594C998.728 19.617 998.505 20.3075 998.378 21.0309C998.124 22.4447 997.392 23.6942 996.216 24.4833L984.262 32.4076L997.361 27.607C998.696 27.1138 1000.16 27.2124 1001.37 28.0016C1002.16 28.5276 1003.05 28.8565 1004.01 28.9551C1005.4 29.1524 1006.61 30.0073 1007.34 31.2239L1007.41 31.2567Z" fill="#0F0F0F" fill-opacity="0.2"/>
<path d="M297.681 1631.03L305.089 1643L300.479 1629.58C300.002 1628.24 300.065 1626.69 300.797 1625.44C301.274 1624.62 301.56 1623.66 301.655 1622.71C301.814 1621.26 302.641 1619.98 303.817 1619.19L315.517 1611.43L302.132 1616.33C300.828 1616.83 299.398 1616.66 298.19 1615.97C297.554 1615.61 296.886 1615.38 296.155 1615.28C294.756 1615.05 293.452 1614.26 292.689 1613.04L284.995 1600.65L289.764 1614.52C290.241 1615.91 290.05 1617.42 289.351 1618.73C289.001 1619.39 288.779 1620.08 288.652 1620.8C288.397 1622.22 287.666 1623.47 286.49 1624.26L274.535 1632.18L287.634 1627.38C288.969 1626.89 290.432 1626.99 291.64 1627.77C292.435 1628.3 293.325 1628.63 294.279 1628.73C295.678 1628.93 296.886 1629.78 297.617 1631L297.681 1631.03Z" fill="#0F0F0F" fill-opacity="0.2"/>
<path d="M1007.41 1631.03L1014.82 1643L1010.21 1629.58C1009.73 1628.24 1009.79 1626.69 1010.52 1625.44C1011 1624.62 1011.29 1623.66 1011.38 1622.71C1011.54 1621.26 1012.37 1619.98 1013.54 1619.19L1025.24 1611.43L1011.86 1616.33C1010.56 1616.83 1009.12 1616.66 1007.92 1615.97C1007.28 1615.61 1006.61 1615.38 1005.88 1615.28C1004.48 1615.05 1003.18 1614.26 1002.42 1613.04L994.722 1600.65L999.491 1614.52C999.968 1615.91 999.777 1617.42 999.078 1618.73C998.728 1619.39 998.505 1620.08 998.378 1620.8C998.124 1622.22 997.392 1623.47 996.216 1624.26L984.262 1632.18L997.361 1627.38C998.696 1626.89 1000.16 1626.99 1001.37 1627.77C1002.16 1628.3 1003.05 1628.63 1004.01 1628.73C1005.4 1628.93 1006.61 1629.78 1007.34 1631L1007.41 1631.03Z" fill="#0F0F0F" fill-opacity="0.2"/>
<path d="M153.277 658.365L161.989 672.471L156.584 656.721C156.043 655.11 156.107 653.335 156.934 651.855C157.506 650.869 157.856 649.783 157.951 648.633C158.11 646.923 159.096 645.443 160.494 644.523L174.261 635.415L158.523 641.202C156.997 641.761 155.312 641.563 153.881 640.774C153.15 640.38 152.323 640.084 151.497 639.952C149.844 639.689 148.349 638.768 147.427 637.322L138.398 622.723L143.994 639.064C144.566 640.708 144.311 642.484 143.517 643.996C143.103 644.753 142.817 645.575 142.69 646.463C142.404 648.107 141.514 649.619 140.147 650.507L126.094 659.812L141.482 654.157C143.04 653.598 144.788 653.696 146.187 654.617C147.141 655.209 148.19 655.603 149.271 655.768C150.893 655.998 152.323 657.017 153.214 658.464L153.277 658.365Z" fill="#0F0F0F" fill-opacity="0.2"/>
<path d="M863.004 658.365L871.715 672.471L866.31 656.721C865.77 655.11 865.833 653.335 866.66 651.855C867.232 650.869 867.582 649.783 867.678 648.633C867.836 646.923 868.822 645.443 870.221 644.523L883.988 635.415L868.25 641.202C866.724 641.761 865.039 641.563 863.608 640.774C862.877 640.38 862.05 640.084 861.223 639.952C859.57 639.689 858.076 638.768 857.154 637.322L848.124 622.723L853.72 639.064C854.292 640.708 854.038 642.484 853.243 643.996C852.83 644.753 852.544 645.575 852.417 646.463C852.13 648.107 851.24 649.619 849.873 650.507L835.82 659.812L851.208 654.157C852.766 653.598 854.515 653.696 855.914 654.617C856.868 655.209 857.917 655.603 858.998 655.768C860.619 655.998 862.05 657.017 862.94 658.464L863.004 658.365Z" fill="#0F0F0F" fill-opacity="0.2"/>
<path d="M419.039 217.955L427.75 232.061L422.346 216.311C421.805 214.7 421.869 212.924 422.695 211.445C423.268 210.458 423.617 209.373 423.713 208.222C423.872 206.513 424.857 205.033 426.256 204.112L440.023 195.004L424.285 200.791C422.759 201.35 421.074 201.153 419.643 200.364C418.912 199.969 418.085 199.673 417.259 199.542C415.605 199.279 414.111 198.358 413.189 196.912L404.16 182.312L409.755 198.654C410.328 200.298 410.073 202.074 409.278 203.586C408.865 204.343 408.579 205.165 408.452 206.052C408.166 207.696 407.275 209.209 405.908 210.097L391.855 219.402L407.244 213.746C408.801 213.187 410.55 213.286 411.949 214.207C412.903 214.799 413.952 215.193 415.033 215.358C416.654 215.588 418.085 216.607 418.975 218.054L419.039 217.955Z" fill="#0F0F0F" fill-opacity="0.2"/>
<path d="M1128.77 217.955L1137.48 232.061L1132.07 216.311C1131.53 214.7 1131.6 212.924 1132.42 211.445C1132.99 210.458 1133.34 209.373 1133.44 208.222C1133.6 206.513 1134.58 205.033 1135.98 204.112L1149.75 195.004L1134.01 200.791C1132.49 201.35 1130.8 201.153 1129.37 200.364C1128.64 199.969 1127.81 199.673 1126.99 199.542C1125.33 199.279 1123.84 198.358 1122.92 196.912L1113.89 182.312L1119.48 198.654C1120.05 200.298 1119.8 202.074 1119 203.586C1118.59 204.343 1118.31 205.165 1118.18 206.052C1117.89 207.696 1117 209.209 1115.63 210.097L1101.58 219.402L1116.97 213.746C1118.53 213.187 1120.28 213.286 1121.68 214.207C1122.63 214.799 1123.68 215.193 1124.76 215.358C1126.38 215.588 1127.81 216.607 1128.7 218.054L1128.77 217.955Z" fill="#0F0F0F" fill-opacity="0.2"/>
<path d="M597.848 1214.96L606.559 1229.06L601.154 1213.31C600.614 1211.7 600.677 1209.92 601.504 1208.44C602.076 1207.46 602.426 1206.37 602.521 1205.22C602.68 1203.51 603.666 1202.03 605.065 1201.11L618.831 1192L603.094 1197.79C601.567 1198.35 599.882 1198.15 598.452 1197.36C597.72 1196.97 596.894 1196.67 596.067 1196.54C594.414 1196.28 592.92 1195.36 591.998 1193.91L582.968 1179.31L588.564 1195.65C589.136 1197.3 588.882 1199.07 588.087 1200.59C587.674 1201.34 587.387 1202.16 587.26 1203.05C586.974 1204.7 586.084 1206.21 584.717 1207.1L570.664 1216.4L586.052 1210.75C587.61 1210.19 589.359 1210.29 590.758 1211.21C591.711 1211.8 592.761 1212.19 593.842 1212.36C595.463 1212.59 596.894 1213.61 597.784 1215.05L597.848 1214.96Z" fill="#0F0F0F" fill-opacity="0.2"/>
<path d="M1307.57 1214.96L1316.28 1229.06L1310.88 1213.31C1310.34 1211.7 1310.4 1209.92 1311.23 1208.44C1311.8 1207.46 1312.15 1206.37 1312.24 1205.22C1312.4 1203.51 1313.39 1202.03 1314.79 1201.11L1328.55 1192L1312.82 1197.79C1311.29 1198.35 1309.61 1198.15 1308.17 1197.36C1307.44 1196.97 1306.62 1196.67 1305.79 1196.54C1304.14 1196.28 1302.64 1195.36 1301.72 1193.91L1292.69 1179.31L1298.29 1195.65C1298.86 1197.3 1298.6 1199.07 1297.81 1200.59C1297.4 1201.34 1297.11 1202.16 1296.98 1203.05C1296.7 1204.7 1295.81 1206.21 1294.44 1207.1L1280.39 1216.4L1295.77 1210.75C1297.33 1210.19 1299.08 1210.29 1300.48 1211.21C1301.43 1211.8 1302.48 1212.19 1303.56 1212.36C1305.19 1212.59 1306.62 1213.61 1307.51 1215.05L1307.57 1214.96Z" fill="#0F0F0F" fill-opacity="0.2"/>
<path d="M426.797 1434.37L435.508 1448.48L430.103 1432.73C429.563 1431.12 429.626 1429.34 430.453 1427.86C431.025 1426.88 431.375 1425.79 431.47 1424.64C431.629 1422.93 432.615 1421.45 434.014 1420.53L447.781 1411.42L432.043 1417.21C430.517 1417.77 428.832 1417.57 427.401 1416.78C426.67 1416.39 425.843 1416.09 425.016 1415.96C423.363 1415.7 421.869 1414.78 420.947 1413.33L411.917 1398.73L417.513 1415.07C418.085 1416.72 417.831 1418.49 417.036 1420C416.623 1420.76 416.337 1421.58 416.21 1422.44C415.923 1424.08 415.033 1425.59 413.666 1426.48L399.613 1435.79L415.001 1430.13C416.559 1429.57 418.308 1429.67 419.707 1430.59C420.661 1431.18 421.71 1431.58 422.791 1431.74C424.412 1431.97 425.843 1432.99 426.733 1434.44L426.797 1434.37Z" fill="#0F0F0F" fill-opacity="0.2"/>
<path d="M1136.52 1434.37L1145.23 1448.48L1139.83 1432.73C1139.29 1431.12 1139.35 1429.34 1140.18 1427.86C1140.75 1426.88 1141.1 1425.79 1141.19 1424.64C1141.35 1422.93 1142.34 1421.45 1143.74 1420.53L1157.5 1411.42L1141.77 1417.21C1140.24 1417.77 1138.55 1417.57 1137.12 1416.78C1136.39 1416.39 1135.57 1416.09 1134.74 1415.96C1133.09 1415.7 1131.59 1414.78 1130.67 1413.33L1121.64 1398.73L1127.24 1415.07C1127.81 1416.72 1127.55 1418.49 1126.76 1420C1126.35 1420.76 1126.06 1421.58 1125.93 1422.44C1125.65 1424.08 1124.76 1425.59 1123.39 1426.48L1109.34 1435.79L1124.72 1430.13C1126.28 1429.57 1128.03 1429.67 1129.43 1430.59C1130.38 1431.18 1131.43 1431.58 1132.51 1431.74C1134.13 1431.97 1135.57 1432.99 1136.46 1434.44L1136.52 1434.37Z" fill="#0F0F0F" fill-opacity="0.2"/>
<path d="M149.207 69.4299C150.924 69.1669 156.711 81.4971 158.078 84.5222C159.477 87.5472 224.177 233.735 224.177 233.735C224.177 233.735 156.202 89.1254 154.803 86.1004C153.404 83.0754 147.459 69.6601 149.176 69.4299H149.207Z" fill="#0F0F0F" fill-opacity="0.2"/>
<path d="M858.93 69.4299C860.647 69.1669 866.433 81.4971 867.801 84.5222C869.199 87.5472 933.899 233.735 933.899 233.735C933.899 233.735 865.925 89.1254 864.526 86.1004C863.127 83.0754 857.181 69.6601 858.898 69.4299H858.93Z" fill="#0F0F0F" fill-opacity="0.2"/>
<path d="M190.442 136.5C191.65 136.302 195.561 144.687 196.514 146.758C197.468 148.83 241.439 248.228 241.439 248.228C241.439 248.228 195.179 149.948 194.257 147.876C193.303 145.805 189.265 136.697 190.474 136.532L190.442 136.5Z" fill="#0F0F0F" fill-opacity="0.2"/>
<path d="M900.168 136.5C901.376 136.302 905.287 144.687 906.241 146.758C907.195 148.83 951.165 248.228 951.165 248.228C951.165 248.228 904.906 149.948 903.984 147.876C903.03 145.805 898.992 136.697 900.2 136.532L900.168 136.5Z" fill="#0F0F0F" fill-opacity="0.2"/>
<path d="M151.657 100.367C152.865 100.169 156.775 108.554 157.729 110.625C158.683 112.697 202.654 212.095 202.654 212.095C202.654 212.095 156.394 113.815 155.472 111.743C154.518 109.672 150.48 100.564 151.688 100.4L151.657 100.367Z" fill="#0F0F0F" fill-opacity="0.2"/>
<path d="M861.379 100.367C862.587 100.169 866.498 108.554 867.452 110.625C868.406 112.697 912.376 212.095 912.376 212.095C912.376 212.095 866.117 113.815 865.194 111.743C864.241 109.672 860.203 100.564 861.411 100.4L861.379 100.367Z" fill="#0F0F0F" fill-opacity="0.2"/>
<path d="M504.086 1279.64C505.803 1279.38 511.59 1291.71 512.957 1294.74C514.356 1297.76 579.056 1443.95 579.056 1443.95C579.056 1443.95 511.081 1299.34 509.682 1296.32C508.283 1293.29 502.338 1279.87 504.055 1279.64H504.086Z" fill="#0F0F0F" fill-opacity="0.2"/>
<path d="M1213.81 1279.64C1215.53 1279.38 1221.32 1291.71 1222.68 1294.74C1224.08 1297.76 1288.78 1443.95 1288.78 1443.95C1288.78 1443.95 1220.81 1299.34 1219.41 1296.32C1218.01 1293.29 1212.06 1279.87 1213.78 1279.64H1213.81Z" fill="#0F0F0F" fill-opacity="0.2"/>
<path d="M545.321 1346.71C546.529 1346.52 550.439 1354.9 551.393 1356.97C552.347 1359.04 596.318 1458.44 596.318 1458.44C596.318 1458.44 550.058 1360.16 549.136 1358.09C548.182 1356.02 544.144 1346.91 545.352 1346.75L545.321 1346.71Z" fill="#0F0F0F" fill-opacity="0.2"/>
<path d="M1255.05 1346.71C1256.26 1346.52 1260.17 1354.9 1261.12 1356.97C1262.07 1359.04 1306.04 1458.44 1306.04 1458.44C1306.04 1458.44 1259.78 1360.16 1258.86 1358.09C1257.91 1356.02 1253.87 1346.91 1255.08 1346.75L1255.05 1346.71Z" fill="#0F0F0F" fill-opacity="0.2"/>
<path d="M506.536 1310.59C507.744 1310.39 511.654 1318.77 512.608 1320.84C513.562 1322.92 557.532 1422.31 557.532 1422.31C557.532 1422.31 511.273 1324.03 510.351 1321.96C509.397 1319.89 505.359 1310.78 506.567 1310.62L506.536 1310.59Z" fill="#0F0F0F" fill-opacity="0.2"/>
<path d="M1216.26 1310.59C1217.47 1310.39 1221.38 1318.77 1222.33 1320.84C1223.28 1322.92 1267.26 1422.31 1267.26 1422.31C1267.26 1422.31 1221 1324.03 1220.07 1321.96C1219.12 1319.89 1215.08 1310.78 1216.29 1310.62L1216.26 1310.59Z" fill="#0F0F0F" fill-opacity="0.2"/>
<path d="M519.572 418.067C520.653 415.568 519.572 408.137 519.541 406.23C519.414 407.052 516.489 380.977 528.538 357.172C538.204 333.037 562.812 311.172 562.685 313.046C563.13 311.336 538.267 331.295 527.648 356.481C514.772 380.879 516.202 410.504 516.711 409.847C516.711 411.984 518.269 420.664 519.572 418.067Z" fill="#0F0F0F" fill-opacity="0.2"/>
<path d="M1229.3 418.067C1230.38 415.568 1229.3 408.137 1229.26 406.23C1229.14 407.052 1226.21 380.977 1238.26 357.172C1247.93 333.037 1272.53 311.172 1272.41 313.046C1272.85 311.336 1247.99 331.295 1237.37 356.481C1224.49 380.879 1225.93 410.504 1226.43 409.847C1226.43 411.984 1227.99 420.664 1229.3 418.067Z" fill="#0F0F0F" fill-opacity="0.2"/>
<path d="M527.045 399.425C527.903 397.979 527.554 394.493 527.554 393.606C527.554 393.573 526.25 382.492 530.129 370.589C533.149 358.851 541.384 346.29 541.416 346.685C541.479 346.323 532.959 358.127 529.366 370.523C524.978 382.854 525.487 395.776 525.582 395.874C525.582 396.861 526.155 400.938 527.077 399.425H527.045Z" fill="#0F0F0F" fill-opacity="0.2"/>
<path d="M1236.76 399.425C1237.62 397.979 1237.27 394.493 1237.27 393.606C1237.27 393.573 1235.97 382.492 1239.85 370.589C1242.87 358.851 1251.1 346.29 1251.13 346.685C1251.2 346.323 1242.68 358.127 1239.08 370.523C1234.7 382.854 1235.21 395.776 1235.3 395.874C1235.3 396.861 1235.87 400.938 1236.8 399.425H1236.76Z" fill="#0F0F0F" fill-opacity="0.2"/>
<path d="M508.857 425.268C509.652 423.657 509.143 416.424 509.175 414.615C509.048 414.385 507.871 391.303 515.756 368.878C522.179 346.421 537.662 324.654 537.567 325.344C537.789 324.687 521.988 345.697 514.961 368.812C506.536 391.632 506.949 416.588 507.172 416.884C507.14 418.824 507.903 426.913 508.825 425.268H508.857Z" fill="#0F0F0F" fill-opacity="0.2"/>
<path d="M1218.58 425.268C1219.37 423.657 1218.87 416.424 1218.9 414.615C1218.77 414.385 1217.59 391.303 1225.48 368.878C1231.9 346.421 1247.38 324.654 1247.29 325.344C1247.51 324.687 1231.71 345.697 1224.68 368.812C1216.26 391.632 1216.67 416.588 1216.89 416.884C1216.86 418.824 1217.63 426.913 1218.55 425.268H1218.58Z" fill="#0F0F0F" fill-opacity="0.2"/>
<path d="M213.244 1349.43C212.163 1351.93 213.339 1359.36 213.371 1361.27C213.498 1360.45 216.646 1386.52 204.787 1410.43C195.344 1434.63 170.895 1456.72 170.99 1454.85C170.545 1456.56 195.281 1436.37 205.645 1411.12C218.331 1386.62 216.646 1357 216.137 1357.65C216.137 1355.52 214.484 1346.87 213.212 1349.47L213.244 1349.43Z" fill="#0F0F0F" fill-opacity="0.2"/>
<path d="M922.963 1349.43C921.882 1351.93 923.058 1359.36 923.09 1361.27C923.217 1360.45 926.365 1386.52 914.506 1410.43C905.063 1434.63 880.614 1456.72 880.709 1454.85C880.264 1456.56 904.999 1436.37 915.364 1411.12C928.05 1386.62 926.365 1357 925.856 1357.65C925.856 1355.52 924.203 1346.87 922.931 1349.47L922.963 1349.43Z" fill="#0F0F0F" fill-opacity="0.2"/>
<path d="M205.895 1368.15C205.036 1369.6 205.418 1373.12 205.45 1373.97C205.45 1374 206.817 1385.08 203.065 1397.02C200.14 1408.79 192.033 1421.42 191.969 1421.02C191.906 1421.38 200.331 1409.51 203.828 1397.09C208.12 1384.72 207.484 1371.8 207.389 1371.7C207.389 1370.71 206.785 1366.67 205.895 1368.15Z" fill="#0F0F0F" fill-opacity="0.2"/>
<path d="M915.621 1368.15C914.763 1369.6 915.144 1373.12 915.176 1373.97C915.176 1374 916.543 1385.08 912.792 1397.02C909.867 1408.79 901.759 1421.42 901.696 1421.02C901.632 1421.38 910.057 1409.51 913.555 1397.09C917.847 1384.72 917.211 1371.8 917.116 1371.7C917.116 1370.71 916.511 1366.67 915.621 1368.15Z" fill="#0F0F0F" fill-opacity="0.2"/>
<path d="M223.861 1342.14C223.067 1343.75 223.639 1350.99 223.639 1352.83C223.766 1353.06 225.133 1376.14 217.439 1398.6C211.176 1421.12 195.883 1443.02 196.01 1442.33C195.788 1442.99 211.43 1421.84 218.234 1398.66C226.468 1375.78 225.864 1350.82 225.61 1350.53C225.61 1348.59 224.815 1340.5 223.861 1342.14Z" fill="#0F0F0F" fill-opacity="0.2"/>
<path d="M933.58 1342.14C932.785 1343.75 933.358 1350.99 933.358 1352.83C933.485 1353.06 934.852 1376.14 927.158 1398.6C920.894 1421.12 905.602 1443.02 905.729 1442.33C905.506 1442.99 921.149 1421.84 927.953 1398.66C936.187 1375.78 935.583 1350.82 935.329 1350.53C935.329 1348.59 934.534 1340.5 933.58 1342.14Z" fill="#0F0F0F" fill-opacity="0.2"/>
<path d="M95.6682 910.39C93.9513 910.686 87.9423 898.488 86.5116 895.496C85.0809 892.47 17.5195 747.664 17.5195 747.664C17.5195 747.664 88.2921 890.827 89.7228 893.819C91.1535 896.844 97.3851 910.095 95.6682 910.39Z" fill="#0F0F0F" fill-opacity="0.2"/>
<path d="M805.391 910.39C803.674 910.686 797.665 898.488 796.234 895.496C794.804 892.47 727.242 747.664 727.242 747.664C727.242 747.664 798.015 890.827 799.445 893.819C800.876 896.844 807.108 910.095 805.391 910.39Z" fill="#0F0F0F" fill-opacity="0.2"/>
<path d="M53.1271 844.167C51.9189 844.397 47.8494 836.111 46.8638 834.04C45.8782 832.001 0 733.523 0 733.523C0 733.523 48.1355 830.817 49.1211 832.889C50.1067 834.927 54.3353 843.937 53.1271 844.167Z" fill="#0F0F0F" fill-opacity="0.2"/>
<path d="M762.85 844.167C761.642 844.397 757.572 836.111 756.586 834.04C755.601 832.001 709.723 733.523 709.723 733.523C709.723 733.523 757.858 830.817 758.844 832.889C759.829 834.927 764.058 843.937 762.85 844.167Z" fill="#0F0F0F" fill-opacity="0.2"/>
<path d="M92.6154 879.475C91.4072 879.706 87.3376 871.42 86.352 869.348C85.3664 867.31 39.4883 768.832 39.4883 768.832C39.4883 768.832 87.6238 866.126 88.6094 868.197C89.595 870.236 93.8235 879.245 92.6154 879.475Z" fill="#0F0F0F" fill-opacity="0.2"/>
<path d="M802.338 879.475C801.13 879.706 797.06 871.42 796.075 869.348C795.089 867.31 749.211 768.832 749.211 768.832C749.211 768.832 797.346 866.126 798.332 868.197C799.318 870.236 803.546 879.245 802.338 879.475Z" fill="#0F0F0F" fill-opacity="0.2"/>
</svg>
