<svg width="316" height="174" viewBox="0 0 316 174" fill="none" xmlns="http://www.w3.org/2000/svg">
<path  d="M292.32 35V140H273.84V42.7H281.4L221.2 109.62L220.78 103.04H311.5V117.88H206.22V104.58L268.8 35H292.32Z" fill="black"/>
<path fill="#e7e4e5" d="M188.379 117.56C192.309 119.15 196.119 120.65 199.779 122.05C185.959 140.1 161.029 146.83 139.539 136.87C118.059 126.91 107.069 103.53 111.919 81.3203C115.349 83.2103 118.959 85.1503 122.709 87.1203C126.189 88.9503 129.799 90.8003 133.509 92.6703C137.029 94.4203 140.629 96.2103 144.319 97.9903C147.869 99.7103 151.499 101.41 155.189 103.12C158.879 104.83 162.529 106.5 166.129 108.1C169.869 109.77 173.569 111.37 177.169 112.91C180.999 114.54 184.729 116.09 188.379 117.57V117.56Z" stroke="#0F0F0F" stroke-width="0.5" stroke-linecap="round" stroke-linejoin="round"/>
<path  fill="#e7e4e5" d="M166.127 108.092C169.867 109.762 173.567 111.362 177.167 112.902C165.657 131.352 150.087 141.762 139.537 136.872C128.987 131.982 126.877 113.372 133.507 92.6719C137.027 94.4219 140.627 96.2119 144.317 97.9919C147.867 99.7119 151.497 101.412 155.187 103.122C158.877 104.832 162.527 106.502 166.127 108.102V108.092Z" stroke="#0F0F0F" stroke-width="0.5" stroke-linecap="round" stroke-linejoin="round"/>
<path  fill="#e7e4e5" d="M155.198 103.118C158.888 104.828 162.538 106.498 166.138 108.098C155.888 126.978 144.808 139.318 139.558 136.878C134.308 134.448 136.558 118.018 144.338 97.9883C147.888 99.7083 151.518 101.408 155.208 103.118H155.198Z" stroke="#0F0F0F" stroke-width="0.5" stroke-linecap="round" stroke-linejoin="round"/>
<path   d="M177.177 112.909C181.007 114.539 184.737 116.089 188.387 117.569C175.657 135.729 155.477 144.259 139.547 136.879C123.617 129.499 117.087 108.579 122.717 87.1289C126.197 88.9589 129.807 90.8089 133.517 92.6789C137.037 94.4289 140.637 96.2189 144.327 97.9989C147.877 99.7189 151.507 101.419 155.197 103.129C158.887 104.839 162.537 106.509 166.137 108.109C169.877 109.779 173.577 111.379 177.177 112.919V112.909Z" stroke="#0F0F0F" stroke-width="0.5" stroke-linecap="round" stroke-linejoin="round"/>
<path  d="M188.379 117.56C192.309 119.15 196.119 120.65 199.779 122.05C185.959 140.1 161.029 146.83 139.539 136.87C118.059 126.91 107.069 103.53 111.919 81.3203C115.349 83.2103 118.959 85.1503 122.709 87.1203C126.189 88.9503 129.799 90.8003 133.509 92.6703C137.029 94.4203 140.629 96.2103 144.319 97.9903C147.869 99.7103 151.499 101.41 155.189 103.12C158.879 104.83 162.529 106.5 166.129 108.1C169.869 109.77 173.569 111.37 177.169 112.91C180.999 114.54 184.729 116.09 188.379 117.57V117.56Z" stroke="#0F0F0F" stroke-width="0.5" stroke-linecap="round" stroke-linejoin="round"/>
<path fill="#e7e4e5"  d="M205.411 112.73C204.601 114.49 203.701 116.17 202.711 117.77C199.171 116.92 195.091 115.71 190.581 114.21C191.881 112.09 193.071 109.85 194.161 107.51C195.241 105.18 196.181 102.81 196.961 100.44C197.381 99.1595 197.761 97.8895 198.101 96.5995C203.641 75.5495 197.451 54.9995 182.141 47.2695C183.151 47.7695 184.131 48.2895 185.091 48.8395C185.361 48.9995 185.641 49.1595 185.911 49.3295C186.281 49.5395 186.651 49.7695 187.011 50.0095C187.261 50.1595 187.501 50.3195 187.741 50.4795C188.931 51.2495 190.071 52.0795 191.171 52.9495C191.421 53.1495 191.681 53.3495 191.931 53.5595C191.971 53.5895 192.001 53.6095 192.031 53.6395C192.281 53.8495 192.531 54.0595 192.771 54.2695C194.091 55.4095 195.351 56.5995 196.511 57.8495C196.721 58.0695 196.921 58.2795 197.111 58.4995C197.381 58.7795 197.641 59.0795 197.901 59.3795C198.101 59.6095 198.301 59.8495 198.501 60.0895C199.541 61.3395 200.521 62.6295 201.431 63.9695C201.541 64.1395 201.651 64.3095 201.761 64.4795C201.901 64.6795 202.031 64.8895 202.171 65.0995C203.351 66.9395 204.411 68.8795 205.341 70.8695C205.511 71.2295 205.661 71.5795 205.821 71.9395C205.981 72.2895 206.131 72.6395 206.271 72.9895C206.441 73.3895 206.601 73.8095 206.761 74.2195C206.891 74.5395 207.011 74.8695 207.131 75.2095C207.531 76.3295 207.891 77.4695 208.221 78.6295C208.311 78.9795 208.411 79.3495 208.491 79.7095C208.581 80.0495 208.661 80.3895 208.751 80.7295C209.021 81.9195 209.251 83.1195 209.441 84.3295C209.491 84.6795 209.551 85.0295 209.601 85.3895C209.641 85.6695 209.671 85.9595 209.701 86.2595C209.731 86.5095 209.751 86.7495 209.781 86.9895C209.811 87.3295 209.841 87.6695 209.861 87.9995C209.951 89.0295 210.011 90.0595 210.021 91.1095C210.021 91.3795 210.021 91.6495 210.021 91.9195C210.031 92.3595 210.021 92.7895 210.001 93.2395C210.001 93.5495 209.991 93.8495 209.971 94.1595C209.961 94.5095 209.941 94.8495 209.911 95.1895C209.841 96.2095 209.751 97.2495 209.611 98.2895C209.571 98.5095 209.551 98.7495 209.501 98.9695C209.471 99.2295 209.431 99.4795 209.391 99.7495V99.7795C209.321 100.18 209.241 100.57 209.161 100.96C209.131 101.17 209.101 101.37 209.041 101.58C209.001 101.86 208.941 102.11 208.881 102.38V102.41C208.881 102.41 208.861 102.48 208.841 102.5C208.771 102.88 208.681 103.24 208.601 103.61C208.501 103.96 208.421 104.3 208.331 104.64C208.281 104.85 208.221 105.06 208.151 105.26C208.081 105.54 207.991 105.83 207.911 106.1C207.911 106.14 207.891 106.19 207.871 106.24C207.761 106.62 207.651 106.99 207.511 107.36C207.511 107.37 207.511 107.38 207.511 107.38V107.4C207.391 107.8 207.251 108.18 207.111 108.58C206.921 109.12 206.711 109.66 206.491 110.19C206.341 110.59 206.181 111 206.001 111.39C205.811 111.84 205.621 112.28 205.411 112.72V112.73Z" stroke="#0F0F0F" stroke-width="0.5" stroke-linecap="round" stroke-linejoin="round"/>
<path  d="M144.331 97.9881C147.881 99.7081 151.511 101.408 155.201 103.118L139.551 136.878C118.071 126.918 107.081 103.538 111.931 81.3281C115.361 83.2181 118.971 85.1581 122.721 87.1281C126.201 88.9581 129.811 90.8081 133.521 92.6781C137.041 94.4281 140.641 96.2181 144.331 97.9981V97.9881Z" stroke="#0F0F0F" stroke-width="0.5" stroke-linecap="round" stroke-linejoin="round"/>
<path fill="#e7e4e5"  d="M250.409 133.59C248.449 137.81 228.159 132.88 199.779 122.05C196.119 120.66 192.309 119.16 188.379 117.56C184.739 116.08 180.999 114.53 177.169 112.9C173.569 111.35 169.869 109.76 166.129 108.09C162.529 106.49 158.889 104.82 155.189 103.11C151.499 101.4 147.869 99.7004 144.319 97.9804C140.629 96.2104 137.029 94.4204 133.509 92.6604C129.789 90.7904 126.189 88.9404 122.709 87.1104C118.969 85.1404 115.359 83.2104 111.919 81.3104C85.3288 66.6604 68.4488 54.3704 70.3988 50.1504C72.3488 45.9404 92.6488 50.8604 121.029 61.6904C119.979 63.0404 119.009 64.4604 118.109 65.9604C110.199 64.0404 105.049 63.8404 104.139 65.7904C103.229 67.7404 106.709 71.5304 113.299 76.3304C115.219 77.7304 117.409 79.2204 119.829 80.7804C121.099 81.6004 122.449 82.4404 123.849 83.3004C125.289 84.1704 126.799 85.0704 128.369 85.9704C130.349 87.1204 132.439 88.2904 134.599 89.4804C135.359 89.8904 136.149 90.3104 136.939 90.7404C139.659 92.1904 142.519 93.6704 145.459 95.1404L145.539 95.1804C148.329 96.5804 151.229 97.9804 154.189 99.3904L156.439 100.43C158.629 101.44 160.789 102.43 162.929 103.37C164.499 104.05 166.049 104.74 167.589 105.39C169.009 106 170.429 106.6 171.819 107.17C174.249 108.17 176.619 109.12 178.929 110C179.589 110.26 180.249 110.52 180.889 110.76C184.169 111.99 187.279 113.11 190.229 114.1C190.339 114.13 190.469 114.18 190.589 114.21C195.099 115.71 199.179 116.92 202.719 117.77C210.639 119.69 215.779 119.89 216.679 117.95C217.579 116 214.109 112.2 207.529 107.4C207.529 107.4 207.529 107.4 207.529 107.38C207.659 107 207.779 106.62 207.889 106.26C207.909 106.21 207.939 106.16 207.929 106.12C208.009 105.84 208.099 105.56 208.169 105.28C208.239 105.08 208.299 104.87 208.349 104.66C208.439 104.31 208.519 103.97 208.619 103.63C208.709 103.26 208.789 102.89 208.859 102.52C208.869 102.49 208.879 102.47 208.879 102.43C235.489 117.09 252.359 129.4 250.409 133.61V133.59Z" stroke="#0F0F0F" stroke-width="0.5" stroke-linecap="round" stroke-linejoin="round"/>
<path fill="#e7e4e5"  d="M115.4 71.0111C114.59 72.7711 113.89 74.5411 113.3 76.3311C106.72 71.5311 103.24 67.7511 104.14 65.7911C105.04 63.8311 110.19 64.0311 118.11 65.9611C117.12 67.5711 116.22 69.2611 115.4 71.0111Z" stroke="#0F0F0F" stroke-width="0.5" stroke-linecap="round" stroke-linejoin="round"/>
<path  fill="#e7e4e5" d="M216.667 117.951C215.767 119.901 210.617 119.701 202.707 117.771C203.697 116.171 204.597 114.481 205.407 112.731C205.607 112.291 205.807 111.851 205.997 111.401C206.177 111.011 206.347 110.601 206.487 110.201C206.707 109.671 206.917 109.141 207.107 108.591C207.247 108.191 207.387 107.811 207.507 107.411C207.517 107.411 207.507 107.391 207.507 107.391C214.087 112.191 217.557 115.991 216.657 117.941L216.667 117.951Z" stroke="#0F0F0F" stroke-width="0.5" stroke-linecap="round" stroke-linejoin="round"/>
<path fill="#e7e4e5"  d="M171.667 97.0894C170.337 99.9494 168.967 102.719 167.587 105.379C166.047 104.729 164.507 104.049 162.927 103.359C160.787 102.409 158.628 101.429 156.438 100.419L181.267 46.8594C186.517 49.2894 184.267 65.7194 176.487 85.7494C176.127 86.6994 175.747 87.6494 175.357 88.6094C174.217 91.3794 172.988 94.2194 171.658 97.0794L171.667 97.0894Z" stroke="#0F0F0F" stroke-width="0.5" stroke-linecap="round" stroke-linejoin="round"/>
<path fill="#e7e4e5"  d="M181.267 46.8594L156.437 100.409L154.187 99.3694C151.217 97.9594 148.327 96.5594 145.537 95.1594L145.457 95.1194C146.587 92.3394 147.817 89.5094 149.147 86.6494C150.477 83.7894 151.847 81.0094 153.227 78.3594C153.707 77.4394 154.187 76.5394 154.677 75.6494C164.937 56.7694 176.007 44.4294 181.267 46.8694V46.8594Z" stroke="#0F0F0F" stroke-width="0.5" stroke-linecap="round" stroke-linejoin="round"/>
<path fill="#e7e4e5"  d="M181.268 46.8598C176.018 44.4298 164.938 56.7598 154.678 75.6398C154.188 76.5298 153.708 77.4298 153.228 78.3498C151.838 81.0098 150.468 83.7798 149.148 86.6398C147.828 89.4998 146.588 92.3398 145.458 95.1098C142.518 93.6398 139.658 92.1598 136.938 90.7098C136.148 90.2798 135.358 89.8598 134.598 89.4498C135.558 86.7898 136.658 84.1098 137.898 81.4298C139.138 78.7498 140.478 76.1698 141.888 73.7298C142.448 72.7398 143.038 71.7698 143.628 70.8398C155.158 52.3798 170.718 41.9698 181.268 46.8598Z" stroke="#0F0F0F" stroke-width="0.5" stroke-linecap="round" stroke-linejoin="round"/>
<path fill="#e7e4e5"  d="M181.269 46.8581C170.719 41.9681 155.159 52.3781 143.639 70.8381C143.049 71.7681 142.459 72.7381 141.899 73.7281C140.489 76.1781 139.149 78.7481 137.909 81.4281C136.669 84.1081 135.569 86.7981 134.609 89.4481C132.449 88.2581 130.369 87.0881 128.379 85.9381C126.809 85.0381 125.289 84.1381 123.859 83.2681C124.639 80.8981 125.579 78.5481 126.659 76.1981C127.739 73.8481 128.939 71.6081 130.239 69.4881C130.939 68.3381 131.669 67.2281 132.429 66.1381C144.919 48.3381 164.599 39.7881 180.389 46.4681C180.679 46.6081 180.979 46.7281 181.269 46.8681V46.8581Z" stroke="#0F0F0F" stroke-width="0.5" stroke-linecap="round" stroke-linejoin="round"/>
<path fill="#e7e4e5"  d="M180.389 46.4701C164.599 39.7901 144.919 48.3501 132.429 66.1701C131.659 67.2601 130.939 68.3701 130.239 69.5201C128.939 71.6401 127.749 73.8801 126.659 76.2301C125.569 78.5801 124.639 80.9301 123.859 83.3001C122.459 82.4401 121.109 81.6001 119.839 80.7801C117.419 79.2301 115.229 77.7401 113.309 76.3301C113.899 74.5401 114.599 72.7701 115.409 71.0101C116.219 69.2501 117.129 67.5601 118.119 65.9601C119.019 64.4701 119.999 63.0501 121.039 61.6901C134.649 43.8801 159.119 37.0901 180.389 46.4701Z" stroke="#0F0F0F" stroke-width="0.5" stroke-linecap="round" stroke-linejoin="round"/>
<path fill="#e7e4e5"  d="M115.4 71.0111C114.59 72.7711 113.89 74.5411 113.3 76.3311C106.72 71.5311 103.24 67.7511 104.14 65.7911C105.04 63.8311 110.19 64.0311 118.11 65.9611C117.12 67.5711 116.22 69.2611 115.4 71.0111Z" stroke="#0F0F0F" stroke-width="0.5" stroke-linecap="round" stroke-linejoin="round"/>
<path  fill="#e7e4e5" d="M182.908 102.301C181.668 104.981 180.328 107.551 178.918 109.991C176.618 109.111 174.238 108.161 171.808 107.161C170.418 106.581 168.998 105.981 167.578 105.381C168.958 102.721 170.328 99.9511 171.658 97.0911C172.988 94.2311 174.218 91.3911 175.358 88.6211C175.738 87.6611 176.118 86.7011 176.488 85.7611C184.268 65.7311 186.528 49.3111 181.268 46.8711C191.818 51.7611 193.938 70.3711 187.288 91.0911C186.968 92.1511 186.598 93.2211 186.208 94.2911C185.258 96.9511 184.158 99.6311 182.908 102.321V102.301Z" stroke="#0F0F0F" stroke-width="0.5" stroke-linecap="round" stroke-linejoin="round"/>
<path  fill="#e7e4e5" d="M194.158 107.509C193.078 109.849 191.878 112.089 190.578 114.209C190.458 114.179 190.338 114.129 190.218 114.099C187.268 113.109 184.148 111.989 180.878 110.759C180.238 110.509 179.588 110.259 178.918 109.999C180.328 107.549 181.668 104.989 182.908 102.309C184.148 99.6294 185.248 96.9394 186.208 94.2794C186.598 93.2094 186.968 92.1394 187.288 91.0794C193.938 70.3594 191.808 51.7494 181.268 46.8594C181.558 46.9994 181.838 47.1394 182.138 47.2694C197.438 54.9994 203.628 75.5494 198.098 96.5994C197.768 97.8894 197.388 99.1594 196.958 100.439C196.178 102.809 195.238 105.169 194.158 107.509Z" stroke="#0F0F0F" stroke-width="0.5" stroke-linecap="round" stroke-linejoin="round"/>
<path  fill="#e7e4e5" d="M216.667 117.951C215.767 119.901 210.617 119.701 202.707 117.771C203.697 116.171 204.597 114.481 205.407 112.731C205.607 112.291 205.807 111.851 205.997 111.401C206.177 111.011 206.347 110.601 206.487 110.201C206.707 109.671 206.917 109.141 207.107 108.591C207.247 108.191 207.387 107.811 207.507 107.411C207.517 107.411 207.507 107.391 207.507 107.391C214.087 112.191 217.557 115.991 216.657 117.941L216.667 117.951Z" stroke="#0F0F0F" stroke-width="0.5" stroke-linecap="round" stroke-linejoin="round"/>
<path  d="M89.32 35V140H70.84V42.7H78.4L18.2 109.62L17.78 103.04H108.5V117.88H3.22V104.58L65.8 35H89.32Z" fill="black"/>
</svg>
