<svg width="201" height="201" viewBox="0 0 201 201" fill="none" xmlns="http://www.w3.org/2000/svg">
<path d="M90.3695 1.54163L91.0716 1.46139L91.7737 1.40121L92.4758 1.34103L93.1779 1.28085L93.88 1.22067L94.5822 1.18054L95.2843 1.14042L96.0064 1.1003L96.7286 1.06018H97.4508L98.2733 1.02006H98.9553L99.6374 1H100.319H101.002H101.684H102.366H103.048L103.87 1.04012H104.592L105.315 1.1003L106.037 1.14042L106.739 1.18054L107.441 1.22067L108.143 1.28085L108.845 1.34103L109.547 1.40121L110.249 1.46139L110.952 1.54163L111.634 1.62188L112.316 1.70212L112.797 1.7623L113.499 1.84254L114.201 1.94284L114.903 2.04315L115.606 2.14345L116.308 2.24375L116.99 2.36411L117.632 2.48448L118.334 2.60484L119.036 2.7252L119.738 2.86562L120.42 3.00605L121.102 3.14647L121.884 3.30696L122.587 3.46744L123.269 3.62792L123.951 3.78841L124.633 3.94889L125.495 4.16956L126.177 4.3501L126.859 4.53065L127.542 4.71119L128.464 4.97198L129.146 5.17258L129.828 5.37319L131.473 5.89476L132.155 6.11542L132.817 6.33609L133.841 6.69718L134.523 6.9379L135.185 7.17863L136.228 7.57984L136.91 7.84063L137.572 8.10141L138.655 8.54274L139.317 8.82359L139.959 9.10444L141.062 9.58589L141.724 9.88679L143.49 10.7093L144.132 11.0302L145.255 11.5919L145.897 11.9129L147.662 12.8357L148.284 13.1767L149.428 13.8186L150.049 14.1797L151.193 14.8417L151.815 15.2028L152.958 15.9049L153.58 16.2861L154.723 17.0083L155.345 17.4095L157.091 18.593L158.816 19.8167L159.939 20.6392L160.541 21.0805L161.644 21.9431L162.226 22.4045L163.329 23.2872L163.911 23.7486L165.015 24.6714L165.576 25.1528L166.659 26.0957L167.201 26.5972L168.284 27.5801L169.328 28.5832L169.869 29.1047L170.912 30.1278L171.434 30.6494L172.457 31.6925L173.982 33.3174L174.965 34.4208L175.466 34.9825L176.429 36.1058L177.372 37.2493L177.853 37.8311L178.776 38.9946L179.237 39.5964L180.16 40.7799L181.043 41.9836L181.484 42.6054L182.347 43.8291L183.189 45.0729L183.611 45.7148L184.433 46.9786L185.235 48.2625L185.637 48.9245L186.419 50.2284L187.161 51.5524L187.542 52.2345L188.265 53.5785L188.967 54.9226L189.328 55.6247L190.01 56.9888L190.652 58.373L190.993 59.0952L191.615 60.4994L192.217 61.9036L192.517 62.6459L193.099 64.0702L193.641 65.4945L193.922 66.2568L194.443 67.7011L194.945 69.1455L195.185 69.9078L195.647 71.3722L196.088 72.8366L196.489 74.3211L196.71 75.1034L197.091 76.5879L197.452 78.0924L197.633 78.8949L197.954 80.3994L198.255 81.9039L198.395 82.7264L198.656 84.251L198.897 85.7756L199.097 87.3002L199.218 88.1227L199.398 89.6473L199.559 91.1719L199.639 92.0144L199.759 93.539L199.86 95.0636L199.9 95.9062L199.96 97.4508L200 98.9754V100.5V101.363V102.887L199.92 104.412L199.88 105.274L199.799 106.799L199.679 108.324L199.599 109.186L199.458 110.711L199.298 112.235L199.097 113.74L198.977 114.603L198.756 116.107L198.495 117.612L198.335 118.474L198.054 119.959L197.733 121.443L197.533 122.306L197.192 123.79L196.83 125.255L196.59 126.117L196.188 127.582L195.767 129.026L195.045 131.313L194.564 132.737L193.761 135.004L193.24 136.408L192.337 138.635L191.755 139.999L191.374 140.842L190.772 142.186L190.15 143.51L189.749 144.332L189.087 145.656L188.405 146.96L187.964 147.783L187.262 149.066L186.539 150.33L186.078 151.133L185.336 152.376L184.072 154.403L183.29 155.606L182.768 156.389L181.966 157.572L181.143 158.736L180.581 159.498L179.739 160.621L179.157 161.384L178.295 162.487L177.412 163.57L176.81 164.312L175.907 165.376L175.285 166.098L174.363 167.121L173.701 167.823L172.778 168.826L171.173 170.491L170.21 171.434L169.528 172.116L168.565 173.039L167.863 173.701L166.88 174.583L166.158 175.225L165.175 176.088L164.433 176.71L163.45 177.532L162.687 178.154L161.684 178.936L160.902 179.538L159.899 180.301L159.117 180.882L158.114 181.605L157.311 182.166L156.308 182.848L155.506 183.39L154.663 183.932L153.68 184.573L152.838 185.095L151.855 185.697L151.012 186.198L150.029 186.76L149.167 187.242L148.284 187.723L147.321 188.245L146.438 188.706L144.593 189.629L143.69 190.07L142.767 190.511L141.865 190.933L140.942 191.334L140.039 191.735L139.136 192.136L138.214 192.517L137.351 192.858L136.428 193.22L135.485 193.581L134.643 193.882L133.72 194.223L132.777 194.544L131.814 194.865L131.032 195.125L130.089 195.426L129.126 195.727L128.143 196.008L127.441 196.209L126.478 196.469L125.515 196.73L124.532 196.971L122.928 197.352L121.945 197.573L120.962 197.793L119.959 197.994L118.956 198.195L118.454 198.295L117.471 198.475L116.488 198.636L115.485 198.796L114.482 198.937L113.479 199.077L112.456 199.198L112.115 199.238L111.132 199.358L110.129 199.458L109.126 199.559L108.123 199.639L107.12 199.719L106.117 199.779L105.094 199.84L104.071 199.88L103.048 199.92H102.025L101.002 199.96H98.9553L97.9323 199.92L96.9092 199.88L95.8861 199.84L94.863 199.779L93.86 199.719L92.8569 199.639L91.8539 199.559L90.8509 199.458L89.8479 199.358L88.8649 199.238L88.5239 199.198L87.5008 199.077L86.4978 198.937L85.4948 198.796L84.4917 198.636L83.5088 198.475L82.5258 198.295L82.0243 198.195L81.0213 197.994L80.0182 197.793L79.0353 197.573L78.0523 197.352L76.4475 196.971L75.4645 196.73L74.5016 196.469L73.5387 196.209L72.8366 196.008L71.8536 195.727L70.8907 195.426L69.9479 195.125L69.1655 194.865L68.2026 194.544L67.2598 194.223L65.4945 193.581L64.5516 193.22L63.6288 192.858L62.7462 192.517L61.8234 192.136L60.9207 191.735L60.0179 191.334L59.0952 190.933L58.1924 190.511L57.2496 190.07L56.3469 189.629L54.5013 188.686L53.6186 188.225L52.6557 187.703L51.7731 187.221L50.9105 186.74L49.9275 186.178L49.085 185.677L48.102 185.075L47.2595 184.553L46.2765 183.911L45.434 183.37L43.6285 182.146L42.8261 181.584L41.8231 180.862L41.0407 180.281L40.0377 179.518L39.2553 178.916L38.2523 178.134L37.49 177.512L36.5071 176.69L35.7648 176.068L34.7819 175.205L34.0597 174.563L33.0767 173.681L32.3746 173.019L31.4117 172.096L30.7296 171.414L29.7667 170.471L28.8239 169.508L28.1418 168.806L27.219 167.803L26.5771 167.101L25.6543 166.078L25.0325 165.356L24.1297 164.292L22.6453 162.467L21.7827 161.364L21.2009 160.601L20.3584 159.478L18.9742 157.552L18.1718 156.368L17.6502 155.586L16.8678 154.382L16.1055 153.159L15.604 152.356L14.8618 151.113L14.4004 150.31L13.6782 149.046L12.9761 147.763L12.5348 146.94L11.8527 145.636L11.1907 144.312L10.7895 143.49L10.1676 142.146L9.56583 140.802L9.18468 139.959L8.60292 138.595L8.04123 137.211L7.7002 136.368L7.17863 134.964L6.67712 133.56L6.37621 132.697L5.89476 131.273L5.45343 129.848L5.19264 128.986L4.77137 127.542L4.37016 126.077L4.1495 125.215L3.78841 123.75L3.44738 122.266L3.24677 121.403L2.92581 119.919L2.64496 118.434L2.48448 117.571L2.22369 116.067L2.00302 114.562L1.68206 112.175L1.52157 110.651L1.38115 109.126L1.30091 108.263L1.18054 106.739L1.1003 105.214L1.06018 104.352L1 102.827V101.302V98.9152L1.04012 97.3906L1.1003 95.846L1.14042 95.0034L1.24073 93.4788L1.36109 91.9542L1.44133 91.1117L1.60181 89.5871L1.78236 88.0625L1.98296 86.5379L2.10333 85.7154L2.34405 84.1908L2.60484 82.6662L2.76532 81.8438L3.06623 80.3392L3.3872 78.8347L3.56774 78.0323L3.92883 76.5277L4.30998 75.0432L4.71119 73.5588L4.93185 72.7764L5.37318 71.312L5.83458 69.8476L6.0753 69.0853L6.57681 67.6409L7.09839 66.1966L7.37923 65.4343L7.92087 64.01L8.50262 62.5857L8.82359 61.8434L9.4254 60.4392L10.0473 59.035L11.0302 56.9286L11.7123 55.5645L12.7755 53.5183L13.4977 52.1743L14.6411 50.1682L15.4235 48.8643L16.6271 46.9184L17.4496 45.6546L17.8909 45.0127L18.7335 43.769L19.5961 42.5453L20.0374 41.9234L20.9201 40.7198L21.8428 39.5362L22.3042 38.9344L23.227 37.7709L24.6714 36.0457L25.6343 34.9223L26.1358 34.3606L27.1187 33.2573L28.1218 32.174L28.6433 31.6324L29.6664 30.5892L30.188 30.0676L31.2311 29.0446L32.836 27.54L33.8992 26.5571L34.4408 26.0555L35.5241 25.1127L36.0858 24.6313L37.1891 23.7085L37.7709 23.2471L38.8742 22.3644L40.5793 21.0605L42.2845 19.7967L43.4279 18.9943L44.0097 18.573L45.7549 17.3894L47.5002 16.266L48.1221 15.8849L49.2655 15.1828L49.8874 14.8217L51.0308 14.1597L51.6527 13.7986L52.7962 13.1567L53.418 12.8156L54.5615 12.2138L55.1834 11.8928L55.8253 11.5719L56.9487 11.0102L57.5906 10.6892L58.714 10.1676L59.3559 9.86673L60.0179 9.56583L61.1213 9.08438L61.7833 8.80353L62.4453 8.52268L63.5285 8.08135L64.1905 7.82056L64.8726 7.55978L65.9157 7.15857L66.5777 6.91784L67.2598 6.67712L68.2829 6.31603L68.9449 6.09536L69.6269 5.8747L70.6099 5.55373L71.2719 5.33306L71.9539 5.13246L72.636 4.93186L73.5588 4.67107L74.2408 4.49052L74.9229 4.30998L75.6049 4.12944L76.4675 3.90877L77.1496 3.74829L77.8317 3.5878L78.5338 3.42732L79.2359 3.26683L80.0182 3.10635L80.7003 2.96593L81.3824 2.8255L82.0845 2.68508L82.7866 2.56472L84.1507 2.32399L84.8328 2.20363L85.5349 2.10333L86.237 2.00302L86.9391 1.90272L87.6412 1.80242L88.3433 1.72218L88.8248 1.662L89.5069 1.58175L90.1889 1.50151L90.3695 1.54163ZM90.3695 1.54163H90.8108H91.2521L91.6934 1.58175L92.1348 1.64194L92.5761 1.74224L93.0375 1.8626L93.4989 2.02308L93.9603 2.20363L94.4217 2.40423L94.8831 2.64496L95.3445 2.90575L95.7858 3.18659L96.2271 3.4875L96.6484 3.80847L97.0697 4.12944L97.4909 4.47046L97.8921 4.83155L98.2933 5.2127L98.7146 5.61391L99.1559 6.0753L99.6976 6.637L100.701 7.72026L103.649 7.15857L105.234 6.87772L106.558 6.65706L107.782 6.45645L108.986 6.27591L110.189 6.11542L111.413 5.975L112.657 5.85464L113.941 5.75433L115.244 5.67409L116.568 5.63397H117.912L119.277 5.61391H120.641L122.005 5.69415L123.369 5.7744L124.733 5.8747L126.077 6.01512L127.421 6.1756L128.745 6.37621L130.069 6.59688L131.373 6.8376L132.657 7.11845L133.941 7.41936L135.205 7.74032L136.468 8.10141L137.712 8.48256L138.936 8.88377L140.16 9.3251L141.363 9.78649L142.547 10.2679L143.71 10.7895L144.874 11.3311L146.017 11.8928M135.345 7.19869L134.282 6.8376L133.199 6.49657L132.115 6.1756L131.012 5.89476L129.909 5.63397L128.785 5.39325L127.662 5.19264L126.518 5.0121L125.375 4.85161L124.211 4.73125L123.048 4.63095L121.864 4.57077L120.681 4.53065H119.477H118.274L117.07 4.57077L115.866 4.65101L114.683 4.75131L113.519 4.87167L112.376 5.0121L111.252 5.17258L110.149 5.35313L109.066 5.55373L108.003 5.7744L106.939 6.01512L105.856 6.27591L104.693 6.57681L103.308 6.9379L100.701 7.66008L98.0927 8.72329L96.6885 9.3251L95.5049 9.84667L94.4016 10.3281L93.3183 10.8296L92.2351 11.3512L91.1317 11.8928L90.0084 12.4746L88.8449 13.0965L87.6613 13.7585L86.4376 14.4606L85.1938 15.2028L83.9501 15.9852L82.6863 16.8077L81.4225 17.6502L80.1587 18.5329L78.8949 19.4356L77.631 20.3584L76.3672 21.3213L75.1235 22.3042L73.8797 23.3073L72.636 24.3303L71.4123 25.3935L70.1886 26.4768L68.9649 27.5801L67.7613 28.7035L66.5577 29.847L65.3741 31.0305L64.1905 32.2342L63.027 33.4579L61.8635 34.7016L60.7201 35.9654L59.5766 37.2493L58.4532 38.5532L57.3499 39.8772L56.2466 41.2213L55.1633 42.5854L54.1001 43.9696L53.0369 45.3738L51.9937 46.7981L50.9707 48.2424L49.9476 49.7069L48.9446 51.1913L47.9616 52.6758L46.9987 54.1803L46.0558 55.7049L45.113 57.2496L44.1902 58.7943L43.2875 60.359L42.4048 61.9437L41.5422 63.5285L40.6997 65.1334L39.8772 66.7382L39.0748 68.3631L38.2924 69.988L37.5301 71.633L36.7879 73.2779L36.0657 74.9429L35.3636 76.608L34.6815 78.273L34.0196 79.9581L33.3776 81.6431L32.7557 83.3282L32.1539 85.0334L31.5722 86.7385L31.0105 88.4437L30.4688 90.1488L29.9473 91.8539L29.4458 93.5591L28.9643 95.2642L28.523 96.9694L28.1017 98.6745L27.7005 100.38L27.3194 102.085L26.9583 103.79L26.6172 105.495L26.2963 107.2L26.0154 108.905L25.7546 110.61L25.5139 112.296L25.2932 113.981L25.0926 115.666L24.9322 117.331L24.7917 118.996L24.6714 120.661L24.5711 122.306L24.4908 123.951L24.4306 125.576V127.201L24.3905 128.805V130.41L24.4507 131.995L24.5109 133.58L24.5911 135.144L24.7115 136.689L24.8519 138.234L25.0124 139.758L25.1929 141.263L25.3935 142.767L25.6142 144.252L25.875 145.716L26.1558 147.161L26.4568 148.585L26.7777 150.009L27.1187 151.414L27.4798 152.798L27.861 154.162L28.2622 155.506L28.6835 156.83L29.1248 158.134L29.5862 159.418L30.0676 160.681L30.5692 161.925L31.0907 163.149L31.6324 164.353L32.194 165.536L32.7758 166.7L33.3776 167.843L33.9995 168.946L34.6414 170.03L35.3034 171.093L35.9855 172.136L36.6876 173.159L37.4098 174.162L38.152 175.125L38.8942 176.068L39.6565 176.991L40.4389 177.893L41.2413 178.756L42.0638 179.598L42.9063 180.421L43.7489 181.223L44.6115 181.986L45.4941 182.728L46.3768 183.45L47.2795 184.132L48.2023 184.794L49.1452 185.436L50.088 186.058L51.0509 186.64L52.0138 187.201M100.741 7.66008L103.97 7.27893L105.696 7.09839L107.14 6.95796L108.484 6.8376L109.808 6.7373L111.132 6.65706L112.476 6.59688L113.84 6.55675H115.244H116.689L118.153 6.59688L119.638 6.65706L121.142 6.7373L122.647 6.85766L124.151 6.99808L125.656 7.15857L127.14 7.35917L128.625 7.57984L130.089 7.82056L131.554 8.10141L132.998 8.40232L134.442 8.72329L135.867 9.08438L137.271 9.46552L138.675 9.86673L140.059 10.3081L141.423 10.7695L142.787 11.2509L144.132 11.7725L145.456 12.3141L146.759 12.8758L148.063 13.4576L149.347 14.0794L150.611 14.7214L151.855 15.3834L153.079 16.0654L154.282 16.7675L155.486 17.5098L156.669 18.2721L157.833 19.0544L158.976 19.8569M100.721 7.72026L104.151 7.51966L105.997 7.43942L107.541 7.37923L108.966 7.33911H110.37L111.774 7.31905H113.198L114.663 7.37923L116.167 7.43942L117.692 7.53972L119.257 7.66008L120.841 7.8005L122.446 7.98105L124.051 8.18165L125.656 8.40232L127.261 8.66311L128.866 8.94395L130.45 9.24486L132.035 9.58589L133.6 9.94698L135.144 10.3281L136.689 10.7494L138.214 11.1907L139.718 11.6521L141.223 12.1536L142.707 12.6752L144.172 13.2168L145.636 13.7986L147.08 14.4004L148.505 15.0223L149.909 15.6642L151.293 16.3262L152.677 17.0283L154.041 17.7505L155.385 18.4927L156.709 19.255L158.013 20.0374L159.297 20.8599L160.561 21.7024L161.805 22.565L163.029 23.4477L164.232 24.3504L165.416 25.2732L166.579 26.216L167.723 27.1789L168.846 28.1619L169.949 29.1649L171.033 30.188L172.096 31.2311L173.139 32.2944M100.64 7.66008H104.191L106.097 7.68014L107.702 7.72026L109.186 7.76038L110.631 7.82056L112.095 7.90081L113.579 8.00111L115.084 8.12147L116.629 8.28196L118.213 8.4625L119.838 8.68317L121.483 8.92389L123.148 9.18468L124.813 9.48558L126.478 9.80655L128.143 10.1476L129.808 10.5287L131.453 10.9299L133.098 11.3512L134.723 11.8126L136.348 12.2941L137.953 12.7956L139.538 13.3372L141.122 13.8989L142.687 14.4806L144.232 15.1025L145.776 15.7445L147.301 16.4065L148.806 17.0885L150.29 17.7906L151.775 18.5329L153.239 19.2952L154.683 20.0775L156.108 20.8799L157.512 21.7024L158.896 22.565L160.26 23.4477L161.604 24.3504L162.928 25.2732L164.232 26.216L165.516 27.1789L166.78 28.1619L168.024 29.1649L169.247 30.188L170.451 31.2311L171.634 32.2944L172.798 33.3776L173.941 34.4809L175.045 35.6043L176.128 36.7478L177.191 37.8912L178.234 39.0547L179.257 40.2383L180.24 41.4419L181.203 42.6656L182.146 43.9094L183.069 45.1531L183.952 46.4169L184.814 47.7008L185.657 48.9847L186.479 50.2886L187.262 51.6126L188.024 52.9366L188.766 54.2806L189.468 55.6448M100.64 7.66008L104.211 7.86069L106.137 8.00111L107.742 8.12147L109.226 8.24183L110.691 8.38226L112.175 8.54274L113.68 8.72329L115.204 8.94395L116.769 9.18468L118.374 9.46552L120.019 9.76643L121.684 10.1075L123.369 10.4685L125.054 10.8698L126.759 11.291L128.444 11.7324L130.129 12.2138L131.814 12.7153L133.479 13.2369L135.144 13.7986L136.789 14.3803L138.414 14.9822L140.039 15.6241L141.644 16.2861L143.249 16.9681L144.834 17.6703L146.398 18.4125L147.943 19.1748L149.488 19.9572L151.012 20.7596L152.517 21.5821L154.001 22.4246L155.466 23.3073L156.93 24.21L158.374 25.1328L159.799 26.0756L161.203 27.0385L162.587 28.0215L163.951 29.0245L165.295 30.0476L166.619 31.0907L167.923 32.1539L169.207 33.2372L170.471 34.3405L171.695 35.4639L172.898 36.6074L174.082 37.7709L175.245 38.9544L176.389 40.1581L177.512 41.3818L178.616 42.6054L179.679 43.8492L180.722 45.113L181.745 46.3969L182.748 47.6807L183.711 48.9847L184.654 50.3087L185.576 51.6527L186.459 52.9968L187.322 54.3609L188.164 55.725L188.967 57.1092L189.749 58.5134L190.511 59.9176L191.234 61.3419L191.936 62.7662L192.618 64.2106L193.26 65.6549L193.882 67.1194L194.463 68.5838L195.025 70.0482L195.547 71.5327L196.048 73.0171L196.53 74.5016L196.971 76.0061L197.392 77.5107L197.773 79.0152L198.134 80.5198L198.455 82.0444L198.756 83.569L199.017 85.0935L199.258 86.6181L199.478 88.1427M100.64 7.66008L104.151 8.06129L106.037 8.30202L107.621 8.52268L109.086 8.74335L110.53 8.96401L111.995 9.20474L113.479 9.48558L114.984 9.78649L116.528 10.1275L118.113 10.4886L119.738 10.8898L121.383 11.3311L123.048 11.7925L124.713 12.2941L126.398 12.8156L128.083 13.3573L129.748 13.939L131.413 14.5408L133.058 15.1627L134.703 15.8247L136.328 16.5068L137.953 17.2089L139.558 17.931L141.163 18.6933L142.747 19.4757L144.312 20.2781L145.877 21.1006L147.421 21.9632L148.946 22.8459L150.451 23.7486L151.955 24.6714L153.44 25.6142L154.904 26.5771L156.348 27.5601L157.773 28.5631L159.177 29.6063L160.581 30.6695L161.965 31.7527L163.329 32.856L164.673 33.9794L165.997 35.1229L167.301 36.2864L168.585 37.47L169.849 38.6535L171.093 39.8572L172.296 41.0808L173.48 42.3246L174.644 43.5884L175.787 44.8723L176.91 46.1762L178.014 47.4801L179.077 48.8041L180.12 50.1482L181.143 51.5123L182.146 52.8764L183.109 54.2606L184.052 55.6648L184.975 57.0691L185.877 58.4933L186.74 59.9176L187.583 61.362L188.405 62.8064L189.187 64.2708L189.95 65.7352L190.672 67.2197L191.374 68.7041L192.056 70.2087L192.698 71.7132L193.32 73.2177L193.902 74.7423L194.463 76.2669L195.005 77.7915L195.506 79.3362L195.988 80.8808L196.429 82.4255L196.85 83.9702L197.232 85.5148L197.593 87.0595L197.914 88.6242L198.215 90.1889L198.495 91.7536L198.736 93.3184L198.957 94.8831L199.137 96.4478L199.298 98.0125L199.418 99.5772L199.519 101.142L199.579 102.687L199.619 104.231V105.776V107.321L199.559 108.865L199.478 110.41L199.358 111.934L199.218 113.459L199.057 114.984L198.857 116.488L198.636 117.993L198.375 119.497L198.094 120.982L197.793 122.466M100.64 7.66008L104.011 8.2619L105.816 8.60292L107.341 8.90383L108.745 9.20474L110.129 9.50564L111.533 9.82661L112.958 10.1877L114.402 10.5689L115.886 10.9901L117.411 11.4515L118.976 11.953L120.56 12.4746L122.165 13.0363L123.77 13.618L125.395 14.2399L127.02 14.8819L128.625 15.5639L130.23 16.266L131.814 16.9882L133.399 17.7304L134.984 18.5128L136.549 19.3152L138.113 20.1377L139.658 20.9802L141.183 21.8629L142.707 22.7656L144.212 23.6884L145.716 24.6313L147.201 25.5942L148.665 26.5972L150.11 27.6203L151.554 28.6634L152.978 29.7266L154.382 30.8099L155.767 31.9132L157.151 33.0366L158.515 34.18L159.859 35.3436L161.183 36.5271L162.487 37.7307L163.771 38.9544L165.035 40.1982L166.278 41.462L167.502 42.7459L168.706 44.0498L169.889 45.3738L171.053 46.6978L172.196 48.0418L173.32 49.4059L174.423 50.7901L175.486 52.1743L176.529 53.5785L177.552 55.0028L178.555 56.4271L179.538 57.8715L180.481 59.3359L181.404 60.8003L182.307 62.2848L183.189 63.7693L184.032 65.2738L184.854 66.7783L185.657 68.3029L186.419 69.8275L187.161 71.3722L187.883 72.9168L188.566 74.4615L189.228 76.0262L189.869 77.5909L190.471 79.1556L191.053 80.7404L191.595 82.3252L192.116 83.91L192.618 85.4948L193.079 87.0795L193.52 88.6643L193.922 90.2491L194.303 91.8539L194.664 93.4588L194.985 95.0636L195.286 96.6684L195.547 98.2733L195.787 99.8581L195.988 101.443L196.168 103.028L196.329 104.612L196.449 106.197L196.55 107.782L196.61 109.367L196.65 110.931V112.496V114.061L196.59 115.626L196.509 117.17L196.409 118.715L196.269 120.24L196.108 121.764L195.908 123.289L195.687 124.793L195.446 126.298L195.165 127.782L194.864 129.267L194.523 130.731L194.162 132.196L193.781 133.64L193.36 135.064L192.919 136.489L192.457 137.893L191.956 139.297L191.434 140.681L190.893 142.045L190.311 143.389L189.709 144.733L189.087 146.057L188.445 147.361L187.763 148.645L187.061 149.929L186.339 151.193M100.64 7.66008L103.79 8.4625L105.475 8.90383L106.899 9.28498L108.203 9.66613L109.507 10.0473L110.811 10.4485L112.135 10.8898L113.499 11.3512L114.883 11.8527L116.308 12.3944L117.772 12.9761L119.257 13.598L120.761 14.2399L122.266 14.922L123.79 15.6241L125.315 16.3663L126.819 17.1286L128.324 17.931L129.828 18.7535L131.313 19.5961L132.797 20.4587L134.262 21.3614L135.726 22.2842L137.171 23.227L138.615 24.1899L140.039 25.1929L141.464 26.216L142.868 27.2592L144.272 28.3224L145.656 29.4056L147.02 30.509L148.384 31.6324L149.728 32.7758L151.052 33.9594L152.356 35.163L153.66 36.3867L154.944 37.6304L156.208 38.8943L157.452 40.1781L158.675 41.4821L159.899 42.786L161.103 44.11L162.286 45.454L163.45 46.8181L164.593 48.2023L165.717 49.6066L166.82 51.0108L167.903 52.4351L168.966 53.8794L170.01 55.3439L171.033 56.8083L172.036 58.2927L172.999 59.7973L173.941 61.3018L174.864 62.8264L175.767 64.351L176.65 65.8957L177.512 67.4403L178.335 69.005L179.137 70.5698L179.919 72.1545L180.682 73.7393L181.424 75.3241L182.126 76.9289L182.808 78.5338L183.47 80.1386L184.092 81.7635L184.694 83.3884L185.276 85.0133L185.817 86.6382L186.339 88.2631L186.84 89.9081L187.322 91.553L187.763 93.198L188.184 94.8429L188.566 96.4879L188.927 98.1329L189.268 99.7778L189.569 101.423L189.849 103.048L190.11 104.673L190.331 106.297L190.531 107.922L190.712 109.547L190.852 111.172L190.973 112.777L191.053 114.382L191.113 115.987L191.153 117.571V119.156V120.741L191.113 122.306L191.033 123.87L190.933 125.415L190.792 126.96L190.632 128.484L190.451 130.009L190.231 131.514L189.99 133.018L189.729 134.503L189.428 135.967L189.107 137.431L188.766 138.876L188.405 140.3L188.004 141.724L187.583 143.129L187.141 144.513L186.68 145.877L186.178 147.241L185.657 148.585L185.115 149.909L184.553 151.213L183.952 152.497L183.33 153.761L182.688 155.024L182.026 156.268L181.344 157.492L180.642 158.695L179.919 159.879L179.157 161.043L178.375 162.186L177.572 163.309L176.75 164.413L175.907 165.496L175.045 166.559L174.162 167.602L173.259 168.625L172.337 169.608M100.64 7.66008L103.469 8.62298L104.994 9.16462L106.277 9.62601L107.461 10.0673L108.624 10.5287L109.808 11.0102L111.012 11.5117L112.235 12.0533L113.499 12.6351L114.783 13.257L116.107 13.919L117.451 14.6211L118.815 15.3633L120.179 16.1256L121.543 16.928L122.928 17.7505L124.292 18.6131L125.656 19.4958L127.02 20.3985L128.364 21.3213L129.708 22.2842L131.052 23.2671L132.376 24.2702L133.7 25.2932L135.004 26.3565L136.308 27.4397L137.612 28.543L138.896 29.6664L140.16 30.8099L141.423 31.9734L142.667 33.177L143.911 34.4007L145.135 35.6445L146.338 36.9083L147.542 38.1921L148.725 39.4961L149.889 40.8201L151.052 42.1641L152.196 43.5282L153.319 44.9124L154.423 46.2966L155.526 47.7008L156.609 49.1251L157.672 50.5695L158.716 52.0339L159.739 53.5183L160.742 55.0028L161.725 56.5074L162.687 58.032L163.63 59.5566L164.553 61.1012L165.456 62.6659L166.338 64.2306L167.201 65.8154L168.044 67.4002L168.866 69.005L169.669 70.6099L170.451 72.2348L171.213 73.8597L171.955 75.5046L172.678 77.1496L173.38 78.7946L174.062 80.4596L174.704 82.1246L175.326 83.7896L175.927 85.4546L176.509 87.1397L177.071 88.8248L177.612 90.5099L178.114 92.195L178.595 93.88L179.057 95.5651L179.498 97.2502L179.899 98.9353L180.281 100.62L180.642 102.305L180.983 103.991L181.284 105.676L181.564 107.361L181.825 109.026L182.066 110.691L182.267 112.356L182.447 114.021L182.608 115.666L182.748 117.311L182.848 118.956L182.929 120.581L182.989 122.205L183.029 123.81V125.415V127L182.989 128.585L182.908 130.149L182.808 131.714L182.688 133.259L182.547 134.803L182.387 136.328L182.186 137.833L181.966 139.337L181.725 140.822L181.464 142.286L181.163 143.73L180.842 145.175L180.501 146.599L180.14 148.003L179.759 149.387L179.358 150.752L178.916 152.096L178.455 153.44L177.974 154.764L177.472 156.068L176.95 157.351L176.409 158.615L175.847 159.859L175.265 161.083L174.664 162.286L174.042 163.47L173.4 164.633L172.718 165.777L172.016 166.9L171.293 167.983L170.571 169.047L169.829 170.09L169.067 171.113L168.284 172.116L167.482 173.099L166.659 174.062L165.817 174.985L164.954 175.887L164.072 176.77L163.169 177.633L162.266 178.475L161.343 179.278L160.401 180.06L159.438 180.822L158.455 181.564L157.472 182.267M100.64 7.66008L103.088 8.78347L104.412 9.40534L105.535 9.94698L106.558 10.4685L107.581 10.9901L108.604 11.5318L109.648 12.1135L110.711 12.7153L111.814 13.3773L112.937 14.0794L114.081 14.8217L115.244 15.604L116.428 16.4065L117.612 17.249L118.815 18.1317L120.019 19.0344L121.222 19.9572L122.406 20.9201L123.59 21.903L124.773 22.906L125.937 23.9492L127.1 25.0124L128.264 26.0957L129.427 27.199L130.571 28.3424L131.714 29.5059L132.837 30.6895L133.961 31.8931L135.064 33.1168L136.168 34.3606L137.271 35.6244L138.354 36.9083L139.417 38.2323L140.481 39.5763L141.524 40.9404L142.567 42.3246L143.59 43.7288L144.613 45.1331L145.616 46.5574L146.599 48.0017L147.582 49.4661L148.545 50.9506L149.488 52.4551L150.41 53.9797L151.333 55.5043L152.236 57.049L153.119 58.6137L153.981 60.1985L154.844 61.7833L155.686 63.3881L156.509 64.9929L157.311 66.6178L158.094 68.2628L158.856 69.9078L159.598 71.5728L160.32 73.2378L161.022 74.9028L161.725 76.5879L162.407 78.273L163.069 79.9781L163.711 81.6833L164.332 83.3884L164.934 85.0935L165.516 86.8187L166.078 88.544L166.619 90.2692L167.141 91.9944L167.622 93.7196L168.084 95.4448L168.525 97.17L168.946 98.8952L169.348 100.62L169.729 102.346L170.09 104.071L170.431 105.796L170.752 107.521L171.053 109.246L171.334 110.952L171.594 112.657L171.815 114.362L172.016 116.067L172.196 117.752L172.357 119.437L172.497 121.122L172.617 122.787L172.718 124.452L172.798 126.097L172.838 127.742V129.367L172.878 130.992V132.597L172.818 134.202L172.758 135.786L172.678 137.351L172.577 138.916L172.457 140.46L172.296 141.985L172.116 143.49L171.915 144.994L171.695 146.479L171.454 147.943L171.193 149.387L170.912 150.812L170.611 152.216L170.29 153.6L169.949 154.964L169.588 156.328L169.207 157.672L168.806 158.996L168.385 160.3L167.943 161.584L167.482 162.828L167 164.052L166.499 165.255L165.977 166.439L165.436 167.602L164.874 168.746L164.292 169.869L163.691 170.972L163.089 172.056L162.467 173.099L161.825 174.122L161.163 175.125L160.481 176.108L159.779 177.051L159.077 177.974L158.354 178.876L157.612 179.759L156.85 180.602L156.068 181.424L155.285 182.226L154.483 183.009L153.66 183.751L152.838 184.473L151.995 185.175L151.133 185.837L150.27 186.479L149.387 187.101L148.485 187.683L147.582 188.245L146.659 188.786L145.736 189.288L144.794 189.769M100.64 7.66008L102.667 8.90383L103.75 9.60595L104.673 10.2078L105.515 10.7695L106.358 11.3512L107.2 11.953L108.063 12.5749L108.945 13.2369L109.848 13.9591L110.771 14.7214L111.714 15.5238L112.677 16.3663L113.66 17.249L114.643 18.1517L115.626 19.0946L116.609 20.0575L117.592 21.0605L118.574 22.0836L119.557 23.1267L120.54 24.21L121.503 25.3133L122.466 26.4367L123.429 27.5801L124.392 28.7637L125.335 29.9673L126.278 31.191L127.221 32.4348L128.143 33.6986L129.066 34.9825L129.989 36.3065L130.892 37.6505L131.794 39.0146L132.677 40.3988L133.56 41.803L134.422 43.2273L135.285 44.6717L136.127 46.1361L136.97 47.6206L137.792 49.1251L138.615 50.6296L139.417 52.1542L140.22 53.6989L141.002 55.2636L141.784 56.8484L142.547 58.4332L143.289 60.038L144.031 61.6629L144.753 63.3079L145.456 64.9528L146.158 66.6178L146.84 68.2829L147.502 69.9679L148.164 71.653L148.806 73.3582L149.428 75.0633L150.029 76.7885L150.631 78.5137L151.213 80.259L151.775 82.0042L152.316 83.7495L152.838 85.4948L153.359 87.2601L153.861 89.0254L154.342 90.7907L154.804 92.556L155.245 94.3214L155.666 96.0867L156.068 97.852L156.469 99.6173L156.85 101.383L157.211 103.148L157.552 104.913L157.873 106.679L158.174 108.444L158.455 110.209L158.716 111.975L158.956 113.72L159.177 115.465L159.378 117.21L159.578 118.936L159.759 120.661L159.919 122.386L160.06 124.091L160.18 125.796L160.28 127.481L160.36 129.166L160.421 130.831L160.461 132.496V134.141L160.481 135.766V137.391L160.441 138.996L160.381 140.581L160.3 142.166L160.22 143.73L160.12 145.275L159.999 146.8L159.859 148.304L159.698 149.809L159.518 151.293L159.317 152.758L159.097 154.202L158.856 155.626L158.615 157.03L158.354 158.415L158.074 159.779L157.773 161.123L157.452 162.447L157.111 163.751L156.75 165.035L156.388 166.278L156.007 167.502L155.606 168.706L155.185 169.889L154.744 171.053L154.302 172.196L153.841 173.299L153.359 174.383L152.858 175.446L152.356 176.489L151.835 177.492L151.293 178.475L150.752 179.438L150.19 180.381L149.608 181.284L149.006 182.166L148.404 183.029L147.783 183.851L147.161 184.654L146.519 185.436L145.857 186.178L145.195 186.901L144.513 187.583L143.831 188.245L143.129 188.887L142.426 189.488L141.704 190.07L140.962 190.612L140.22 191.133L139.457 191.635L138.695 192.096L137.933 192.538L137.15 192.939L136.368 193.32L135.566 193.681L134.763 194.002L133.941 194.303M100.64 7.66008L102.165 9.00413L102.987 9.74637L103.69 10.3883L104.332 10.9901L104.973 11.612L105.615 12.2539L106.257 12.936L106.919 13.6582L107.601 14.4205L108.304 15.2229L109.026 16.0654L109.748 16.9481L110.49 17.8709L111.232 18.8338L111.975 19.8368L112.717 20.8599L113.459 21.903L114.201 22.9863L114.944 24.0896L115.686 25.213L116.428 26.3765L117.17 27.5601L117.892 28.7637L118.615 29.9874L119.337 31.2512L120.059 32.5351L120.781 33.839L121.483 35.163L122.185 36.5071L122.887 37.8712L123.57 39.2553L124.252 40.6596L124.934 42.0839L125.616 43.5282L126.278 44.9926L126.94 46.4771L127.582 47.9817L128.224 49.5063L128.866 51.0509L129.487 52.6156L130.109 54.2004L130.711 55.8052L131.313 57.4301L131.915 59.055L132.496 60.7L133.078 62.365L133.64 64.03L134.202 65.7151L134.743 67.4203L135.285 69.1254L135.806 70.8506L136.308 72.5758L136.809 74.3211L137.291 76.0663L137.772 77.8317L138.234 79.597L138.695 81.3623L139.136 83.1477L139.558 84.9331L139.979 86.7184L140.38 88.5239L140.781 90.3293L141.163 92.1348L141.524 93.9402L141.885 95.7457L142.226 97.5511L142.547 99.3566L142.868 101.162L143.169 102.967L143.449 104.773L143.73 106.578L143.991 108.384L144.232 110.189L144.473 111.995L144.693 113.78L144.894 115.565L145.074 117.351L145.255 119.116L145.415 120.881L145.556 122.647L145.696 124.392L145.817 126.137L145.917 127.863L145.997 129.588L146.077 131.293L146.138 132.998L146.178 134.683L146.218 136.348V138.013L146.238 139.658V141.283L146.198 142.888L146.158 144.493L146.097 146.077L146.037 147.642L145.957 149.187L145.857 150.711L145.756 152.216L145.636 153.7L145.496 155.185L145.335 156.649L145.175 158.094L144.994 159.518L144.794 160.902L144.593 162.266L144.372 163.61L144.132 164.934L143.891 166.238L143.63 167.522L143.369 168.786L143.088 170.03L142.787 171.233L142.487 172.417L142.166 173.58L141.825 174.724L141.484 175.827L141.122 176.91L140.761 177.974L140.38 179.017L139.999 180.02L139.598 181.003L139.177 181.966L138.755 182.888L138.314 183.791L137.873 184.654L137.411 185.496L136.95 186.319L136.468 187.101L135.987 187.863L135.485 188.586L134.984 189.288L134.482 189.97L133.961 190.612L133.439 191.234L132.898 191.815L132.356 192.377L131.794 192.899L131.233 193.4L130.671 193.882L130.089 194.323L129.507 194.744L128.926 195.125L128.324 195.486L127.722 195.807L127.12 196.108L126.498 196.369L125.877 196.61L125.255 196.81L124.613 196.991M100.64 7.66008L101.643 9.08438L102.185 9.86673L102.646 10.5488L103.068 11.1907L103.489 11.8327L103.91 12.5147L104.332 13.2168L104.773 13.9591L105.214 14.7615L105.676 15.604L106.157 16.4867L106.639 17.4095L107.12 18.3724L107.601 19.3754L108.103 20.3985L108.604 21.4617L109.106 22.545L109.607 23.6683L110.089 24.8118L110.57 25.9753L111.052 27.1789L111.533 28.4026L112.015 29.6464L112.496 30.9102L112.978 32.1941L113.459 33.518L113.92 34.8621L114.382 36.2262L114.843 37.6104L115.305 39.0146L115.766 40.4389L116.227 41.8833L116.669 43.3477L117.11 44.8322L117.551 46.3367L117.993 47.8613L118.414 49.4059L118.835 50.9707L119.257 52.5554L119.678 54.1603L120.079 55.7852L120.48 57.4301L120.881 59.0751L121.283 60.7401L121.664 62.4252L122.045 64.1303L122.426 65.8355L122.787 67.5607L123.148 69.2859L123.509 71.0312L123.85 72.7764L124.191 74.5417L124.512 76.3071L124.833 78.0924L125.154 79.8778L125.455 81.6833L125.756 83.4887L126.057 85.2942L126.338 87.1197L126.619 88.9452L126.88 90.7707L127.14 92.5962L127.401 94.4217L127.642 96.2472L127.883 98.0927L128.103 99.9383L128.324 101.784L128.524 103.629L128.725 105.455L128.906 107.28L129.086 109.106L129.267 110.931L129.427 112.757L129.588 114.582L129.728 116.388L129.869 118.193L129.989 119.999L130.109 121.784L130.21 123.57L130.31 125.335L130.39 127.1L130.47 128.845L130.531 130.591L130.591 132.316L130.631 134.041L130.671 135.746L130.711 137.451V139.136L130.751 140.802V142.446V144.091V145.716L130.711 147.321L130.671 148.906L130.631 150.471L130.571 152.015L130.51 153.54L130.43 155.044L130.35 156.529L130.25 157.993L130.149 159.438L130.049 160.862L129.929 162.266L129.808 163.65L129.668 165.015L129.528 166.359L129.367 167.683L129.207 168.986L129.046 170.25L128.866 171.494L128.685 172.718L128.484 173.921L128.284 175.085L128.063 176.228L127.842 177.352L127.622 178.435L127.381 179.498L127.14 180.541L126.88 181.544L126.619 182.527L126.358 183.49L126.077 184.413L125.796 185.316L125.515 186.198L125.215 187.041L124.914 187.863L124.613 188.646L124.292 189.408L123.971 190.13L123.65 190.832L123.309 191.514L122.968 192.156L122.627 192.778L122.286 193.36L121.925 193.922L121.564 194.443L121.202 194.945L120.841 195.406L120.46 195.847L120.079 196.249L119.698 196.63L119.317 196.971L118.916 197.292L118.514 197.573L118.113 197.833L117.712 198.054L117.311 198.255L116.889 198.415L116.468 198.556L116.047 198.676L115.626 198.756M100.64 7.66008L101.102 9.1245L101.343 9.94698L101.543 10.6491L101.744 11.3111L101.924 11.9731L102.105 12.6551L102.305 13.3773L102.506 14.1396L102.707 14.9621L102.907 15.8247L103.128 16.7274L103.349 17.6703L103.569 18.6532L103.79 19.6763L104.011 20.7395L104.231 21.8228L104.452 22.9261L104.673 24.0696L104.893 25.2331L105.114 26.4166L105.335 27.6403L105.555 28.8841L105.776 30.1479L105.997 31.4318L106.217 32.7557L106.438 34.0998L106.659 35.4639L106.879 36.8481L107.08 38.2523L107.28 39.6766L107.481 41.121L107.682 42.5854L107.882 44.0699L108.083 45.5945L108.283 47.1391L108.484 48.6838L108.685 50.2485L108.885 51.8333L109.066 53.4381L109.246 55.063L109.427 56.708L109.607 58.373L109.788 60.038L109.969 61.7231L110.149 63.4282L110.33 65.1534L110.49 66.8786L110.651 68.6239L110.811 70.3692L110.972 72.1345L111.132 73.8998L111.293 75.6852L111.453 77.4706L111.593 79.276L111.734 81.0815L111.874 82.907L112.015 84.7325L112.155 86.558L112.275 88.3835L112.396 90.229L112.516 92.0746L112.637 93.9202L112.757 95.7657L112.877 97.6113L112.978 99.4569L113.078 101.302L113.178 103.148L113.279 104.994L113.379 106.839L113.459 108.685L113.539 110.53L113.62 112.376L113.7 114.201L113.78 116.027L113.84 117.852L113.9 119.678L113.961 121.483L114.021 123.289L114.061 125.074L114.101 126.859L114.141 128.625L114.181 130.39L114.221 132.135V133.881L114.261 135.606V137.311L114.302 139.016V140.701V142.366V144.031V145.676V147.301V148.906V150.491L114.261 152.055V153.6L114.201 155.125L114.161 156.629L114.121 158.114L114.081 159.578L114.041 161.022L114.001 162.447L113.941 163.851L113.88 165.235L113.82 166.599L113.76 167.943L113.7 169.267L113.62 170.551L113.539 171.815L113.459 173.059L113.379 174.282L113.299 175.466L113.198 176.63L113.098 177.773L112.998 178.876L112.897 179.96L112.797 181.023L112.697 182.046L112.576 183.049L112.456 184.032L112.336 184.975L112.215 185.897L112.095 186.78L111.975 187.643L111.834 188.465L111.694 189.268L111.553 190.03L111.413 190.772L111.272 191.494L111.132 192.176L110.992 192.838L110.831 193.46L110.671 194.062L110.51 194.624L110.35 195.165L110.189 195.667L110.029 196.148L109.868 196.59L109.708 197.011L109.527 197.392L109.347 197.753L109.166 198.074L108.986 198.375L108.805 198.636L108.624 198.877L108.444 199.077L108.263 199.258L108.083 199.398L107.902 199.519L107.722 199.599L107.521 199.659H107.321M100.64 7.66008L100.54 9.14456L100.44 10.6692L100.4 11.3311L100.36 12.0132L100.319 12.7153L100.279 13.4375L100.239 14.1998L100.199 15.0223L100.159 15.8849L100.099 16.7876L100.039 17.7304L99.9784 18.7134L99.9182 19.7365L99.8179 21.883L99.7176 24.1498L99.6173 26.5169L99.5572 27.7406L99.4568 30.2682L99.3967 31.5722L98.9955 42.786L97.5511 164.453L97.5912 168.525L97.6313 171.133L97.6715 173.641L97.7116 176.048V177.211L97.7918 179.458V180.541L97.852 181.605V182.628L97.9122 183.631V184.594L97.9724 185.536V186.459L98.0326 187.342L98.0727 188.204L98.1128 189.027L98.1529 189.829L98.193 190.592L98.2332 191.334L98.2733 192.036L98.3134 192.718L98.3535 193.36L98.3936 193.982L98.4338 194.564L98.4739 195.125L98.514 195.647L98.5541 196.148L98.5942 196.61L98.6344 197.051L98.6745 197.452L98.7146 197.833L98.7547 198.175L98.7948 198.495L98.835 198.776L98.8751 199.037L98.9152 199.258L98.9553 199.458L98.9955 199.619L99.0356 199.759L99.0757 199.86L99.1158 199.94L99.1559 200H99.1961M100.64 7.66008L97.2101 8.20171L95.3645 8.50262L93.8199 8.78347L92.3755 9.04425L90.9512 9.3251L89.5269 9.62601L88.0826 9.94698L86.5981 10.3081L85.0735 10.6892L83.5288 11.1105L81.944 11.5719L80.3392 12.0533L78.7143 12.5749L77.0694 13.1366L75.4244 13.7183L73.7794 14.3202L72.1345 14.9621L70.5096 15.6241L68.8847 16.3061L67.2798 17.0283L65.675 17.7706L64.0902 18.5329L62.5054 19.3152L60.9407 20.1377L59.376 20.9802L57.8313 21.8428L56.3067 22.7255L54.7822 23.6483L53.2776 24.5911L51.7931 25.554L50.3087 26.537L48.8443 27.54L47.3999 28.5631L45.9756 29.6063L44.5714 30.6695L43.1872 31.7527L41.803 32.856L40.4389 33.9794L39.0949 35.1229L37.7709 36.2864L36.4669 37.47L35.1831 38.6736L33.9193 39.8973L32.6755 41.141L31.4518 42.4048L30.2482 43.6887L29.0646 44.9926L27.9212 46.3166L26.7978 47.6406L25.6945 48.9847L24.6112 50.3488L23.548 51.733L22.5048 53.1171L21.5018 54.5214L20.5188 55.9457L19.5559 57.37L18.6131 58.8143L17.7104 60.2587L16.8277 61.7231L15.9651 63.2076L15.1426 64.692L14.3402 66.1966L13.5579 67.7011L12.8156 69.2056L12.0934 70.7302L11.3913 72.2548L10.7293 73.7995L10.0874 75.3442L9.46552 76.8888L8.88377 78.4335L8.32208 79.9982L7.8005 81.5629L7.29899 83.1276L6.8376 84.6923L6.39627 86.2571L5.975 87.8418L5.59385 89.4266L5.23276 91.0114L4.91179 92.5962L4.61089 94.181L4.3501 95.7657L4.10937 97.3505L3.90877 98.9353L3.72823 100.52L3.56774 102.105L3.44738 103.67L3.34708 105.234L3.28689 106.799L3.24677 108.364V109.928V111.493L3.30696 113.038L3.3872 114.582L3.50756 116.127L3.64798 117.652L3.80847 119.176L4.00907 120.701L4.22974 122.205L4.49052 123.71L4.77137 125.194L5.07228 126.679L5.41331 128.143L5.77439 129.608L6.1756 131.052L6.59687 132.496L7.03821 133.921L7.51966 135.345L8.02117 136.749L8.54274 138.133L9.10443 139.518L9.68619 140.882M100.64 7.66008L98.193 6.87772L96.8891 6.47651L95.7858 6.15554L94.7828 5.8747L93.7797 5.61391L92.7767 5.37319L91.7737 5.15252L90.7506 4.95192L89.6874 4.77137L88.6041 4.61089L87.5008 4.47046L86.3975 4.3501L85.2741 4.2498L84.1507 4.16956L83.0273 4.12944H81.9039H80.7805L79.6772 4.16956L78.5739 4.22974L77.4906 4.33004L76.4074 4.4504L75.3441 4.61089L74.2809 4.79143L73.2378 4.99204L72.1947 5.23276L71.1716 5.49355L70.1485 5.79446L69.1455 6.11542M100.64 7.66008L97.0697 7.78044L95.1438 7.88075L93.539 7.96099L92.0545 8.06129L90.5901 8.18165L89.1257 8.32208L87.6212 8.48256L86.0966 8.66311L84.5319 8.86371L82.927 9.10444L81.282 9.36522L79.617 9.66613L77.932 9.9871L76.2469 10.3482L74.5618 10.7293L72.8767 11.1305L71.1916 11.5719L69.5266 12.0333L67.8616 12.5147L66.2166 13.0363L64.5717 13.5779L62.9468 14.1396L61.3419 14.7414L59.7371 15.3633L58.1523 16.0052L56.5876 16.6672L55.0229 17.3694L53.4782 18.0915L51.9536 18.8338L50.4491 19.5961L48.9446 20.3985L47.4601 21.221L45.9957 22.0635L44.5513 22.9261L43.127 23.8088L41.7228 24.7115L40.3386 25.6343L38.9745 26.5771L37.6304 27.5601L36.3064 28.5631L35.0025 29.5862L33.7186 30.6293L32.4548 31.6925L31.2111 32.7758L29.9874 33.8791L28.7838 34.9825L27.6002 36.1058L26.4367 37.2493L25.3133 38.4128L24.21 39.5964L23.1267 40.8L22.0635 42.0237L21.0204 43.2674L20.0173 44.5112L19.0344 45.775L18.0715 47.0589L17.1286 48.3628L16.2259 49.6667L15.3432 50.9907L14.4806 52.3348L13.6582 53.6788L12.8557 55.0429L12.0734 56.4071L11.3311 57.7912L10.609 59.1754L9.90685 60.5796L9.24486 62.0039L8.60292 63.4282L8.00111 64.8525L7.41935 66.2969L6.85766 67.7412L6.33609 69.2056L5.83458 70.6701L5.37318 72.1345L4.93185 73.619M100.64 7.66008L97.2703 7.37923L95.4648 7.25887L93.9402 7.15857L92.536 7.09839L91.1518 7.03821L89.7676 6.99808H88.3634H86.9391L85.4747 7.03821L83.9702 7.09839L82.4456 7.17863L80.9009 7.29899L79.3362 7.43942L77.7715 7.5999L76.2068 7.8005L74.642 8.02117L73.0773 8.2619L71.5327 8.54274L69.988 8.84365L68.4634 9.16462L66.9388 9.52571L65.4343 9.90686L63.9498 10.3081L62.4653 10.7494L61.0009 11.2108L59.5565 11.6922L58.1122 12.2138L56.6879 12.7554L55.2837 13.3171L53.8995 13.8989L52.5153 14.5208L51.1512 15.1627L49.8072 15.8247L48.4832 16.5068L47.1792 17.2289L45.8954 17.9712L44.6315 18.7335L43.3878 19.5158L42.144 20.3182L40.9204 21.1407L39.7167 21.9833L38.5332 22.8459L37.3697 23.7486L36.2262 24.6714L35.1028 25.6142L33.9995 26.5771M100.64 7.66008L97.8119 7.03821L96.3074 6.71724L95.0435 6.45645L93.88 6.23579L92.7366 6.03518L91.5731 5.85464L90.4096 5.69415L89.226 5.55373L88.0023 5.43337L86.7586 5.33306L85.4948 5.25282L84.2109 5.19264H82.907L81.603 5.17258H80.2991L78.9952 5.25282L77.6912 5.33306L76.4074 5.43337L75.1235 5.57379L73.8597 5.73427L72.5959 5.93488L71.3521 6.15554L70.1284 6.39627L68.9047 6.67712L67.7011 6.97802L66.4975 7.29899L65.3139 7.66008L64.1504 8.04123L62.9869 8.44244L61.8434 8.88377L60.7201 9.34516L59.5967 9.82661M100.64 7.66008L97.511 7.19869L95.8259 6.97802L94.4217 6.79748L93.1177 6.65706L91.8339 6.53669L90.55 6.41633L89.2461 6.31603L87.9221 6.25585L86.558 6.21573H85.1738L83.7495 6.19567H82.3051L80.8608 6.27591L79.3964 6.35615L77.932 6.45645L76.4876 6.59688L75.0432 6.75736L73.5989 6.9379L72.1746 7.15857L70.7704 7.39929L69.3661 7.68014L67.982 7.98105L66.5978 8.30202L65.2337 8.66311L63.8896 9.04425L62.5456 9.44546L61.2216 9.88679L59.9176 10.3482L58.6137 10.8296L57.3298 11.3311L56.066 11.8728L54.8223 12.4345L53.5785 13.0162L52.3548 13.618L51.1512 14.26L49.9676 14.922L48.8041 15.604L47.6607 16.3061M100.64 7.66008L97.0897 8.00111L95.184 8.20171L93.5791 8.38226L92.0947 8.5628L90.6302 8.76341L89.1658 8.98407L87.6813 9.2248L86.1567 9.48558L84.592 9.78649L82.9872 10.1275L81.3623 10.4886L79.7173 10.8898L78.0523 11.3111L76.3672 11.7725L74.6822 12.2539L72.9971 12.7554L71.312 13.2971L69.647 13.8588L67.982 14.4405L66.337 15.0624L64.692 15.7043L63.0671 16.3663L61.4422 17.0684L59.8374 17.7906L58.2526 18.5329L56.6678 19.2952L55.1031 20.0976L53.5585 20.9201L52.0138 21.7626L50.4892 22.6252L48.9847 23.5079L47.5002 24.4106L46.0358 25.3534L44.5714 26.3163L43.127 27.2993L41.7027 28.3023L40.2985 29.3254L38.9143 30.3685L37.5502 31.4318L36.2061 32.515L34.8822 33.6183L33.5782 34.7417L32.2944 35.8852L31.0305 37.0487L29.7868 38.2323L28.5631 39.4359L27.3795 40.6596L26.216 41.8833L25.0726 43.127L23.9492 44.3908L22.8459 45.6747L21.7626 46.9786L20.7195 48.2826L19.6964 49.6066L18.6933 50.9506L17.7104 52.3147L16.7675 53.6788L15.8448 55.063L14.942 56.4472L14.0794 57.8514L13.2369 59.2757L12.4144 60.7L11.6321 62.1444L10.8698 63.5887L10.1476 65.0531L9.44546 66.5175L8.76341 68.002L8.12147 69.4865L7.4996 70.971L6.91784 72.4755L6.35615 73.98L5.81452 75.4846L5.313 77.0092L4.83155 78.5338L4.39022 80.0584L3.96895 81.583L3.5878 83.1076L3.22671 84.6522L2.90575 86.1969L2.60484 87.7415L2.34405 89.2862L2.10333 90.8308L1.88266 92.3755L1.70212 93.9202L1.54163 95.4648L1.42127 97.0095L1.32097 98.5541L1.26079 100.099L1.22067 101.643V103.188V104.733L1.28085 106.257L1.36109 107.782L1.48145 109.307M100.64 7.66008L97.1298 7.57984H95.2442L93.6594 7.55978H92.195L90.7506 7.5999L89.3062 7.64002L87.8418 7.7002L86.3373 7.8005L84.7926 7.92087L83.2279 8.06129L81.6231 8.24183L79.9982 8.44244L78.3532 8.68317L76.7083 8.94395L75.0633 9.2248L73.4183 9.54577L71.7734 9.88679L70.1485 10.2479L68.5236 10.6491L66.9187 11.0704L65.3139 11.5117L63.7291 11.9931L62.1644 12.4947L60.5997 13.0162L59.055 13.5779L57.5304 14.1597L56.0058 14.7615L54.5013 15.3834L53.0168 16.0454L51.5524 16.7274L50.1081 17.4295L48.6637 18.1517L47.2394 18.894L45.8352 19.6763L44.451 20.4787L43.0869 21.3012L41.7428 22.1438L40.4188 23.0064L39.1149 23.889L37.831 24.7917L36.5672 25.7145L35.3235 26.6574L34.0998 27.6203L32.8962 28.6032L31.7126 29.6063L30.5491 30.6293L29.4056 31.6725L28.2823 32.7357L27.199 33.819L26.1358 34.9223L25.0926 36.0457L24.0696 37.1891L23.0665 38.3526L22.0836 39.5362L21.1407 40.7198L20.2179 41.9234L19.3152 43.1471L18.4326 44.3908L17.59 45.6546M100.64 7.66008L98.6344 6.75736L97.5511 6.29597L96.6484 5.91482L95.8259 5.57379L95.0034 5.25282L94.1809 4.95192L93.3585 4.67107L92.5159 4.41028L91.6533 4.16956L90.7707 3.94889L89.8679 3.74829L88.9652 3.56774L88.0424 3.40726L87.1196 3.2869L86.1969 3.18659L85.2741 3.10635L84.3513 3.06623H83.4486H82.5459L81.6632 3.10635L80.7805 3.18659L79.8979 3.2869L79.0353 3.40726L78.1727 3.56774L77.3301 3.74829M100.681 7.64002L100.781 6.49657L100.841 5.91482L100.881 5.43337L100.921 5.0121L100.961 4.61089L101.002 4.22974L101.042 3.86865L101.082 3.50756L101.122 3.16653L101.162 2.84556L101.202 2.54466L101.242 2.26381L101.282 2.00302L101.322 1.78236L101.363 1.58175L101.403 1.40121L101.443 1.26079L101.483 1.14042L101.523 1.06018L101.563 1H101.603M100.54 7.61996L101.202 6.51663L101.563 5.93488L101.864 5.47349L102.145 5.05222L102.406 4.65101L102.667 4.26986L102.947 3.90877L103.228 3.56774L103.509 3.24677L103.81 2.94587L104.111 2.66502L104.412 2.40423L104.713 2.16351L105.014 1.94284L105.315 1.74224L105.615 1.58175L105.916 1.44133L106.217 1.34103L106.518 1.26079L106.819 1.22067H107.1H107.381M100.56 7.66008L101.764 6.59688L102.406 6.05524L102.947 5.61391L103.449 5.2127L103.93 4.83155L104.412 4.47046L104.913 4.12944L105.415 3.80847L105.936 3.50756L106.458 3.22671L107 2.96593L107.541 2.7252L108.083 2.50454L108.624 2.30393L109.166 2.14345L109.708 2.00302L110.249 1.88266L110.791 1.80242L111.333 1.74224H111.854H112.376L112.897 1.78236L113.419 1.84254M100.5 7.66008L102.687 6.79748L103.85 6.35615L104.833 5.99506L105.736 5.67409L106.618 5.37319L107.501 5.09234L108.404 4.83155L109.327 4.59083L110.269 4.37016L111.232 4.16956L112.215 3.98901L113.198 3.82853L114.201 3.6881L115.204 3.5878L116.207 3.50756L117.21 3.44738H118.213L119.196 3.42732L120.179 3.46744L121.142 3.52762L122.105 3.62792L123.068 3.74829L124.011 3.88871L124.954 4.06925L125.877 4.26986L126.799 4.49052M100.52 7.61996L102.225 6.637L103.148 6.13548L103.91 5.73427L104.612 5.37319L105.315 5.03216L106.017 4.71119L106.719 4.41028L107.441 4.12944L108.183 3.86865L108.945 3.62792L109.708 3.40726L110.49 3.20665L111.272 3.02611L112.055 2.86562L112.837 2.7252L113.62 2.6249L114.402 2.54466L115.164 2.50454H115.927H116.689L117.431 2.54466L118.173 2.60484L118.916 2.70514L119.638 2.8255M90.891 199.539L90.6102 199.498L90.3293 199.438L90.0485 199.338L89.7676 199.218L89.4868 199.057L89.2059 198.877L88.9452 198.656L88.6844 198.415L88.4236 198.154L88.1628 197.854L87.902 197.533L87.6412 197.171L87.3804 196.79L87.1397 196.369L86.899 195.928L86.6583 195.446L86.4175 194.945L86.1768 194.403L85.9361 193.841L85.7154 193.24L85.4948 192.618L85.2741 191.956L85.0534 191.274L84.8328 190.552L84.6322 189.809L84.4315 189.027L84.2309 188.225L84.0303 187.382L83.8297 186.519L83.6492 185.637L83.4686 184.714L83.2881 183.771L83.1076 182.788L82.9471 181.785L82.7866 180.762L82.6261 179.699L82.4656 178.616L82.3252 177.512L82.1848 176.369L82.0444 175.205L81.9039 174.022L81.7836 172.798L81.6632 171.554L81.5428 170.29L81.4425 169.007L81.3422 167.683L81.2419 166.339L81.1416 164.974L81.0614 163.59L80.9811 162.186L80.9009 160.762L80.8407 159.317L80.7805 157.853L80.7204 156.368L80.6802 154.864L80.6401 153.339L80.6 151.795L80.5599 150.23V148.645L80.5198 147.04V145.415V143.77V142.105V140.44V138.755L80.5599 137.05V135.345L80.6201 133.62L80.6602 131.875L80.7003 130.129L80.7605 128.364L80.8207 126.599L80.8808 124.813L80.9611 123.028L81.0413 121.222L81.1216 119.417L81.2018 117.612L81.3021 115.786L81.4024 113.961L81.5027 112.135L81.6231 110.31L81.7434 108.464L81.8638 106.618L82.0042 104.773L82.1447 102.927L82.2851 101.082L82.4255 99.2362L82.586 97.3906L82.7465 95.5451L82.907 93.6995L83.0875 91.8539L83.268 90.0084L83.4486 88.1829L83.6291 86.3574L83.8297 84.5319L84.0303 82.7064L84.2309 80.9009L84.4315 79.0955L84.6522 77.29L84.8729 75.5046L85.0935 73.7193L85.3142 71.9539L85.5549 70.1886L85.7957 68.4433L86.0364 66.6981L86.2771 64.9729L86.5379 63.2677L86.7987 61.5626L87.0595 59.8775L87.3203 58.2125L87.581 56.5675L87.8619 54.9226L88.1427 53.2977L88.4236 51.6928L88.7044 50.1081L88.9853 48.5433L89.2661 46.9987L89.567 45.4741L89.8679 43.9696L90.1688 42.4851L90.4698 41.0207L90.7707 39.5763L91.0716 38.152L91.3725 36.7478L91.6734 35.3636L91.9943 33.9995L92.3153 32.6755L92.6363 31.3716L92.9572 30.0877L93.2782 28.8239L93.5992 27.5801L93.9202 26.3765L94.2411 25.1929L94.5621 24.0294L94.8831 22.906L95.204 21.8027L95.525 20.7195L95.846 19.6763L96.1669 18.6532L96.4879 17.6703L96.8089 16.7274L97.1298 15.8247L97.4307 14.9621L97.7316 14.1597L98.0326 13.3974L98.3134 12.6752L98.5942 11.9931L98.8751 11.3311L99.1559 10.6692L99.4568 9.9871L99.8179 9.18468L100.48 7.72026L97.511 8.62298L95.9262 9.1245L94.5822 9.56583L93.3384 9.9871L92.1147 10.4284L90.891 10.8898L89.6473 11.3713L88.3634 11.8928L87.0394 12.4545L85.6954 13.0564L84.3112 13.6983L82.907 14.3603L81.4827 15.0624L80.0584 15.8046L78.6341 16.5669L77.2098 17.3694L75.7855 18.1918L74.3612 19.0344L72.9369 19.917L71.5327 20.8198L70.1284 21.7425L68.7442 22.6854L67.3601 23.6683L65.9759 24.6714L64.6118 25.6945L63.2477 26.7376L61.9036 27.8008L60.5596 28.9041L59.2356 30.0275L57.9316 31.171L56.6277 32.3345L55.3438 33.518L54.06 34.7217L52.7962 35.9454L51.5524 37.1891L50.3287 38.4529L49.105 39.7368L47.9014 41.0407L46.7178 42.3647L45.5543 43.7088L44.4109 45.0729L43.2674 46.4571L42.144 47.8613L41.0407 49.2856L39.9575 50.7099L38.8942 52.1542L37.8511 53.6186L36.828 55.1031L35.825 56.5876L34.842 58.0921L33.8791 59.6167L32.9363 61.1413L32.0135 62.686L31.1108 64.2306L30.2281 65.7954L29.3655 67.3801L28.523 68.9649L27.7005 70.5698L26.9181 72.1746L26.1558 73.7794L25.4136 75.4043L24.6914 77.0292L23.9893 78.6541L23.3073 80.2991L22.6653 81.9441L22.0434 83.589L21.4416 85.234L20.8599 86.899L20.3182 88.564L19.7967 90.229L19.2952 91.8941L18.8137 93.5591L18.3724 95.2241L17.9511 96.8891L17.5499 98.5541L17.1687 100.219L16.8277 101.884L16.5068 103.549L16.2058 105.214L15.9451 106.879L15.7043 108.524L15.4837 110.169L15.3031 111.814L15.1426 113.459L15.0022 115.084L14.9019 116.709L14.8217 118.334L14.7615 119.939L14.7214 121.543V123.148V124.733L14.7615 126.318L14.8417 127.883L14.942 129.447L15.0624 130.992L15.2229 132.537L15.4034 134.061L15.604 135.566L15.8247 137.07L16.0855 138.555L16.3663 140.019L16.6672 141.484L16.9882 142.928L17.3493 144.352L17.7304 145.756L18.1317 147.161L18.5529 148.545L18.9943 149.909L19.4757 151.253L19.9772 152.577L20.4988 153.881L21.0404 155.165L21.6021 156.429L22.1839 157.672L22.8057 158.896L23.4477 160.1L24.1097 161.283L24.7917 162.447L25.4938 163.59L26.216 164.714L26.9583 165.817L27.7206 166.9L28.5029 167.963L29.3053 169.007L30.1278 170.03L30.9704 171.033L31.833 172.016L32.7156 172.979L33.6183 173.901L34.5411 174.804L35.4639 175.687L36.4068 176.549L37.3697 177.392L38.3526 178.194M82.0845 198.295L81.583 198.175L81.0814 198.014L80.5799 197.833L80.0784 197.613L79.597 197.372L79.1155 197.111L78.6341 196.81L78.1526 196.489L77.6912 196.128L77.2298 195.747L76.7684 195.326L76.3071 194.885L75.8657 194.403L75.4244 193.902L74.9831 193.36L74.5618 192.798L74.1405 192.196L73.7192 191.575L73.318 190.913L72.9168 190.231L72.5156 189.528L72.1345 188.786L71.7533 188.024L71.3922 187.221L71.0312 186.399L70.6701 185.536L70.329 184.654L69.988 183.751L69.667 182.808L69.3461 181.845L69.0452 180.862L68.7442 179.839L68.4433 178.796L68.1625 177.733L67.8816 176.63L67.6209 175.506L67.3601 174.363L67.1194 173.179L66.8786 171.976L66.658 170.752L66.4373 169.508L66.2367 168.224L66.0361 166.92L65.8555 165.596L65.675 164.252L65.5145 162.888L65.354 161.504L65.2136 160.1L65.0732 158.675L64.9528 157.231L64.8325 155.767L64.7322 154.282L64.6519 152.778L64.5717 151.253L64.5115 149.708L64.4513 148.144L64.4112 146.559L64.3711 144.954V143.329L64.3309 141.704V140.059V138.394V136.709L64.3911 135.024L64.4312 133.319L64.4914 131.594L64.5717 129.869L64.6519 128.123L64.7522 126.378L64.8525 124.613L64.9729 122.847L65.0932 121.062L65.2337 119.277L65.3741 117.491L65.5346 115.686L65.7151 113.88L65.8957 112.075L66.0963 110.269L66.2969 108.444L66.5175 106.618L66.7382 104.793L66.9789 102.967L67.2197 101.142L67.4804 99.3164L67.7412 97.4909L68.0221 95.6654L68.323 93.8399L68.6239 92.0144L68.9449 90.1889L69.2658 88.3634L69.6069 86.558L69.9479 84.7525L70.2889 82.9471L70.65 81.1617L71.0111 79.3763L71.3922 77.5909L71.7734 75.8256L72.1746 74.0603L72.5758 72.315L72.9971 70.5698L73.4183 68.8446L73.8396 67.1194L74.2809 65.4142L74.7223 63.7091L75.1837 62.024L75.6451 60.359L76.1064 58.694L76.5879 57.049L77.0694 55.4241L77.5508 53.8193L78.0523 52.2345L78.5538 50.6698L79.0553 49.105L79.5769 47.5604L80.0985 46.0358L80.6201 44.5313L81.1617 43.0468L81.7033 41.5824L82.245 40.138L82.7866 38.7137L83.3483 37.3095L83.91 35.9454L84.4717 34.6013L85.0334 33.2773L85.5951 31.9734L86.1768 30.6895L86.7586 29.4257L87.3403 28.202L87.9221 26.9984L88.5038 25.8148L89.0856 24.6513L89.6673 23.5279L90.2491 22.4246L90.8509 21.3413L91.4527 20.2982L92.0545 19.2751L92.6363 18.2921L93.218 17.3493L93.7998 16.4265L94.3615 15.5439L94.9232 14.7214L95.4648 13.939L95.9864 13.1968L96.508 12.4947L97.0095 11.8327L97.511 11.1907L98.0125 10.5689L98.5541 9.90686L99.2161 9.1245L100.42 7.72026L99.9584 6.59688L99.7176 6.01512L99.517 5.53367L99.3365 5.1124L99.1559 4.71119L98.9754 4.33004L98.7948 3.96895L98.6143 3.62792L98.4137 3.2869L98.2131 2.96593L98.0125 2.66502L97.8119 2.38417L97.6113 2.12339L97.4107 1.90272L97.2101 1.70212L97.0095 1.52157L96.8089 1.38115L96.6083 1.26079L96.4077 1.18054L96.2071 1.12036H96.0064H95.8058M100.44 7.68014L98.7146 9.00413L97.7918 9.72631L97.0095 10.3482L96.2873 10.95L95.5651 11.5518L94.8429 12.1737L94.1208 12.8357L93.3785 13.5378L92.6162 14.28L91.8339 15.0624L91.0314 15.8849L90.209 16.7475L89.3865 17.6502L88.5439 18.593L87.7014 19.576L86.8589 20.579L86.0163 21.6021L85.1738 22.6653L84.3312 23.7486L83.4887 24.8519L82.6662 25.9954L81.8437 27.1589L81.0213 28.3424L80.1988 29.5461L79.3964 30.7898L78.5939 32.0536L77.7915 33.3375L76.9891 34.6414L76.2068 35.9654L75.4244 37.3095L74.642 38.6736L73.8797 40.0778L73.1174 41.5021L72.3551 42.9465L71.6129 44.4109L70.8707 45.8954L70.1485 47.3999L69.4263 48.9044L68.7041 50.429L68.002 51.9737L67.2999 53.5384L66.6178 55.1232L65.9358 56.728L65.2738 58.3329L64.6118 59.9578L63.9699 61.6027L63.348 63.2677L62.7261 64.9328L62.1243 66.6178L61.5225 68.3029L60.9407 70.0081L60.359 71.7132L59.7973 73.4384L59.2556 75.1636L58.714 76.9089L58.1924 78.6541L57.6909 80.4195L57.1894 82.1848L56.708 83.9501L56.2466 85.7355L55.7852 87.5209L55.3438 89.3063L54.9226 91.0916L54.5214 92.877L54.1202 94.6624L53.739 96.4678L53.3779 98.2733L53.0168 100.079L52.6758 101.884L52.3548 103.69L52.0539 105.475L51.7731 107.26L51.4922 109.046L51.2314 110.831L50.9907 112.617L50.7701 114.382L50.5494 116.147L50.3488 117.913L50.1682 119.678L50.0078 121.423L49.8673 123.168L49.7269 124.894L49.6065 126.619L49.5062 128.324L49.426 130.029L49.3658 131.714L49.3056 133.399L49.2655 135.064V136.709L49.2455 138.354V139.979L49.2856 141.584L49.3257 143.189L49.3859 144.773L49.4661 146.338L49.5664 147.883L49.6667 149.407L49.7871 150.912L49.9275 152.417L50.088 153.901L50.2485 155.365L50.429 156.81L50.6296 158.234L50.8503 159.638L51.091 161.022L51.3317 162.367L51.5925 163.691L51.8734 164.994L52.1542 166.278L52.4551 167.542L52.7761 168.786L53.1171 170.01L53.4582 171.213L53.8192 172.377L54.2004 173.52L54.5815 174.644L54.9828 175.747L55.404 176.81L55.8253 177.853L56.2666 178.876L56.708 179.859L57.1693 180.822L57.6508 181.765L58.1323 182.668L58.6338 183.55L59.1353 184.413L59.6568 185.235L60.1985 186.038L60.7401 186.82L61.3018 187.563L61.8635 188.285L62.4453 188.967L63.027 189.629L63.6288 190.271L64.2306 190.872L64.8525 191.454L65.4744 191.996L66.0963 192.517L66.7382 192.999L67.3801 193.46L68.0421 193.902L68.7041 194.303L69.3661 194.684L70.0482 195.025L70.7302 195.346L71.4123 195.627L72.1144 195.888L72.8165 196.128M100.681 7.5999L98.4939 8.80353L97.3104 9.46552L96.3074 10.0473L95.3846 10.5889L94.4819 11.1506L93.5591 11.7324L92.6363 12.3342L91.6934 12.9761L90.7105 13.6782L89.7075 14.4205L88.6844 15.2028L87.6412 16.0253L86.578 16.8678L85.5148 17.7505L84.4516 18.6733L83.3884 19.6161L82.3252 20.5991L81.262 21.6021L80.1988 22.6252L79.1356 23.6683L78.0924 24.7516L77.0493 25.8549L76.0061 26.9783L74.963 28.1218L73.9399 29.3053L72.9168 30.509L71.8937 31.7327L70.8907 32.9764L69.8877 34.2402L68.9047 35.5241L67.9218 36.8481L66.9589 38.1921L65.996 39.5562L65.0531 40.9404L64.1103 42.3447L63.1875 43.769L62.2647 45.2133L61.362 46.6777L60.4593 48.1421L59.5766 49.6266L58.6939 51.1312L57.8313 52.6557L56.9888 54.2004L56.1463 55.7651L55.3238 57.3298L54.5214 58.9146L53.7189 60.5195L52.9366 62.1243L52.1743 63.7492L51.4321 65.3942L50.6898 67.0391L49.9676 68.7041L49.2655 70.3692L48.5835 72.0542L47.9014 73.7393L47.2394 75.4445L46.5975 77.1496L45.9756 78.8748L45.3738 80.6L44.792 82.3252L44.2303 84.0705L43.6686 85.8157L43.127 87.561L42.6054 89.3063L42.1039 91.0515L41.6225 92.7968L41.1611 94.5621L40.7198 96.3274L40.2985 98.0927L39.8973 99.8581L39.5161 101.623L39.155 103.389L38.814 105.134L38.493 106.879L38.1921 108.625L37.9113 110.37L37.6505 112.115L37.4098 113.86L37.1891 115.585L36.9885 117.311L36.808 119.036L36.6475 120.741L36.5071 122.446L36.3867 124.131L36.2864 125.816L36.2061 127.481L36.146 129.146L36.1058 130.791V132.436L36.0858 134.061V135.686L36.146 137.291L36.2061 138.876L36.2864 140.46L36.3867 142.025L36.5071 143.57L36.6475 145.094L36.808 146.599L36.9885 148.104L37.1891 149.588L37.4098 151.052L37.6505 152.497L37.9113 153.921L38.1921 155.325L38.493 156.709L38.7939 158.074L39.1149 159.418L39.4559 160.742L39.817 162.046L40.1982 163.329L40.5994 164.593L41.0207 165.837L41.462 167.061L41.9234 168.244L42.3848 169.408L42.8662 170.551L43.3677 171.675L43.8893 172.778L44.4309 173.861L44.9726 174.904L45.5343 175.927L46.116 176.93L46.7178 177.913L47.3397 178.856L47.9616 179.779L48.6035 180.682L49.2655 181.544L49.9275 182.387L50.6096 183.209L51.3117 183.992L52.0138 184.754L52.736 185.496L53.4782 186.198L54.2205 186.88L54.9828 187.542L55.7451 188.164L56.5274 188.766L57.3298 189.348L58.1323 189.89L58.9547 190.411L59.7772 190.893L60.6198 191.354L61.4623 191.795L62.3249 192.196L63.1875 192.578M100.62 7.68014L99.0958 6.67712L98.2733 6.15554L97.5912 5.73427L96.9693 5.35313L96.3475 4.99204L95.7256 4.65101L95.1037 4.33004L94.4618 4.02913L93.7998 3.74829L93.1378 3.4875L92.4557 3.24677L91.7737 3.02611L91.0716 2.8255L90.3695 2.64496L89.6673 2.50454L88.9652 2.38417L88.2832 2.28387L87.6011 2.22369L86.919 2.18357H86.237L85.575 2.20363L84.913 2.26381L84.251 2.34405M100.6 7.66008L97.3706 8.38226L95.6253 8.80353L94.1609 9.16462L92.7968 9.50564L91.4527 9.86673L90.1087 10.2479L88.7446 10.6491L87.3403 11.0904L85.916 11.5719L84.4516 12.0934L82.9471 12.6351L81.4225 13.2168L79.8778 13.8387L78.3332 14.4806L76.7684 15.1627L75.2037 15.8648L73.6591 16.587L72.1144 17.3493L70.5698 18.1317L69.0452 18.9341L67.5206 19.7766L66.016 20.6392L64.5115 21.5219L63.027 22.4246L61.5425 23.3674L60.0781 24.3303L58.6137 25.3133L57.1693 26.3163L55.7451 27.3394L54.3208 28.3826L52.9165 29.4658L51.5324 30.5692L50.1482 31.6925L48.7841 32.836L47.44 33.9995L46.116 35.1831L44.792 36.3867L43.4881 37.6104L42.2042 38.8541L40.9404 40.1179L39.6967 41.4018L38.473 42.7057L37.2694 44.0297L36.0858 45.3537L34.9223 46.6978L33.7788 48.0619L32.6554 49.4461L31.5521 50.8503L30.4688 52.2545L29.4056 53.6788L28.3625 55.1232L27.3394 56.5876L26.3364 58.052L25.3735 59.5365L24.4306 61.021L23.5079 62.5255L22.6051 64.0501L21.7225 65.5747L20.8799 67.1194L20.0575 68.664L19.255 70.2087L18.4727 71.7734L17.7304 73.3381L17.0083 74.9229L16.3061 76.5077L15.6442 78.0924L15.0022 79.6973L14.3803 81.3021L13.7986 82.907L13.2369 84.5118L12.6953 86.1166L12.1937 87.7415L11.7123 89.3664L11.2509 90.9913L10.8296 92.6162L10.4284 94.2411L10.0673 95.866L9.72631 97.4909L9.40534 99.1158L9.12449 100.741L8.86371 102.366L8.64304 103.991L8.44244 105.595L8.26189 107.2L8.12147 108.805L8.00111 110.41L7.92087 112.015L7.86068 113.6L7.82056 115.184V116.769V118.334L7.88074 119.898L7.96099 121.463L8.06129 123.008L8.20171 124.553L8.3622 126.077L8.54274 127.602L8.76341 129.106L9.00413 130.611L9.28498 132.095L9.58589 133.58L9.90685 135.044L10.2679 136.489L10.6491 137.933L11.0503 139.357L11.4716 140.761L11.933 142.166L12.4144 143.55L12.9159 144.914L13.4576 146.258L14.0193 147.602L14.601 148.926L15.2028 150.23L15.8247 151.514L16.4867 152.778L17.1687 154.021L17.8709 155.245L18.593 156.469L19.3353 157.672L20.0976 158.856L20.9 160.019L21.7225 161.163L22.565 162.286L23.4276 163.39" stroke="#181818" stroke-width="0.5" stroke-linecap="round" stroke-linejoin="round"/>
</svg>
