<svg width="220" height="222" viewBox="0 0 220 222" fill="none" xmlns="http://www.w3.org/2000/svg">
<path d="M94.7587 1C94.7587 33.963 100.119 44.8069 110.809 33.5471C100.104 44.8069 112.072 46.5475 146.714 38.7688C112.087 46.5475 103.431 54.9885 120.729 64.1072C103.4 55.0039 105.449 66.926 126.859 99.889C105.464 66.9106 94.7587 61.2884 94.7587 82.9916C94.7587 61.2884 84.0534 66.926 62.6429 99.889C84.0534 66.926 86.1021 55.0039 68.7734 64.1072C86.1021 55.0039 77.43 46.5475 42.7881 38.7688C77.4146 46.5475 89.383 44.8069 78.6931 33.5471C89.3984 44.8223 94.7587 33.9784 94.7587 1.0154V1Z" stroke="#181818" stroke-width="0.5" stroke-linecap="round" stroke-linejoin="round"/>
<path d="M52.9079 112.09L55.8807 157.576L85.0237 122.518L60.6865 161.057L104.863 149.828L62.5195 166.71L104.863 183.592L60.6865 172.363L85.0237 210.902L55.8807 175.844L52.9079 221.33L49.935 175.844L20.792 210.902L45.1292 172.363L0.952637 183.607L43.2962 166.725L0.952637 149.843L45.1292 161.072L20.792 122.533L49.935 157.591L52.9079 112.105V112.09Z" stroke="#181818" stroke-width="0.5" stroke-linecap="round" stroke-linejoin="round"/>
<path d="M158.157 65.4258C158.157 111.066 163.533 120.893 179.66 104.766C163.533 120.893 173.36 126.269 219 126.269C173.36 126.269 163.533 131.644 179.66 147.772C163.533 131.644 158.157 141.472 158.157 187.112C158.157 141.472 152.782 131.644 136.654 147.772C152.782 131.644 142.954 126.269 97.3145 126.269C142.954 126.269 152.782 120.893 136.654 104.766C152.782 120.893 158.157 111.066 158.157 65.4258Z" stroke="#181818" stroke-width="0.5" stroke-linecap="round" stroke-linejoin="round"/>
</svg>
