<svg width="120" height="24" viewBox="0 0 120 24" fill="none" xmlns="http://www.w3.org/2000/svg">
<path d="M0 13.0703V23.6679H2.74385V15.554H6.32623V23.6679H9.07539V13.0703H0Z" fill="#FFF"/>
<path d="M44.8467 13.0703V17.0725H41.1476V13.0703H38.3984V23.6679H41.1476V19.6031H44.8467V23.6679H47.5906V13.0703H44.8467Z" fill="#FFF"/>
<path d="M51.1953 13.0703V23.6679H59.5224V21.2103H53.9338V19.5562H58.79V17.0985H53.9338V15.5227H59.4534V13.0703H51.1953Z" fill="#FFF"/>
<path d="M62.0391 13.0703V15.5958H65.1756V23.6679H67.9195V15.5958H71.0561V13.0703H62.0391Z" fill="#FFF"/>
<path d="M105.001 13.0703L100.834 19.1701V13.0703H98.1172V23.6679H100.622L104.751 17.5734V23.6679H107.469V13.0703H105.001Z" fill="#FFF"/>
<path d="M17.3076 13.0703H14.6911H14.5053L11.7031 23.6679H14.5107L16.6548 15.554H19.2129V23.6679H21.9567V13.0703H17.3076Z" fill="#FFF"/>
<path d="M76.6941 15.5123H78.0316L78.7109 18.0847H76.0148L76.6941 15.5123ZM79.7564 13.0703H74.5288L71.7266 23.6679H74.5341L75.362 20.5319H79.3531L80.1863 23.6679H82.9938L80.1916 13.0703H79.7564Z" fill="#FFF"/>
<path d="M29.4988 15.5123H30.8363L31.5156 18.0847H28.8195L29.4988 15.5123ZM32.6938 13.0703H27.3335L24.5312 23.6679H27.3388L28.1667 20.5319H32.1578L32.9857 23.6679H35.7932L32.991 13.0703H32.6832H32.6938Z" fill="#FFF"/>
<path d="M117.519 13.0703L113.358 19.1648V13.0703H110.641V23.6679H113.14L117.269 17.5682V23.6679H119.992V13.0703H117.519Z" fill="#FFF"/>
<path d="M117.733 9.375H113.078V11.6865H117.733V9.375Z" fill="#FFF"/>
<path d="M88.3504 15.5123H92.4795V17.0985H88.3504V15.5123ZM94.2574 13.0703H85.6172V23.6679H88.3504V19.5457H94.9685V13.0703H94.2574Z" fill="#FFF"/>
<path d="M3.02981 3.97396L0.875068 1.14062H0.3125V6.22288H0.912219V2.03289L2.99266 4.77751H3.02981L5.04125 2.03289V6.22288H5.63567V1.14062H5.09433L3.02981 3.97396Z" fill="#FFF"/>
<path d="M16.4776 1.03516C14.8695 1.03516 13.7656 2.15701 13.7656 3.68064C13.7656 5.20427 14.8695 6.32612 16.4776 6.32612C18.0857 6.32612 19.1896 5.20427 19.1896 3.68064C19.1896 2.15701 18.0857 1.03516 16.4776 1.03516ZM16.4776 5.77302C15.2729 5.77302 14.3972 4.90163 14.3972 3.68064C14.3972 2.45965 15.2835 1.58825 16.4776 1.58825C17.6718 1.58825 18.5581 2.45965 18.5581 3.68064C18.5581 4.90163 17.6983 5.77302 16.4776 5.77302Z" fill="#FFF"/>
<path d="M29.7444 5.77302C28.5397 5.77302 27.595 4.96947 27.595 3.68064C27.595 2.47009 28.5397 1.58825 29.633 1.58825C30.2327 1.58825 30.8059 1.73436 31.2676 2.14136L31.5542 1.66653C31.0606 1.20213 30.3442 1.03516 29.5428 1.03516C28.0727 1.03516 26.9688 2.19875 26.9688 3.68064C26.9688 5.28776 28.1098 6.32612 29.7073 6.32612C30.4662 6.32612 31.2252 6.04435 31.6604 5.50169L31.3631 5.07382C31.0076 5.48082 30.4185 5.77302 29.7551 5.77302" fill="#FFF"/>
<path d="M43.8658 1.14062H43.091L40.5859 3.60348L43.2661 6.22288H44.0675L41.313 3.56696L43.8658 1.14062Z" fill="#FFF"/>
<path d="M40.2325 1.14062H39.6328V6.22809H40.2325V1.14062Z" fill="#FFF"/>
<path d="M53.9698 1.03516C52.3617 1.03516 51.2578 2.15701 51.2578 3.68064C51.2578 5.20427 52.3617 6.32612 53.9698 6.32612C55.5779 6.32612 56.6818 5.20427 56.6818 3.68064C56.6818 2.15701 55.5779 1.03516 53.9698 1.03516ZM53.9698 5.77302C52.7598 5.77302 51.8894 4.90163 51.8894 3.68064C51.8894 2.45965 52.7757 1.58825 53.9698 1.58825C55.1639 1.58825 56.0503 2.45965 56.0503 3.68064C56.0503 4.90163 55.1905 5.77302 53.9698 5.77302Z" fill="#FFF"/>
<path d="M67.5488 3.59963V3.57876C68.2282 3.4744 68.5944 2.96827 68.5944 2.41517C68.5944 1.48638 67.8567 1.10547 66.4555 1.10547C65.755 1.10547 65.2349 1.142 64.7891 1.142V6.22946C65.2614 6.22946 65.8346 6.26598 66.4821 6.26598C68.0212 6.26598 68.7907 5.75985 68.7907 4.83106C68.7907 4.16317 68.4351 3.74573 67.5488 3.61007M65.3888 1.68988C65.6754 1.67944 66.031 1.669 66.5298 1.669C67.31 1.669 67.9681 1.84119 67.9681 2.5143C67.9681 3.05697 67.5064 3.40657 66.7634 3.40657H65.3941V1.68988H65.3888ZM66.5511 5.71289C66.0787 5.71289 65.7231 5.70245 65.3888 5.69202V3.89706H66.6307C67.6656 3.89706 68.1592 4.17882 68.1592 4.77888C68.1592 5.42069 67.5966 5.71811 66.5511 5.71811" fill="#FFF"/>
<path d="M79.4138 5.77302C78.2038 5.77302 77.2644 4.96947 77.2644 3.68064C77.2644 2.47009 78.2038 1.58825 79.2971 1.58825C79.8968 1.58825 80.47 1.73436 80.9317 2.14136L81.2183 1.66653C80.7247 1.20213 80.0082 1.03516 79.2068 1.03516C77.7367 1.03516 76.6328 2.19875 76.6328 3.68064C76.6328 5.28776 77.7686 6.32612 79.3714 6.32612C80.1303 6.32612 80.8892 6.04435 81.3244 5.50169L81.0272 5.07382C80.6716 5.48082 80.0825 5.77302 79.4191 5.77302" fill="#FFF"/>
<path d="M93.5377 1.14062H92.7681L90.2578 3.60348L92.938 6.22288H93.7447L90.9849 3.56696L93.5377 1.14062Z" fill="#FFF"/>
<path d="M89.92 1.14062H89.3203V6.22809H89.92V1.14062Z" fill="#FFF"/>
<path d="M102.139 5.37888V1.13672H101.539V6.22418H102.139L105.588 1.98724V6.22418H106.183V1.13672H105.588L102.139 5.37888Z" fill="#FFF"/>
<path d="M118.706 1.14062L115.256 5.37758V1.14062H114.656V6.22288H115.256L118.706 1.98593V6.22288H119.3V1.14062H118.706Z" fill="#FFF"/>
<path d="M118.092 0H115.938V0.469609H118.092V0Z" fill="#FFF"/>
</svg>
