<svg xmlns="http://www.w3.org/2000/svg"><symbol fill="none" id="sym-icon-quiz" viewBox="0 0 24 24"><title>icon-quiz</title><path d="M11.5 8h8m-8 8h8M6 6h2a1 1 0 0 1 1 1v2a1 1 0 0 1-1 1H6a1 1 0 0 1-1-1V7a1 1 0 0 1 1-1Zm0 8h2a1 1 0 0 1 1 1v2a1 1 0 0 1-1 1H6a1 1 0 0 1-1-1v-2a1 1 0 0 1 1-1Z" stroke="currentColor" stroke-width="1.4"/></symbol><symbol fill="none" class="hp-program__load-arrow" id="sym-icon-send" viewBox="0 0 12 12"><title>icon-send</title><path fill-rule="evenodd" clip-rule="evenodd" d="M1.403.3h10.3v10.3h-1.4V2.69l-8.805 8.806-.99-.99L9.313 1.7h-7.91V.3Z" fill="currentColor"/></symbol><symbol fill="none" id="sym-logo-simple" viewBox="0 0 96 71"><title>logo-simple</title><path d="M14.7 67.089c8.79-1.636 19.85-2.951 33.415-2.951 12.824 0 25.478 1.327 34.06 2.992 8.56 1.658 10.507 3.358 10.913 3.864H96l-1.012-14.87a5.045 5.045 0 0 0-.023-.309l-.153-2.275c-.612-12.252-6.313-25.306-15.86-36.155C69.575 6.734 57.345 0 48.115 0S27.813 6.612 18.16 16.814C7.87 27.686 1.818 41.003 1.188 53.545L0 71h2.912c.406-.5 2.406-2.165 11.795-3.911m33.414-5.686c-16.254 0-37.973 2.537-45.462 6.681.812-6.885 18.342-14.219 45.315-14.219 25.236 0 44.443 7.322 45.367 14.202-7.383-4.104-28.572-6.664-45.22-6.664Zm33.066-20.499c-9.041-6.379-21.79-9.522-33.066-9.522-11.278 0-22.531 3.038-32.085 9.237-6.047 3.928-10.512 8.584-13.048 13.48 1.983-7.264 7.054-14.44 14.578-20.389 9.37-7.415 20.201-11.32 30.555-11.32 10.353 0 22.607 4.028 31.496 11.64 6.818 5.844 11.46 12.793 13.365 19.795-2.37-4.656-6.4-9.115-11.795-12.921Zm11.79 17.361c-2.324-3.329-6.113-6.442-11.13-9.184-8.948-4.889-21.72-7.444-33.726-7.444-20.508 0-38.273 6.862-44.938 16.239C5.1 52.149 9.895 46.56 16.972 41.969c9.283-6.024 19.942-8.957 31.149-8.957 11.206 0 23.319 3.026 32.078 9.213C86.823 46.9 91.264 52.55 92.97 58.271M48.115 43.645c22.878 0 41.532 9.446 44.908 19.247-6.753-6.658-24.895-11.384-45.055-11.384-21.272 0-38.509 4.645-45.003 11.21 3.43-10.529 22.884-19.073 45.156-19.073M80.475 33.1c-9.253-7.927-21.654-11.954-32.354-11.954-10.701 0-21.778 4.015-31.379 11.605-6.741 5.331-11.571 11.635-14.06 18.147 1.96-8.951 7.348-17.908 15.443-25.405 9.465-8.77 20.46-14.218 29.996-14.218 17.618 0 40.443 18.164 45.155 39.291-2.353-6.221-6.741-12.274-12.795-17.46M18.648 17.257C28.208 7.159 39.361.634 48.115.634c17.424 0 41.65 23.24 45.644 48.121-5.583-20.818-28.131-38.39-45.644-38.39-9.766 0-21.002 5.541-30.632 14.47C9.771 31.982 4.471 40.45 2.194 49.005c1.712-11.01 7.496-22.272 16.454-31.741" fill="currentColor"/></symbol></svg>